<svg width="3073" height="1903" viewBox="0 0 3073 1903" fill="none" xmlns="http://www.w3.org/2000/svg">
<g id="bg-about">
<path id="Ellipse 2" d="M3073 951.5C3073 1477 2647 1903 2121.5 1903C1596 1903 1170 1477 1170 951.5C1170 426.001 1596 0 2121.5 0C2647 0 3073 426.001 3073 951.5Z" fill="#338DF5"/>
<g id="bicycle">
<g id="freepik--background-complete--inject-432">
<path id="Vector" d="M1080.89 1075.92C1080.89 1076.24 873.089 1076.48 616.8 1076.48C360.511 1076.48 152.636 1076.24 152.636 1075.92C152.636 1075.61 360.414 1075.4 616.8 1075.4C873.186 1075.4 1080.89 1075.63 1080.89 1075.92Z" fill="#E0E0E0"/>
<path id="Vector_2" d="M944.323 945.721C929.674 926.673 925.11 890.157 935.459 868.463C941.2 876.738 948.692 883.652 957.404 888.716C952.562 877.068 949.012 864.925 946.82 852.505L965.7 837.973C968.225 843.348 970.111 854.444 975.05 859.985C969.986 851.743 971.762 833.221 977.824 827.75C985.095 821.494 993.603 816.835 1002.79 814.077C1014.27 810.17 1026.1 807.387 1038.11 805.765C1046.08 804.754 1055.02 804.726 1061.07 809.921C1069.71 817.374 1067.77 831.975 1060.43 840.702C1053.09 849.429 1042.09 853.932 1031.93 859.057C994.355 878.063 963.715 908.379 944.337 945.721" fill="#EBEBEB"/>
<path id="Vector_3" d="M861.616 857.381C876.265 838.347 880.802 801.817 870.453 780.123C864.724 788.404 857.235 795.32 848.521 800.376C853.353 788.764 856.897 776.658 859.092 764.276L840.239 749.744C837.701 755.133 835.8 766.215 830.876 771.742C835.925 763.514 834.177 744.992 828.101 739.52C820.832 733.262 812.324 728.603 803.131 725.848C791.645 721.961 779.814 719.178 767.799 717.536C759.822 716.552 750.902 716.511 744.826 721.692C736.212 729.145 738.126 743.759 745.464 752.57C752.803 761.38 763.803 765.799 773.986 770.925C811.558 789.94 842.201 820.259 861.589 857.602" fill="#F5F5F5"/>
<path id="Vector_4" d="M901.541 818.565C909.67 807.912 921.836 801.18 931.893 792.245C941.95 783.309 950.44 770.232 947.152 757.252L929.035 762.793C948.692 752.625 958.333 726.582 950.246 705.983L944.073 707.091C951.647 702.935 956.266 694.748 957.778 686.159C959.29 677.57 958 668.94 956.183 660.517C953.144 646.404 948.571 632.664 942.547 619.541C937.22 623.17 930.422 623.696 924.138 624.999C917.854 626.301 911.071 629.736 909.364 635.942C906.659 645.764 918.256 654.824 916.855 664.909C911.535 657.843 904.321 652.426 896.047 649.283C895.714 656.833 886.642 662.415 887.641 669.868C888.202 672.402 889.342 674.772 890.97 676.795L915.94 712.978C900.588 707.087 885.742 699.957 871.549 691.659C874.157 735.905 881.398 778.932 901.471 818.523" fill="#F5F5F5"/>
<path id="Vector_5" d="M1041.52 835.743C1041.33 835.897 1041.12 836.032 1040.9 836.144L1039.06 837.253C1037.42 838.25 1034.89 839.538 1031.9 841.478C1023.22 846.819 1014.94 852.773 1007.12 859.293C1004.58 861.343 1002.14 863.587 999.45 865.9C996.759 868.214 994.193 870.777 991.557 873.492C985.85 879.18 980.477 885.193 975.465 891.501C972.802 894.825 970.374 898.427 967.794 902.084C966.545 903.913 965.186 905.727 963.965 907.625L960.372 913.513C957.847 917.378 955.836 921.741 953.561 925.87C952.396 927.92 951.494 930.206 950.481 932.408C949.469 934.611 948.428 936.799 947.499 939.071C940.546 956.186 935.575 974.038 932.683 992.28C930.302 1007.18 929.114 1022.25 929.132 1037.34C929.007 1043.8 929.396 1049.7 929.548 1054.74C929.701 1059.79 930.242 1064.2 930.519 1067.83L931.379 1076.06C931.476 1076.98 931.546 1077.67 931.587 1078.22C931.615 1078.47 931.615 1078.72 931.587 1078.97C931.571 1078.73 931.519 1078.48 931.435 1078.25C931.296 1077.77 931.282 1076.99 931.13 1076.19C930.88 1074.23 930.519 1071.45 930.034 1067.96C929.548 1064.47 929.298 1059.97 928.882 1054.84C928.466 1049.71 928.23 1043.9 928.286 1037.43C928.161 1022.27 929.27 1007.13 931.601 992.156C934.456 973.804 939.437 955.845 946.445 938.642C947.346 936.329 948.511 934.126 949.427 931.909C950.34 929.663 951.383 927.47 952.548 925.343C954.851 921.187 956.849 916.824 959.484 913L963.091 907.113C964.326 905.173 965.685 903.359 966.961 901.572C969.542 897.901 971.983 894.285 974.688 890.946C979.75 884.631 985.179 878.618 990.947 872.938C993.61 870.167 996.357 867.771 998.923 865.374C1001.49 862.977 1004.1 860.761 1006.65 858.78C1014.56 852.306 1022.93 846.43 1031.72 841.201C1034.81 839.331 1037.35 838.098 1039.01 837.045L1040.93 836.034L1041.52 835.743Z" fill="#E0E0E0"/>
<path id="Vector_6" d="M886.753 1073.33C886.753 1073.04 886.753 1072.74 886.753 1072.45C886.753 1071.81 886.753 1070.92 886.655 1069.81C886.655 1067.45 886.447 1064.08 886.323 1059.73C886.198 1055.38 886.031 1050.03 885.976 1043.76C885.92 1037.48 885.74 1030.42 885.782 1022.58C885.782 1006.9 886.017 988.221 886.669 967.484C887.321 946.746 888.487 923.986 890.345 900.117C892.204 876.248 894.507 853.544 896.852 832.931C899.196 812.317 901.846 793.824 904.259 778.336C905.383 770.579 906.604 763.569 907.616 757.446C908.629 751.323 909.572 746.004 910.391 741.695C911.209 737.387 911.778 734.104 912.25 731.749C912.458 730.668 912.638 729.823 912.763 729.186C912.818 728.891 912.888 728.6 912.971 728.313C912.96 728.611 912.928 728.907 912.874 729.2C912.874 729.837 912.638 730.71 912.486 731.791C912.111 734.146 911.556 737.498 910.849 741.751C910.141 746.004 909.239 751.448 908.31 757.543C907.381 763.638 906.257 770.689 905.119 778.461C902.817 793.948 900.361 812.484 897.947 833.055C895.534 853.627 893.37 876.276 891.538 900.2C889.707 924.124 888.57 946.815 887.793 967.525C887.016 988.235 886.697 1006.92 886.628 1022.58V1043.74C886.628 1049.95 886.628 1055.35 886.78 1059.73C886.933 1064.11 886.78 1067.45 886.78 1069.81V1072.45C886.806 1072.74 886.796 1073.04 886.753 1073.33V1073.33Z" fill="#E0E0E0"/>
<path id="Vector_7" d="M821.539 788.809C821.947 789.246 822.327 789.709 822.677 790.194L825.77 794.433C827.157 796.262 828.711 798.589 830.487 801.249C832.262 803.909 834.357 806.984 836.466 810.461C838.574 813.938 840.974 817.734 843.305 821.917C845.635 826.101 848.104 830.576 850.643 835.327C855.554 844.927 860.576 855.663 865.223 867.189C869.87 878.714 873.546 889.991 876.612 900.325C877.999 905.52 879.483 910.437 880.551 915.106C881.62 919.774 882.618 924.124 883.478 928.1C884.339 932.076 884.866 935.733 885.545 938.905C886.225 942.077 886.53 944.848 886.822 947.134C887.113 949.419 887.307 951.04 887.501 952.342C887.603 952.942 887.65 953.549 887.64 954.157C887.463 953.568 887.333 952.966 887.252 952.356C887.044 951.082 886.738 949.378 886.364 947.217C885.989 945.056 885.545 942.23 884.907 938.988C884.269 935.747 883.645 932.186 882.702 928.238C881.758 924.29 880.884 920.01 879.65 915.286C878.415 910.562 877.083 905.755 875.488 900.602C872.395 890.309 868.552 879.102 864.044 867.66C859.535 856.217 854.444 845.495 849.616 835.867C847.106 831.116 844.789 826.558 842.375 822.43C839.961 818.302 837.783 814.423 835.689 810.946C833.594 807.469 831.527 804.38 829.876 801.665C828.225 798.949 826.589 796.594 825.312 794.738L822.413 790.374C822.069 789.884 821.776 789.359 821.539 788.809V788.809Z" fill="#E0E0E0"/>
<path id="Vector_8" d="M790.396 921.63C782.586 924.886 776.524 931.161 769.588 935.857C762.652 940.553 753.205 943.573 745.783 939.514L752.095 929.416C747.203 934.41 740.705 937.522 733.742 938.204C726.779 938.885 719.799 937.093 714.029 933.142L715.694 929.554C713.721 931.425 711.359 932.839 708.777 933.696C706.195 934.553 703.456 934.832 700.754 934.514C695.319 933.833 690.068 932.111 685.286 929.443C677.218 925.311 669.618 920.323 662.619 914.565C665.685 911.906 667.03 907.861 668.806 904.273C670.582 900.685 679.64 895.656 679.64 895.656L694.303 906.268C690.857 901.913 688.717 896.673 688.13 891.154C692.791 892.179 697.633 887.552 702.002 889.353C703.528 889.99 708.938 889.547 710.242 890.558C714.964 894.164 719.132 898.439 722.616 903.248C721.493 892.955 720.647 893.08 717.872 883.119C744.424 891.833 769.393 903.151 790.354 921.7" fill="#FAFAFA"/>
<path id="Vector_9" d="M729.581 915.341C732.047 913.857 734.702 912.711 737.474 911.934C745.073 909.687 753.078 909.166 760.905 910.41C772.456 912.28 783.467 916.617 793.185 923.127C805.032 930.979 816.076 939.976 826.159 949.987C836.407 959.886 845.666 970.757 853.807 982.445C860.44 991.98 866.113 1002.15 870.745 1012.8C873.836 1019.99 876.391 1027.39 878.388 1034.96C879.026 1037.63 879.456 1039.75 879.775 1041.13C879.886 1041.79 879.997 1042.33 880.094 1042.76C880.122 1042.94 880.122 1043.13 880.094 1043.31C880.012 1043.14 879.951 1042.96 879.914 1042.77C879.789 1042.34 879.651 1041.83 879.484 1041.17C879.096 1039.68 878.555 1037.63 877.889 1035C875.735 1027.52 873.08 1020.19 869.94 1013.06C865.21 1002.51 859.488 992.438 852.849 982.971C836.454 959.849 816.028 939.86 792.547 923.958C782.976 917.466 772.126 913.092 760.724 911.13C750.896 909.475 740.8 910.618 731.593 914.427L730.094 915.092C729.845 915.3 729.678 915.369 729.581 915.341Z" fill="#E0E0E0"/>
<path id="Vector_10" d="M1046.99 1076.05C1032.8 1032.02 982.263 1003.17 937.082 1013.32C925.263 999.962 910.341 989.701 893.626 983.441C876.911 977.182 858.913 975.114 841.211 977.42C823.508 979.725 806.644 986.334 792.095 996.666C777.547 1007 765.761 1020.74 757.769 1036.68C711.991 1015.54 654.602 1022.27 614.886 1053.41L585.407 1071.93L1046.99 1076.05Z" fill="#EBEBEB"/>
<path id="Vector_11" d="M248.23 775.385H223.273V1076.44H248.23V775.385Z" fill="#E0E0E0"/>
<path id="Vector_12" d="M241.987 475.775H229.516V808.466H241.987V475.775Z" fill="#E0E0E0"/>
<path id="Vector_13" d="M235.772 525.812C257.078 525.812 274.351 508.564 274.351 487.287C274.351 466.01 257.078 448.762 235.772 448.762C214.466 448.762 197.193 466.01 197.193 487.287C197.193 508.564 214.466 525.812 235.772 525.812Z" fill="#EBEBEB"/>
<path id="Vector_14" d="M244.012 528.859H226.879C226.27 528.838 225.693 528.58 225.27 528.14C224.848 527.7 224.614 527.114 224.618 526.504C224.618 525.884 224.865 525.288 225.305 524.849C225.745 524.41 226.341 524.163 226.963 524.163H244.15C244.772 524.163 245.368 524.41 245.808 524.849C246.248 525.288 246.495 525.884 246.495 526.504C246.495 527.127 246.248 527.724 245.809 528.165C245.37 528.606 244.773 528.856 244.15 528.859H244.012Z" fill="#E0E0E0"/>
<path id="Vector_15" d="M254.582 775.386H216.656C216.315 775.386 215.978 775.319 215.663 775.188C215.348 775.058 215.062 774.867 214.821 774.627C214.58 774.386 214.389 774.101 214.259 773.786C214.129 773.472 214.062 773.135 214.062 772.795V772.795C214.069 772.11 214.344 771.456 214.829 770.971C215.314 770.487 215.97 770.212 216.656 770.205H254.582C255.27 770.205 255.93 770.477 256.417 770.963C256.903 771.449 257.176 772.108 257.176 772.795V772.795C257.18 773.133 257.117 773.468 256.99 773.781C256.864 774.094 256.677 774.38 256.439 774.62C256.202 774.861 255.92 775.053 255.608 775.184C255.297 775.315 254.962 775.384 254.624 775.386H254.582Z" fill="#E0E0E0"/>
<path id="Vector_16" d="M484.861 581.708H664.021C664.021 581.708 648.165 552.894 602.054 557.009C558.009 561.164 555.762 542.851 533.386 540.551C511.01 538.252 492.325 555.609 484.861 581.708Z" fill="#F5F5F5"/>
<path id="Vector_17" d="M418.357 614.096H534.079C534.079 614.096 523.786 595.575 494.058 598.207C465.62 600.784 464.177 589.05 449.667 587.61C435.157 586.169 423.24 597.168 418.357 614.096Z" fill="#EBEBEB"/>
<path id="Vector_18" d="M735.768 499.852H844.997C844.997 499.852 835.287 482.3 807.196 484.849C780.408 487.287 778.966 476.205 765.301 474.847C751.637 473.49 740.29 483.948 735.768 499.852Z" fill="#F5F5F5"/>
</g>
<g id="freepik--Floor--inject-432">
<path id="Vector_19" d="M1080.89 1328.7C1080.89 1329 873.089 1329.25 616.8 1329.25C360.511 1329.25 152.636 1329 152.636 1328.7C152.636 1328.39 360.414 1328.16 616.8 1328.16C873.186 1328.16 1080.89 1328.41 1080.89 1328.7Z" fill="#2F2E41"/>
</g>
<g id="freepik--Plant--inject-432">
<path id="Vector_20" d="M1011.19 1210.19C1013.89 1211.47 1016.31 1213.29 1018.29 1215.54C1020.27 1217.78 1021.78 1220.4 1022.73 1223.24C1024.58 1228.93 1025.1 1234.98 1024.25 1240.91C1022.95 1252.38 1016.44 1263.95 1009.41 1273.12C999.7 1264.68 997.494 1249.99 996.842 1242.46C995.802 1230.56 1001.17 1208.41 1011.27 1210.19" fill="#0071F2"/>
<path id="Vector_21" d="M1020.65 1292.04C1020 1288.76 1020.23 1285.37 1021.31 1282.21C1022.4 1279.05 1024.3 1276.23 1026.82 1274.03C1029.38 1271.89 1032.33 1270.28 1035.52 1269.29C1038.71 1268.29 1042.06 1267.94 1045.38 1268.26C1046.94 1268.22 1048.48 1268.53 1049.91 1269.16C1051.33 1269.79 1052.6 1270.73 1053.62 1271.9C1054.36 1273.14 1054.75 1274.56 1054.78 1276C1054.8 1277.44 1054.44 1278.86 1053.75 1280.13C1052.28 1282.62 1050.18 1284.68 1047.67 1286.11C1039.28 1291.36 1030.21 1294.91 1020.73 1292.07" fill="#0071F2"/>
<path id="Vector_22" d="M1008.23 1327.22C1008.28 1326.42 1008.4 1325.62 1008.59 1324.85C1008.9 1323.2 1009.29 1321.06 1009.76 1318.49C1010.84 1311.4 1013.06 1304.52 1016.33 1298.14C1019.74 1291.76 1024.8 1286.41 1030.97 1282.64C1032.84 1281.51 1034.84 1280.63 1036.93 1280C1037.49 1279.82 1038.06 1279.67 1038.64 1279.55C1038.84 1279.52 1039.05 1279.52 1039.25 1279.55C1036.47 1280.49 1033.79 1281.71 1031.26 1283.19C1025.31 1287.06 1020.44 1292.36 1017.08 1298.61C1013.85 1304.93 1011.58 1311.69 1010.34 1318.68C1009.76 1321.34 1009.27 1323.52 1008.95 1325C1008.79 1325.76 1008.55 1326.5 1008.23 1327.22V1327.22Z" fill="#2F2E41"/>
<path id="Vector_23" d="M1008.61 1227.38C1008.68 1227.72 1008.72 1228.06 1008.73 1228.4C1008.73 1229.16 1008.83 1230.13 1008.9 1231.34C1009.04 1233.92 1009.19 1237.64 1009.33 1242.23C1009.63 1251.41 1009.87 1264.13 1009.8 1278.15C1009.73 1292.17 1009.41 1304.9 1009.02 1314.08C1008.83 1318.67 1008.65 1322.31 1008.51 1324.96C1008.51 1326.16 1008.34 1327.13 1008.3 1327.89C1008.29 1328.24 1008.25 1328.58 1008.18 1328.92C1008.14 1328.58 1008.14 1328.23 1008.18 1327.89V1324.93C1008.18 1322.26 1008.32 1318.57 1008.44 1314.07C1008.68 1304.86 1008.91 1292.17 1008.98 1278.15C1009.05 1264.13 1008.98 1251.38 1008.75 1242.26C1008.75 1237.73 1008.61 1233.94 1008.57 1231.37V1228.4C1008.55 1228.06 1008.56 1227.72 1008.61 1227.38Z" fill="#2F2E41"/>
<path id="Vector_24" d="M1003.9 1299.01C1002.75 1292.05 999.943 1285.47 995.725 1279.81C991.508 1274.15 985.998 1269.58 979.655 1266.47C976.437 1264.93 972.206 1263.92 969.556 1266.32C966.907 1268.71 967.489 1273.04 968.793 1276.38C971.63 1283.3 976.459 1289.24 982.671 1293.43C988.883 1297.62 996.199 1299.88 1003.7 1299.93" fill="#0071F2"/>
<path id="Vector_25" d="M981.237 1277.4C981.949 1277.65 982.64 1277.96 983.304 1278.31C984.1 1278.68 984.874 1279.09 985.62 1279.55C986.639 1280.11 987.626 1280.73 988.575 1281.4C989.747 1282.18 990.877 1283.03 991.96 1283.93C993.208 1284.95 994.403 1286.03 995.539 1287.18C998.134 1289.84 1000.42 1292.78 1002.36 1295.95C1004.25 1299.16 1005.76 1302.57 1006.87 1306.12C1007.34 1307.66 1007.72 1309.24 1008.01 1310.83C1008.29 1312.2 1008.48 1313.59 1008.59 1314.98C1008.71 1316.14 1008.76 1317.31 1008.75 1318.47C1008.81 1319.35 1008.81 1320.23 1008.75 1321.11C1008.74 1321.85 1008.66 1322.59 1008.51 1323.32C1008.32 1323.32 1008.65 1320.14 1008.07 1315.09C1007.93 1313.7 1007.71 1312.31 1007.41 1310.94C1007.09 1309.38 1006.7 1307.84 1006.22 1306.33C1004.03 1299.37 1000.23 1293.02 995.123 1287.8C994.008 1286.66 992.826 1285.58 991.585 1284.58C990.531 1283.66 989.435 1282.8 988.312 1281.99C984.067 1278.83 981.14 1277.57 981.237 1277.4Z" fill="#2F2E41"/>
</g>
<path id="Vector_26" opacity="0.2" d="M506.585 921.354C506.585 921.354 510.844 963.993 537.215 1011.85L567.734 1065.66C567.734 1065.66 553.972 1066.3 559.549 1078.27L550.366 1091.88L529.294 1153.35C529.17 1153.74 528.909 1154.08 528.559 1154.3C525.215 1156.49 507.584 1168.54 516.074 1174.17C516.285 1174.31 516.466 1174.49 516.604 1174.7C516.741 1174.92 516.833 1175.15 516.874 1175.4C516.914 1175.65 516.902 1175.91 516.839 1176.16C516.775 1176.4 516.661 1176.63 516.504 1176.83C513.049 1181.23 505.017 1192.7 513.119 1195C513.473 1195.09 513.792 1195.29 514.037 1195.56C514.282 1195.83 514.442 1196.16 514.497 1196.52C514.551 1196.88 514.499 1197.25 514.345 1197.58C514.191 1197.91 513.943 1198.19 513.632 1198.38C509.776 1200.77 506.141 1204.13 508.999 1207.39C516.874 1206.26 524.907 1207.56 532.027 1211.1L549.866 1223.35C549.866 1223.35 565.126 1167.31 592.967 1131.32L610.807 1102.02C610.807 1102.02 620.087 1089.03 618.978 1077.91L605.23 998.5L506.585 921.354Z" fill="black"/>
<path id="Vector_27" d="M787.941 1201.31L779.895 1191.19C763.484 1173.3 753.219 1138.55 753.219 1138.55L730.912 1063L716.166 1013.34H499.76L485.305 969.007C485.074 968.301 484.624 967.686 484.021 967.25C483.418 966.815 482.692 966.581 481.948 966.583H476.246C475.605 966.582 474.975 966.755 474.425 967.084C473.875 967.414 473.426 967.887 473.125 968.453L469.879 974.562C469.663 974.966 469.556 975.419 469.567 975.876C469.579 976.334 469.709 976.781 469.946 977.173C470.182 977.565 470.516 977.889 470.915 978.114C471.314 978.339 471.765 978.456 472.224 978.455H481.185L494.183 1017.67L398.701 1202.32C398.453 1202.79 398.324 1203.32 398.325 1203.86C398.326 1204.4 398.457 1204.93 398.706 1205.4C398.955 1205.88 399.315 1206.29 399.756 1206.59C400.197 1206.9 400.706 1207.1 401.239 1207.17L567.123 1229.33C567.49 1229.38 567.863 1229.35 568.212 1229.23C568.562 1229.11 568.878 1228.9 569.135 1228.64L725.627 1070.24L747.906 1146.66C754.273 1168.48 774.138 1196.75 781.199 1206.38C781.872 1207.27 782.872 1207.85 783.978 1208C785.083 1208.16 786.205 1207.87 787.095 1207.19C787.985 1206.52 788.572 1205.52 788.725 1204.42C788.879 1203.32 788.587 1202.2 787.913 1201.31H787.941ZM406.123 1201.08L495.668 1027.06L562.809 1223.35L406.123 1201.08ZM569.218 1220.6L501.924 1020.68H711.075L724.947 1063.62L569.218 1220.6Z" fill="#0071F2"/>
<path id="Vector_28" d="M491.87 1023.11L441.132 1077.26L441.77 1077.86L492.508 1023.71L491.87 1023.11Z" fill="#2F2E41"/>
<path id="Vector_29" d="M506.585 921.354C506.585 921.354 510.844 963.993 537.215 1011.85L567.734 1065.66C567.734 1065.66 553.972 1066.3 559.549 1078.27L550.366 1091.88L529.294 1153.35C529.17 1153.74 528.909 1154.08 528.559 1154.3C525.215 1156.48 507.584 1168.54 516.074 1174.17C516.285 1174.31 516.466 1174.49 516.604 1174.7C516.741 1174.92 516.833 1175.15 516.874 1175.4C516.914 1175.65 516.902 1175.91 516.839 1176.16C516.775 1176.4 516.661 1176.63 516.504 1176.83C513.049 1181.23 505.017 1192.72 513.133 1195C513.486 1195.09 513.806 1195.29 514.051 1195.56C514.296 1195.83 514.456 1196.16 514.511 1196.52C514.565 1196.88 514.513 1197.25 514.359 1197.58C514.205 1197.91 513.957 1198.19 513.646 1198.38C509.776 1200.75 506.141 1204.13 508.999 1207.39C516.874 1206.26 524.907 1207.56 532.027 1211.1L549.866 1223.35C549.866 1223.35 565.126 1167.31 592.967 1131.32L610.807 1102.02C610.807 1102.02 620.087 1089.03 618.978 1077.91L605.23 998.5L506.585 921.354Z" fill="#2F2E41"/>
<path id="Vector_30" d="M569.773 1194.84L401.073 1188.84L401.101 1187.97L569.801 1193.96L569.773 1194.84Z" fill="#2F2E41"/>
<path id="Vector_31" d="M400.865 1218.64C409.347 1218.64 416.222 1211.77 416.222 1203.3C416.222 1194.83 409.347 1187.97 400.865 1187.97C392.384 1187.97 385.509 1194.83 385.509 1203.3C385.509 1211.77 392.384 1218.64 400.865 1218.64Z" fill="#2F2E41"/>
<path id="Vector_32" d="M792.533 1095.48C780.276 1094.5 767.941 1095.57 756.036 1098.64C754.274 1099.1 752.512 1099.6 750.764 1100.14C737.045 1104.46 724.316 1111.45 713.309 1120.7C702.458 1129.74 693.529 1140.87 687.049 1153.41C680.569 1165.96 676.668 1179.67 675.577 1193.74C670.846 1252.71 715.695 1304.48 775.457 1309.23C778.444 1309.47 781.417 1309.59 784.376 1309.58C810.092 1309.63 834.992 1300.57 854.653 1284.02C865.517 1274.98 874.457 1263.86 880.947 1251.31C887.437 1238.76 891.345 1225.04 892.441 1210.96C897.185 1152.05 852.336 1100.24 792.533 1095.48ZM891.622 1210.89C890.541 1224.86 886.669 1238.46 880.236 1250.91C873.804 1263.35 864.94 1274.39 854.167 1283.36C832.309 1301.72 804.057 1310.68 775.595 1308.29C716.264 1303.58 671.762 1252.19 676.423 1193.74C677.507 1179.78 681.38 1166.18 687.813 1153.73C694.245 1141.29 703.108 1130.26 713.878 1121.29C733.377 1104.87 758.077 1095.88 783.586 1095.93C786.527 1095.93 789.481 1096.05 792.45 1096.29C851.754 1101.07 896.283 1152.45 891.622 1210.89Z" fill="#2F2E41"/>
<path id="Vector_33" d="M790.632 1014.36C787.858 1028.82 791.784 1033.94 793.213 1035.56C793.462 1035.84 793.806 1036.02 794.18 1036.06C794.554 1036.11 794.931 1036.01 795.238 1035.79V1035.79C795.428 1035.65 795.581 1035.46 795.687 1035.25C795.793 1035.04 795.848 1034.8 795.848 1034.57C795.848 1034.33 795.793 1034.09 795.687 1033.88C795.581 1033.67 795.428 1033.48 795.238 1033.34C794.454 1032.65 793.959 1031.69 793.851 1030.65C792.214 1019.24 795.363 1003.32 795.363 1003.32C797.416 988.748 788.135 988.014 788.135 988.014H775.65L779.382 1000.4C779.382 1000.4 785.513 1002.41 785.749 992.35C785.777 992.35 794.725 992.641 790.632 1014.36Z" fill="#0071F2"/>
<path id="Vector_34" d="M794.003 1080.94C769.645 1079 745.26 1084.33 723.931 1096.23C702.601 1108.14 685.287 1126.09 674.176 1147.82C663.065 1169.56 658.656 1194.09 661.509 1218.33C664.361 1242.56 674.345 1265.41 690.2 1283.97C706.054 1302.54 727.065 1316 750.578 1322.64C774.09 1329.28 799.047 1328.81 822.292 1321.29C845.537 1313.77 866.027 1299.53 881.17 1280.38C896.313 1261.23 905.43 1238.03 907.367 1213.7C909.961 1181.09 899.475 1148.78 878.216 1123.88C856.957 1098.98 826.665 1083.54 794.003 1080.94V1080.94ZM901.347 1212.54C899.518 1235.5 890.914 1257.4 876.621 1275.48C862.329 1293.55 842.99 1306.99 821.05 1314.09C799.111 1321.19 775.555 1321.63 753.364 1315.36C731.172 1309.09 711.339 1296.39 696.375 1278.87C681.41 1261.34 671.985 1239.78 669.292 1216.91C666.599 1194.04 670.758 1170.88 681.243 1150.37C691.729 1129.85 708.07 1112.91 728.2 1101.67C748.33 1090.43 771.346 1085.4 794.336 1087.23C825.145 1089.67 853.721 1104.23 873.786 1127.71C893.851 1151.18 903.764 1181.65 901.347 1212.42V1212.54Z" fill="#2F2E41"/>
<path id="Vector_35" d="M588.361 1286.64L586.794 1290.19L516.85 1269.1L500.106 1262.85C500.106 1262.85 499.552 1257.66 509.207 1255.62C509.207 1255.62 504.962 1254.11 506.626 1244.19L517.946 1224.45L520.721 1237.07L588.361 1286.64Z" fill="#0071F2"/>
<path id="Vector_36" opacity="0.4" d="M588.361 1286.64L586.794 1290.19L516.85 1269.1L500.106 1262.85C500.106 1262.85 499.552 1257.66 509.207 1255.62C509.207 1255.62 504.962 1254.11 506.626 1244.19L517.946 1224.45L520.721 1237.07L588.361 1286.64Z" fill="white"/>
<path id="Vector_37" d="M523.704 1208.12L518.585 1227.52C518.585 1227.52 532.457 1238.94 544.221 1239.76V1219.47L532.013 1211.16C529.439 1209.68 526.628 1208.65 523.704 1208.12V1208.12Z" fill="#F9B499"/>
<path id="Vector_38" d="M801.702 915.757C801.23 918.039 800.062 920.12 798.359 921.714C794.197 925.606 788.191 927.255 768.27 919.733C768.27 919.733 741.608 909.066 723.74 892.983L717.72 888.176C717.72 888.176 718.76 886.029 725.96 886.389C725.96 886.389 759.253 881.706 766.092 878.659L776.066 886.5C776.066 886.5 777.245 874.032 777.828 861.717C778.078 856.688 778.216 851.687 778.147 847.559L801.078 825.27C801.078 825.27 801.397 828.193 801.855 833.055C803.464 850.413 806.599 892.539 801.702 915.757Z" fill="#F9B499"/>
<path id="Vector_39" d="M801.814 833.055C795.211 859.251 783.294 861.98 777.787 861.717C778.037 856.688 778.176 851.687 778.106 847.559L801.037 825.27C801.037 825.27 801.398 828.193 801.814 833.055Z" fill="#F7A48B"/>
<path id="Vector_40" d="M510.206 908.207C510.206 908.207 476.552 858.96 515.935 829.536C518.025 827.965 520.48 826.947 523.071 826.579C525.662 826.211 528.304 826.504 530.75 827.431C534.029 828.512 536.922 830.524 539.074 833.221C539.074 833.221 543.166 819.008 560.631 825.27L565.459 854.361L543.638 874.489C543.638 874.489 525.437 879.268 510.206 908.207Z" fill="#0071F2"/>
<path id="Vector_41" opacity="0.4" d="M510.206 908.207C510.206 908.207 476.552 858.96 515.935 829.536C518.025 827.965 520.48 826.947 523.071 826.579C525.662 826.211 528.304 826.504 530.75 827.431C534.029 828.512 536.922 830.524 539.074 833.221C539.074 833.221 543.166 819.008 560.631 825.27L565.459 854.361L543.638 874.489C543.638 874.489 525.437 879.268 510.206 908.207Z" fill="black"/>
<path id="Vector_42" d="M709.591 886.403L713.753 892.983C713.753 892.983 715.611 885.973 726.002 886.403C726.002 886.403 762.791 880.861 766.134 878.659L747.143 852.117L716.347 861.592L709.591 886.403Z" fill="#0071F2"/>
<path id="Vector_43" opacity="0.2" d="M709.591 886.403L713.753 892.983C713.753 892.983 715.611 885.973 726.002 886.403C726.002 886.403 762.791 880.861 766.134 878.659L747.143 852.117L716.347 861.592L709.591 886.403Z" fill="black"/>
<path id="Vector_44" d="M723.74 810.932C723.74 810.932 733.035 811.597 737.862 808.951L756.798 827.085L759.073 843.376L739.652 857.506C739.652 857.506 748.863 829.079 723.74 810.932Z" fill="#F9B499"/>
<path id="Vector_45" d="M744.105 854.305C744.105 854.305 754.648 846.839 748.85 825.214L756.798 827.029L759.074 843.32L744.105 854.305Z" fill="#F7A48B"/>
<path id="Vector_46" d="M774.901 850.371C790.622 850.371 803.367 831.827 803.367 808.951C803.367 786.075 790.622 767.531 774.901 767.531C759.18 767.531 746.436 786.075 746.436 808.951C746.436 831.827 759.18 850.371 774.901 850.371Z" fill="#F9B499"/>
<path id="Vector_47" d="M738.778 816.155C734.959 812.128 730.189 809.122 724.906 807.413C724.906 807.413 705.582 800.002 712.643 786.634C712.643 786.634 699.27 785.9 691.474 778.849C700.503 781.928 710.3 781.928 719.329 778.849C715.514 775.015 712.707 770.299 711.158 765.121C711.158 765.121 714.501 770.315 718.219 771.424C718.219 771.424 703.723 749.162 742.371 746.198C740.679 744.951 739.298 743.331 738.336 741.464C737.373 739.597 736.855 737.533 736.822 735.434C736.822 735.434 746.116 746.198 755.771 745.463C755.771 745.463 772.709 728.632 787.58 755.34C787.58 755.34 791.437 760.3 796.278 773.349C796.278 773.349 798.109 753.775 781.782 747.029C781.782 747.029 790.896 746.488 798.193 759.399C801.126 764.46 802.734 770.177 802.867 776.023C802.867 782.187 801.231 789.086 792.56 786.703C792.56 786.703 788.537 785.706 785.624 780.206C785.092 779.169 784.177 778.379 783.072 778.004C781.407 777.477 779.188 778.004 778.106 783.365C778.106 783.365 770.837 808.3 756.826 806.776L738.778 816.155Z" fill="#2F2E41"/>
<path id="Vector_48" d="M740.18 856.162C740.18 856.162 748.253 827.805 723.741 810.932C723.741 810.932 702.558 797.758 653.145 810.932C653.145 810.932 606.909 828.941 574.962 826.17C571.758 825.895 568.603 825.215 565.57 824.148C555.332 820.6 544.228 820.406 533.872 823.594C533.872 823.594 543.929 822.652 551.309 824.078C553.561 824.52 555.564 825.79 556.921 827.638C558.278 829.486 558.889 831.775 558.634 834.053C558.148 838.61 556.345 845.453 550.963 854.278C550.963 854.278 527.685 897.055 558.898 904.481C558.898 904.481 604.967 917.336 613.388 928.224C613.388 928.224 637.165 912.889 657.473 907.445C657.473 907.445 692.903 896.072 699.589 894.978V892.872C699.587 892.209 699.79 891.562 700.169 891.019C700.549 890.476 701.088 890.064 701.712 889.838C718.274 883.767 731.984 871.764 740.18 856.162V856.162Z" fill="#0071F2"/>
<path id="Vector_49" opacity="0.2" d="M659.457 839.788C659.457 839.788 645.71 871.649 647.568 894.617C647.568 894.617 646.833 899.064 657.279 901.655L657.529 907.473C657.529 907.473 637.969 912.543 613.443 928.252C613.387 928.252 607.825 888.162 659.457 839.788Z" fill="black"/>
<path id="Vector_50" d="M656.863 890.531L657.223 901.613C657.223 901.613 647.721 900.145 647.513 894.576C647.568 894.617 647.568 890.905 656.863 890.531Z" fill="#0071F2"/>
<path id="Vector_51" opacity="0.4" d="M656.863 890.531L657.223 901.613C657.223 901.613 647.721 900.145 647.513 894.576C647.568 894.617 647.568 890.905 656.863 890.531Z" fill="black"/>
<path id="Vector_52" d="M717.72 888.176L723.741 892.983C723.741 892.983 717.818 899.563 713.711 892.983C713.711 892.983 713.587 889.686 717.72 888.176Z" fill="#0071F2"/>
<path id="Vector_53" opacity="0.4" d="M717.72 888.176L723.741 892.983C723.741 892.983 717.818 899.563 713.711 892.983C713.711 892.983 713.587 889.686 717.72 888.176Z" fill="black"/>
<path id="Vector_54" d="M725.627 975.518C725.631 976.383 725.977 977.211 726.591 977.821C727.204 978.431 728.035 978.774 728.901 978.774H751.721C756.703 978.777 761.481 980.757 765.003 984.276C768.525 987.796 770.504 992.568 770.504 997.544V997.544C770.504 1002.52 768.525 1007.29 765.002 1010.81C761.48 1014.33 756.702 1016.3 751.721 1016.3H742.01C740.906 1016.3 739.848 1016.74 739.067 1017.52C738.287 1018.3 737.848 1019.35 737.848 1020.46V1020.46C737.848 1021.56 738.287 1022.62 739.067 1023.4C739.848 1024.18 740.906 1024.61 742.01 1024.61H753.26C760.22 1024.61 766.894 1021.85 771.815 1016.93C776.737 1012.02 779.503 1005.35 779.507 998.403V998.403C779.488 991.463 776.715 984.813 771.796 979.91C766.876 975.008 760.211 972.253 753.26 972.249H728.901C728.032 972.249 727.2 972.593 726.586 973.207C725.972 973.82 725.627 974.651 725.627 975.518V975.518Z" fill="#2F2E41"/>
<path id="Vector_55" d="M784.21 1205.38C785.052 1205.38 785.735 1204.7 785.735 1203.86C785.735 1203.01 785.052 1202.33 784.21 1202.33C783.367 1202.33 782.684 1203.01 782.684 1203.86C782.684 1204.7 783.367 1205.38 784.21 1205.38Z" stroke="#ED1C24" stroke-miterlimit="10"/>
<path id="Vector_56" d="M784.21 1212.8C789.159 1212.8 793.171 1208.8 793.171 1203.86C793.171 1198.91 789.159 1194.91 784.21 1194.91C779.26 1194.91 775.248 1198.91 775.248 1203.86C775.248 1208.8 779.26 1212.8 784.21 1212.8Z" fill="#2F2E41"/>
<path id="Vector_57" d="M463.928 971.321C451.762 971.058 451.11 953.644 451.11 953.464H451.97C451.97 953.631 452.609 970.226 463.942 970.462H503.644C503.769 970.462 519.431 969.354 524.023 960.1L524.799 960.488C519.986 970.185 504.338 971.293 503.672 971.335L463.928 971.321Z" fill="#0071F2"/>
<g id="Group" opacity="0.2">
<path id="Vector_58" d="M463.928 971.321C451.762 971.058 451.11 953.644 451.11 953.464H451.97C451.97 953.631 452.609 970.226 463.942 970.462H503.644C503.769 970.462 519.431 969.354 524.023 960.1L524.799 960.488C519.986 970.185 504.338 971.293 503.672 971.335L463.928 971.321Z" fill="black"/>
</g>
<path id="Vector_59" d="M465.454 963.563L440.748 948.56C440.595 948.468 440.465 948.342 440.367 948.191C440.27 948.041 440.209 947.871 440.187 947.693C440.166 947.516 440.185 947.336 440.244 947.167C440.303 946.998 440.399 946.844 440.526 946.718C442.329 945 447.462 942.562 460.904 947.895H526.659L529.669 959.227H478.855C478.855 959.227 474.055 967.096 465.454 963.563Z" fill="#0071F2"/>
<path id="Vector_60" d="M548.992 1091.05C548.757 1092.28 548.188 1098.25 559.938 1096.7L562.809 1090.25C558.579 1089.93 554.329 1090.49 550.324 1091.88C550.324 1091.88 549.187 1092.49 549.048 1091.07C549.048 1091.02 548.992 1091.02 548.992 1091.05Z" fill="#2F2E41"/>
<path id="Vector_61" opacity="0.4" d="M548.992 1091.05C548.757 1092.28 548.188 1098.25 559.938 1096.7L562.809 1090.25C558.579 1089.93 554.329 1090.49 550.324 1091.88C550.324 1091.88 549.187 1092.49 549.048 1091.07C549.048 1091.02 548.992 1091.02 548.992 1091.05Z" fill="black"/>
<path id="Vector_62" d="M562.809 1090.25L552.558 1108.35C552.558 1108.35 557.163 1122.01 564.89 1125.21L602.914 1093.14C602.914 1093.14 599.376 1092.96 592.399 1092.2C592.343 1092.2 569.62 1089.74 562.809 1090.25Z" fill="#F9B499"/>
<path id="Vector_63" d="M562.809 1090.25L561.172 1093.14L596.504 1098.52L602.886 1093.14C602.886 1093.14 596.796 1092.74 586.1 1091.43C586.128 1091.43 568.302 1090.07 562.809 1090.25Z" fill="#F7A48B"/>
<path id="Vector_64" d="M564.89 1125.27V1127.8L548.909 1117.44V1111.97L552.558 1108.35C552.558 1108.35 556.83 1121.35 564.89 1125.27Z" fill="white"/>
<path id="Vector_65" d="M577.721 1125.27C577.721 1125.27 582.105 1146.26 588.542 1154.68C588.796 1155.01 589.123 1155.28 589.498 1155.47C589.872 1155.66 590.286 1155.77 590.706 1155.77L602.414 1156.13C604.136 1156.19 605.77 1156.91 606.969 1158.14C608.168 1159.38 608.838 1161.03 608.837 1162.75V1167.51L581.245 1166.83C580.198 1166.8 579.203 1166.37 578.47 1165.62C573.074 1160.88 567.442 1155.58 561.727 1149.66C556.566 1144.34 551.905 1139.12 547.702 1134.09C547.414 1132.01 547.275 1129.92 547.286 1127.82C547.286 1124.31 547.577 1120.13 548.992 1117.33L564.973 1127.69L577.721 1125.27Z" fill="#0071F2"/>
<path id="Vector_66" d="M548.909 1111.97L550.297 1104.41C550.297 1104.41 533.955 1119.73 533.955 1125.27V1131.29C533.953 1131.57 533.868 1131.84 533.712 1132.06C533.557 1132.29 533.337 1132.47 533.081 1132.57L524.883 1135.74C524.778 1135.78 524.688 1135.85 524.621 1135.94C524.554 1136.03 524.513 1136.14 524.503 1136.25C524.493 1136.36 524.514 1136.48 524.564 1136.58C524.614 1136.68 524.691 1136.76 524.785 1136.82L575.433 1168.75C576.077 1169.16 576.822 1169.37 577.583 1169.38H608.837V1167.51L581.245 1166.83C580.199 1166.8 579.203 1166.37 578.471 1165.62C572.423 1160.3 566.097 1154.3 559.716 1147.61C555.374 1143.04 551.392 1138.53 547.702 1134.13C547.55 1132.11 547.55 1129.87 547.591 1127.42C547.661 1123.79 547.98 1119.59 548.979 1117.37L548.909 1111.97Z" fill="#0071F2"/>
<path id="Vector_67" opacity="0.4" d="M548.909 1111.97L550.297 1104.41C550.297 1104.41 533.955 1119.73 533.955 1125.27V1131.29C533.953 1131.57 533.868 1131.84 533.712 1132.06C533.557 1132.29 533.337 1132.47 533.081 1132.57L524.883 1135.74C524.778 1135.78 524.688 1135.85 524.621 1135.94C524.554 1136.03 524.513 1136.14 524.503 1136.25C524.493 1136.36 524.514 1136.48 524.564 1136.58C524.614 1136.68 524.691 1136.76 524.785 1136.82L575.433 1168.75C576.077 1169.16 576.822 1169.37 577.583 1169.38H608.837V1167.51L581.245 1166.83C580.199 1166.8 579.203 1166.37 578.471 1165.62C572.423 1160.3 566.097 1154.3 559.716 1147.61C555.374 1143.04 551.392 1138.53 547.702 1134.13C547.55 1132.11 547.55 1129.87 547.591 1127.42C547.661 1123.79 547.98 1119.59 548.979 1117.37L548.909 1111.97Z" fill="white"/>
<path id="Vector_68" d="M577.721 1125.27L585.462 1112.8C585.462 1112.8 575.058 1108.13 570.3 1120.66L564.89 1125.23V1127.76L577.721 1125.27Z" fill="#0071F2"/>
<path id="Vector_69" opacity="0.4" d="M577.721 1125.27L585.462 1112.8C585.462 1112.8 575.058 1108.13 570.3 1120.66L564.89 1125.23V1127.76L577.721 1125.27Z" fill="white"/>
<path id="Vector_70" d="M604.772 1169.32H577.333C575.088 1169.32 573.269 1171.13 573.269 1173.37C573.269 1175.61 575.088 1177.42 577.333 1177.42H604.772C607.017 1177.42 608.837 1175.61 608.837 1173.37C608.837 1171.13 607.017 1169.32 604.772 1169.32Z" fill="#0071F2"/>
<path id="Vector_71" d="M591.053 1175.61C592.294 1175.61 593.3 1174.6 593.3 1173.37C593.3 1172.13 592.294 1171.12 591.053 1171.12C589.812 1171.12 588.806 1172.13 588.806 1173.37C588.806 1174.6 589.812 1175.61 591.053 1175.61Z" fill="#2F2E41"/>
<path id="Vector_72" d="M590.655 1173.27L566.29 1227.95L567.076 1228.29L591.441 1173.62L590.655 1173.27Z" fill="#2F2E41"/>
<path id="Vector_73" d="M562.129 1259.93C562.129 1259.93 566.457 1271.83 574.919 1272.65C574.919 1272.65 593.841 1275.06 588.362 1286.64C588.362 1286.64 560.465 1279.71 545.899 1270.6C544.835 1269.93 543.727 1269.32 542.583 1268.8C536.036 1265.72 514.062 1253.99 520.679 1237.07L538.241 1244.2C538.241 1244.2 543.055 1237.13 547.397 1240.57L555.72 1250.26L562.129 1259.93Z" fill="#0071F2"/>
<path id="Vector_74" d="M560.326 1232.89C560.326 1232.89 554.195 1225.81 543.236 1234.5L533.872 1242.42L538.27 1244.19C538.27 1244.19 542.598 1237.45 547.425 1240.57L550.505 1244.17L560.326 1232.89Z" fill="#0071F2"/>
<path id="Vector_75" opacity="0.4" d="M560.326 1232.89C560.326 1232.89 554.195 1225.81 543.236 1234.5L533.872 1242.42L538.27 1244.19C538.27 1244.19 542.598 1237.45 547.425 1240.57L550.505 1244.17L560.326 1232.89Z" fill="white"/>
<path id="Vector_76" d="M518.585 1227.54L520.68 1237.07L533.872 1242.42L536.189 1239.79L535.287 1237.19C535.287 1237.19 532.013 1237.06 518.585 1227.54Z" fill="white"/>
<path id="Vector_77" d="M508.985 1207.39C508.985 1207.39 514.409 1214.31 521.914 1214.91L523.704 1208.12C518.917 1206.76 513.884 1206.51 508.985 1207.39V1207.39Z" fill="#2F2E41"/>
<path id="Vector_78" opacity="0.4" d="M508.985 1207.39C508.985 1207.39 514.409 1214.31 521.914 1214.91L523.704 1208.12C518.917 1206.76 513.884 1206.51 508.985 1207.39V1207.39Z" fill="black"/>
<path id="Vector_79" d="M556.608 1289.49L530.098 1281.72C529.082 1281.35 528.25 1280.6 527.779 1279.63C527.308 1278.66 527.234 1277.54 527.574 1276.51L527.407 1276.8C527.721 1275.76 528.422 1274.87 529.367 1274.32C530.312 1273.77 531.431 1273.6 532.498 1273.84L558.855 1281.9C559.863 1282.2 560.712 1282.89 561.216 1283.81C561.72 1284.73 561.839 1285.81 561.547 1286.82C561.399 1287.32 561.154 1287.79 560.825 1288.19C560.497 1288.6 560.092 1288.93 559.633 1289.18C559.174 1289.43 558.671 1289.58 558.152 1289.64C557.633 1289.69 557.108 1289.64 556.608 1289.49V1289.49Z" fill="#0071F2"/>
<path id="Vector_80" d="M554.003 1258.43L543.811 1280.05L544.589 1280.41L554.781 1258.79L554.003 1258.43Z" fill="#2F2E41"/>
<path id="Vector_81" d="M544.151 1284.3C545.538 1284.3 546.662 1283.18 546.662 1281.79C546.662 1280.41 545.538 1279.28 544.151 1279.28C542.765 1279.28 541.641 1280.41 541.641 1281.79C541.641 1283.18 542.765 1284.3 544.151 1284.3Z" fill="#2F2E41"/>
<path id="Vector_82" d="M410.881 1081.33C386.523 1079.39 362.138 1084.71 340.808 1096.62C319.479 1108.53 302.164 1126.48 291.053 1148.21C279.942 1169.94 275.534 1194.48 278.387 1218.71C281.239 1242.95 291.223 1265.79 307.078 1284.36C322.932 1302.93 343.943 1316.38 367.456 1323.03C390.968 1329.67 415.924 1329.2 439.17 1321.68C462.415 1314.16 482.905 1299.92 498.048 1280.77C513.191 1261.62 522.308 1238.42 524.245 1214.09C525.531 1197.94 523.619 1181.7 518.618 1166.28C513.617 1150.87 505.625 1136.59 495.098 1124.26C484.572 1111.94 471.716 1101.8 457.266 1094.43C442.816 1087.06 427.055 1082.61 410.881 1081.33V1081.33ZM518.224 1212.93C516.396 1235.89 507.792 1257.79 493.499 1275.86C479.206 1293.94 459.868 1307.37 437.928 1314.47C415.988 1321.57 392.433 1322.02 370.241 1315.75C348.049 1309.48 328.217 1296.78 313.253 1279.26C298.288 1261.73 288.863 1240.17 286.17 1217.3C283.476 1194.42 287.635 1171.27 298.121 1150.75C308.607 1130.24 324.948 1113.29 345.078 1102.06C365.208 1090.82 388.224 1085.79 411.214 1087.62C442.034 1090.07 470.619 1104.64 490.685 1128.12C510.752 1151.61 520.657 1182.09 518.224 1212.87V1212.93Z" fill="#2F2E41"/>
<path id="Vector_83" d="M483.613 1133.33C468.207 1115.48 447.392 1103.12 424.323 1098.14C422.756 1097.78 421.16 1097.49 419.565 1097.22C416.227 1096.63 412.842 1096.21 409.411 1095.94C380.698 1093.53 352.198 1102.58 330.159 1121.11C319.293 1130.15 310.351 1141.27 303.861 1153.82C297.371 1166.36 293.464 1180.08 292.371 1194.16C287.682 1253.07 332.517 1304.88 392.334 1309.64C395.303 1309.87 398.244 1309.98 401.157 1309.98C457.228 1309.98 504.865 1267.38 509.36 1211.38C510.5 1197.31 508.809 1183.16 504.387 1169.75C499.965 1156.35 492.902 1143.97 483.613 1133.33V1133.33ZM508.514 1211.35C504.088 1266.91 456.84 1309.17 401.212 1309.17C398.308 1309.17 395.391 1309.05 392.459 1308.82C333.127 1304.11 288.639 1252.71 293.286 1194.27C294.375 1180.31 298.25 1166.71 304.682 1154.26C311.115 1141.82 319.975 1130.79 330.741 1121.82C350.249 1105.38 374.966 1096.39 400.491 1096.45C403.418 1096.45 406.387 1096.56 409.341 1096.8C437.829 1098.96 464.301 1112.29 482.961 1133.9C492.183 1144.45 499.195 1156.74 503.584 1170.04C507.973 1183.34 509.649 1197.39 508.514 1211.35V1211.35Z" fill="#2F2E41"/>
<path id="Vector_84" d="M401.531 1302.04H401.212V1301.2H401.531C453.149 1301.2 496.694 1261.51 500.745 1210.73C501.8 1197.82 500.257 1184.83 496.206 1172.52C492.156 1160.22 485.681 1148.85 477.162 1139.08C463.494 1123.41 445.315 1112.34 425.108 1107.38C404.901 1102.42 383.653 1103.82 364.27 1111.37L363.965 1110.56C383.517 1102.94 404.949 1101.53 425.33 1106.54C445.712 1111.55 464.047 1122.72 477.828 1138.53C494.755 1157.97 503.361 1183.27 501.791 1208.98C500.221 1234.7 488.602 1258.77 469.435 1276.02C450.832 1292.83 426.62 1302.11 401.531 1302.04Z" fill="#2F2E41"/>
<path id="Vector_85" d="M301.403 1160.22L301.055 1161.01L390.784 1200.75L391.132 1199.97L301.403 1160.22Z" fill="#2F2E41"/>
<path id="Vector_86" d="M501.795 1163.87L412.982 1199.18L413.306 1199.99L502.118 1164.68L501.795 1163.87Z" fill="#2F2E41"/>
<path id="Vector_87" d="M413.398 1212.28L412.823 1212.92L481.465 1274.45L482.04 1273.81L413.398 1212.28Z" fill="#2F2E41"/>
<path id="Vector_88" d="M388.768 1220.99C386.156 1219.51 384.097 1217.22 382.9 1214.47C381.551 1211.57 380.827 1208.42 380.775 1205.22C380.722 1202.03 381.342 1198.86 382.595 1195.92C383.875 1192.88 385.781 1190.15 388.188 1187.9C390.594 1185.65 393.449 1183.93 396.564 1182.85C398.306 1182.24 400.104 1181.81 401.933 1181.57L402.016 1182.44C400.253 1182.68 398.519 1183.09 396.842 1183.69C393.844 1184.72 391.098 1186.38 388.782 1188.54C386.466 1190.7 384.632 1193.33 383.4 1196.25C382.187 1199.08 381.586 1202.14 381.633 1205.22C381.681 1208.3 382.378 1211.34 383.677 1214.13C384.807 1216.73 386.755 1218.89 389.226 1220.27L388.768 1220.99Z" fill="#2F2E41"/>
<path id="Vector_89" d="M557.025 1259.67L398.216 1218.18L398.438 1217.35L557.205 1258.95L557.025 1259.67Z" fill="#2F2E41"/>
<path id="Vector_90" d="M376.109 1209.73L310.345 1224.92L310.542 1225.77L376.306 1210.58L376.109 1209.73Z" fill="#2F2E41"/>
<path id="Vector_91" d="M388.89 1210.51L317.801 1258.29L318.289 1259.01L389.378 1211.24L388.89 1210.51Z" fill="#2F2E41"/>
<path id="Vector_92" d="M375.92 1227.71L324.189 1278.03L324.799 1278.66L376.53 1228.33L375.92 1227.71Z" fill="#2F2E41"/>
<path id="Vector_93" d="M784.653 1301.6H784.32V1300.74H784.639C810.912 1300.82 836.152 1290.53 854.86 1272.11L855.457 1272.72C836.597 1291.3 811.146 1301.68 784.653 1301.6V1301.6Z" fill="#2F2E41"/>
<path id="Vector_94" d="M885.047 1205.38H884.187C885.408 1164.22 860.119 1126.31 821.276 1111.01L821.595 1110.21C860.729 1125.61 886.226 1163.86 885.047 1205.38Z" fill="#2F2E41"/>
<path id="Vector_95" d="M888.199 1172.8L796.182 1198.72L796.419 1199.56L888.437 1173.64L888.199 1172.8Z" fill="#2F2E41"/>
<path id="Vector_96" d="M791.312 1209.38L790.759 1210.04L865.666 1272.83L866.219 1272.17L791.312 1209.38Z" fill="#2F2E41"/>
<path id="Vector_97" d="M771.859 1220.26L723.101 1290.47L723.819 1290.97L772.578 1220.75L771.859 1220.26Z" fill="#2F2E41"/>
<path id="Vector_98" d="M787.444 1212.26L786.617 1212.5L810.888 1297.75L811.715 1297.52L787.444 1212.26Z" fill="#2F2E41"/>
<path id="Vector_99" d="M777.783 1238.96L773.062 1256.55L773.909 1256.78L778.631 1239.19L777.783 1238.96Z" fill="#2F2E41"/>
<path id="Vector_100" d="M764.911 1262.88L762.319 1272.28L763.162 1272.51L765.754 1263.11L764.911 1262.88Z" fill="#2F2E41"/>
<path id="Vector_101" d="M775.249 1203.43H675.66V1204.28H775.249V1203.43Z" fill="#2F2E41"/>
<path id="Vector_102" d="M858.481 1124.94L792.837 1194.6L793.473 1195.19L859.118 1125.53L858.481 1124.94Z" fill="#2F2E41"/>
<path id="Vector_103" d="M756.035 1098.64C754.273 1099.1 752.512 1099.6 750.764 1100.14L742.329 1074.88C742.231 1074.58 742.18 1074.25 742.177 1073.93C742.181 1073.21 742.443 1072.51 742.915 1071.97C743.387 1071.43 744.038 1071.07 744.752 1070.96C745.465 1070.85 746.193 1071 746.804 1071.39C747.416 1071.77 747.87 1072.36 748.086 1073.04L756.035 1098.64Z" fill="#0071F2"/>
<path id="Vector_104" d="M677.088 1031.07C673.789 1031.07 670.528 1030.35 667.53 1028.98L624.083 1027.52C623.875 1027.45 618.894 1025.67 607.88 1015.64L608.462 1015C618.7 1024.32 623.722 1026.46 624.305 1026.68L667.794 1028.13H667.877C700.394 1042.95 733.493 972.789 733.826 972.069C733.964 971.778 747.698 941.787 759.892 923.584C762.237 920.068 765.574 917.325 769.48 915.702C773.386 914.08 777.687 913.65 781.837 914.469C789.661 916.159 793.948 921.921 794.197 931.092C794.197 931.355 794.461 956.997 770.476 978.621L769.893 977.97C793.573 956.637 793.337 931.369 793.337 931.106C793.088 922.212 789.176 916.879 781.657 915.258C777.674 914.48 773.549 914.897 769.802 916.454C766.055 918.012 762.853 920.642 760.599 924.013C748.405 942.091 734.755 972.027 734.616 972.318C728.825 984.284 721.854 995.644 713.808 1006.23C700.962 1022.67 688.491 1031.07 677.088 1031.07Z" fill="#0071F2"/>
<path id="Vector_105" d="M743.55 1071.39C732.404 1045.68 723.961 1018.89 718.358 991.435C716.485 981.293 715.764 970.972 716.208 960.668C717.387 939.792 724.85 927.116 737.793 924.027C738.154 923.958 746.671 922.102 757.214 928.806C767.133 935.109 780.644 950.722 788.663 988.124H787.761C779.812 951.013 766.509 935.816 756.743 929.582C746.491 923.016 738.001 924.858 738.001 924.872C707.593 932.131 719.08 990.673 719.204 991.269C724.784 1018.65 733.209 1045.38 744.341 1071.02L743.55 1071.39Z" fill="#0071F2"/>
<g id="Group_2" opacity="0.2">
<path id="Vector_106" d="M677.088 1031.07C673.789 1031.07 670.528 1030.35 667.53 1028.98L624.083 1027.52C623.875 1027.45 618.894 1025.67 607.88 1015.64L608.462 1015C618.7 1024.32 623.722 1026.46 624.305 1026.68L667.794 1028.13H667.877C700.394 1042.95 733.493 972.789 733.826 972.069C733.964 971.778 747.698 941.787 759.892 923.584C762.237 920.068 765.574 917.325 769.48 915.702C773.386 914.08 777.687 913.65 781.837 914.469C789.661 916.159 793.948 921.921 794.197 931.092C794.197 931.355 794.461 956.997 770.476 978.621L769.893 977.97C793.573 956.637 793.337 931.369 793.337 931.106C793.088 922.212 789.176 916.879 781.657 915.258C777.674 914.48 773.549 914.897 769.802 916.454C766.055 918.012 762.853 920.642 760.599 924.013C748.405 942.091 734.755 972.027 734.616 972.318C728.825 984.284 721.854 995.644 713.808 1006.23C700.962 1022.67 688.491 1031.07 677.088 1031.07Z" fill="black"/>
<path id="Vector_107" d="M743.55 1071.39C732.404 1045.68 723.961 1018.89 718.358 991.435C716.485 981.293 715.764 970.972 716.208 960.668C717.387 939.792 724.85 927.116 737.793 924.027C738.154 923.958 746.671 922.102 757.214 928.806C767.133 935.109 780.644 950.722 788.663 988.124H787.761C779.812 951.013 766.509 935.816 756.743 929.582C746.491 923.016 738.001 924.858 738.001 924.872C707.593 932.131 719.08 990.673 719.204 991.269C724.784 1018.65 733.209 1045.38 744.341 1071.02L743.55 1071.39Z" fill="black"/>
</g>
<path id="Vector_108" d="M443.577 1077.32C443.578 1077.84 443.373 1078.34 443.008 1078.71L424.323 1098.1C422.755 1097.74 421.16 1097.45 419.564 1097.17L440.081 1075.87C440.27 1075.68 440.496 1075.52 440.744 1075.42C440.993 1075.31 441.261 1075.26 441.531 1075.26C441.801 1075.26 442.069 1075.31 442.318 1075.42C442.567 1075.52 442.792 1075.68 442.981 1075.87C443.174 1076.06 443.326 1076.28 443.428 1076.53C443.531 1076.78 443.582 1077.05 443.577 1077.32Z" fill="#0071F2"/>
<path id="Vector_109" d="M748.835 744.313C748.835 744.313 748.017 735.406 756.618 740.019C756.618 740.019 755.563 730.322 764.372 731.846C764.372 731.846 768.062 731.984 767.993 740.393C766.76 740.321 765.524 740.472 764.344 740.836C763.792 741.035 763.294 741.362 762.892 741.789C762.49 742.216 762.194 742.732 762.029 743.295C761.864 743.858 761.835 744.452 761.943 745.029C762.051 745.605 762.294 746.148 762.652 746.613C763.595 747.86 764.677 749.924 763.318 751.531C763.318 751.531 757.006 754.869 756.826 749.647C756.826 749.647 758.047 745.491 755.688 745.491C753.354 745.485 751.037 745.087 748.835 744.313V744.313Z" fill="#F9B499"/>
<path id="Vector_110" d="M772.626 735.434L767.965 738.925L768.007 740.352L770.878 741.1L772.626 735.434Z" fill="#F7A48B"/>
<path id="Vector_111" d="M753.071 824.227C758.441 823.744 762.214 816.909 761.498 808.96C760.782 801.011 755.847 794.958 750.476 795.441C745.106 795.923 741.333 802.759 742.049 810.708C742.766 818.657 747.7 824.71 753.071 824.227Z" fill="#F9B499"/>
<path id="Vector_112" d="M770.879 738.482V744.133C770.878 744.806 771.095 745.461 771.498 746C771.9 746.54 772.467 746.934 773.112 747.126V747.126C773.539 747.254 773.989 747.289 774.431 747.23C774.873 747.171 775.297 747.018 775.675 746.782C776.053 746.546 776.377 746.232 776.624 745.861C776.871 745.491 777.036 745.072 777.108 744.632L777.912 738.98C777.979 738.518 777.952 738.047 777.835 737.594C777.718 737.142 777.512 736.718 777.23 736.345C776.947 735.973 776.594 735.66 776.189 735.425C775.785 735.19 775.338 735.038 774.874 734.977C774.375 734.912 773.868 734.954 773.386 735.1C772.905 735.247 772.46 735.494 772.082 735.826C771.704 736.157 771.401 736.566 771.193 737.024C770.986 737.482 770.879 737.979 770.879 738.482V738.482Z" fill="#F9B499"/>
<path id="Vector_113" d="M667.642 958.341C667.674 959.467 667.431 960.585 666.933 961.596C666.435 962.608 665.697 963.483 664.784 964.145C662.967 962.372 661.649 960.945 660.775 959.989C659.92 959.049 659.429 957.836 659.388 956.567L659.249 952.896C660.082 952.178 661.145 951.78 662.245 951.774C665.214 951.747 667.642 954.697 667.642 958.341Z" fill="#F7A48B"/>
<path id="Vector_114" opacity="0.4" d="M710.201 1017.69L724.906 1063.64L730.857 1063.03L717.623 1017.69H710.201Z" fill="white"/>
<path id="Vector_115" d="M691.502 1013.48H709.869L696.316 972.263H728.888V978.774H704.625L718.608 1020.68H691.502V1013.48Z" fill="#0071F2"/>
<path id="Vector_116" d="M526.075 956.263C521.199 953.276 517.013 949.289 513.797 944.565C510.58 939.841 508.406 934.488 507.417 928.862C506.136 921.761 506.53 914.461 508.57 907.539C510.61 900.618 514.238 894.268 519.167 888.993C525.021 882.565 533.206 876.248 543.638 874.489C543.638 874.489 538.311 898.261 555.526 903.58C555.526 903.58 599.917 914.662 613.387 928.349C613.387 928.349 669.486 968.176 689.92 1003.04C689.92 1003.04 708.134 1030.5 676.173 1047.57L615.246 1087.17C615.246 1087.17 610.044 1094.97 596.671 1092.71C596.671 1092.71 560.118 1087.68 550.213 1091.9C550.058 1091.96 549.886 1091.99 549.718 1091.96C549.551 1091.93 549.395 1091.86 549.27 1091.74C549.145 1091.63 549.056 1091.48 549.014 1091.31C548.972 1091.15 548.979 1090.98 549.034 1090.82C550.227 1087.41 553.196 1081.12 559.507 1078.24C559.507 1078.24 548.41 1066.74 575.488 1061.54C575.488 1061.54 567.318 1047.44 595.922 1048.19C595.922 1048.19 589.236 1036.32 609.669 1034.46L624.166 1027.04C624.166 1027.04 622.681 1014.79 627.884 1013.31C633.086 1011.83 559.507 985.506 526.075 956.263Z" fill="#2F2E41"/>
<path id="Vector_117" opacity="0.4" d="M533.872 945.818C536.287 945.715 538.692 945.452 541.072 945.028C543.419 944.637 545.736 944.087 548.008 943.38C552.554 942.077 556.756 939.788 560.312 936.675C562.042 935.107 563.529 933.29 564.724 931.286C565.9 929.256 566.805 927.081 567.415 924.817C568.504 920.148 568.832 915.335 568.386 910.562C569.517 915.338 569.63 920.298 568.719 925.121C568.207 927.543 567.342 929.876 566.153 932.048C564.9 934.222 563.324 936.193 561.478 937.894C559.622 939.55 557.55 940.948 555.318 942.05C553.103 943.14 550.778 943.995 548.382 944.599C543.651 945.829 538.743 946.241 533.872 945.818V945.818Z" fill="black"/>
<path id="Vector_118" opacity="0.2" d="M543.638 874.434C543.638 874.434 531.68 876.775 524.411 884.02C524.411 884.02 526.076 903.511 553.543 908.706L586.836 914.025C586.836 914.025 576.071 909.952 558.856 904.508C558.897 904.508 537.423 902.5 543.638 874.434Z" fill="black"/>
<path id="Vector_119" d="M794.697 1010.37C799.539 1017.8 778.356 1012.6 778.356 1012.6C777.246 1019.65 772.405 1016.3 772.405 1016.3C771.295 1021.5 749.002 1010.37 749.002 1010.37C701.379 995.799 675.161 974.355 664.784 964.145C662.967 962.372 661.649 960.945 660.775 959.989C659.921 959.049 659.429 957.836 659.388 956.568L659.249 952.897L656.863 890.559C664.153 890.615 671.394 891.749 678.351 893.925C685.289 895.56 692.464 895.935 699.534 895.033C694.189 911.406 690.69 928.323 689.102 945.471C688.984 946.769 689.157 948.076 689.608 949.298C690.059 950.52 690.777 951.626 691.71 952.536C721.646 981.808 751.527 991.879 751.527 991.879C753.733 987.058 760.835 989.648 760.835 989.648C762.038 990.175 763.359 990.373 764.663 990.222C765.967 990.071 767.207 989.576 768.257 988.789C768.835 989.87 769.3 991.007 769.644 992.183C769.969 993.269 770.196 994.382 770.324 995.508L795.294 1003.38C800.593 1005.55 794.697 1010.37 794.697 1010.37Z" fill="#F9B499"/>
<path id="Vector_120" d="M567.873 1193.53C561.148 1193.53 554.574 1195.53 548.983 1199.26C543.392 1202.99 539.034 1208.29 536.46 1214.49C533.887 1220.7 533.213 1227.53 534.525 1234.11C535.837 1240.7 539.076 1246.75 543.831 1251.5C548.586 1256.25 554.644 1259.48 561.24 1260.79C567.835 1262.1 574.672 1261.43 580.884 1258.86C587.097 1256.29 592.407 1251.94 596.143 1246.35C599.88 1240.77 601.874 1234.2 601.874 1227.49C601.874 1218.48 598.291 1209.85 591.915 1203.48C585.539 1197.11 576.89 1193.53 567.873 1193.53ZM561.894 1202.12C562.229 1201.53 562.696 1201.02 563.259 1200.64C563.822 1200.25 564.465 1200 565.14 1199.91C568.802 1199.38 576.238 1199.09 582.286 1203.87C583.187 1204.59 583.801 1205.6 584.015 1206.74C584.228 1207.87 584.029 1209.04 583.451 1210.03C583.185 1210.5 582.843 1210.92 582.439 1211.28L572.908 1219.59C572.403 1220.05 571.791 1220.38 571.128 1220.55C570.465 1220.71 569.771 1220.72 569.107 1220.55C568.443 1220.39 567.83 1220.06 567.322 1219.6C566.814 1219.15 566.427 1218.57 566.194 1217.93L561.589 1206.02C561.343 1205.39 561.242 1204.71 561.295 1204.04C561.348 1203.36 561.553 1202.71 561.894 1202.12V1202.12ZM539.837 1219.92C540.6 1216.31 542.889 1209.17 549.451 1205.2C550.436 1204.6 551.601 1204.38 552.738 1204.56C553.874 1204.75 554.907 1205.33 555.651 1206.21C555.993 1206.63 556.265 1207.09 556.456 1207.6L560.978 1219.37C561.209 1219.96 561.302 1220.59 561.252 1221.22C561.201 1221.85 561.008 1222.46 560.687 1223C560.327 1223.63 559.808 1224.16 559.179 1224.53C558.551 1224.9 557.837 1225.1 557.108 1225.11L544.346 1225.33C543.669 1225.34 542.999 1225.2 542.383 1224.92C541.768 1224.64 541.224 1224.23 540.791 1223.71C540.358 1223.19 540.047 1222.58 539.882 1221.92C539.717 1221.27 539.702 1220.59 539.837 1219.92V1219.92ZM561.908 1235.77L557.815 1247.87C557.596 1248.5 557.237 1249.08 556.763 1249.56C556.29 1250.05 555.715 1250.41 555.081 1250.64C554.446 1250.87 553.768 1250.96 553.096 1250.89C552.425 1250.83 551.776 1250.61 551.198 1250.26C548.049 1248.34 542.098 1243.78 540.559 1236.27C540.313 1235.14 540.487 1233.95 541.047 1232.93C541.608 1231.91 542.518 1231.13 543.61 1230.73C544.119 1230.58 544.649 1230.52 545.178 1230.55L557.802 1230.27C558.433 1230.26 559.059 1230.39 559.634 1230.65C560.21 1230.91 560.721 1231.29 561.131 1231.77C561.594 1232.31 561.909 1232.97 562.045 1233.67C562.181 1234.37 562.134 1235.09 561.908 1235.77V1235.77ZM583.757 1249.63C580.843 1251.9 574.49 1255.89 566.902 1254.71C566.201 1254.6 565.532 1254.35 564.943 1253.95C564.354 1253.56 563.86 1253.04 563.495 1252.44C563.13 1251.83 562.905 1251.15 562.834 1250.45C562.764 1249.74 562.85 1249.03 563.087 1248.36L567.249 1236.45C567.471 1235.81 567.845 1235.23 568.339 1234.77C568.833 1234.3 569.431 1233.96 570.084 1233.77C570.737 1233.59 571.426 1233.56 572.091 1233.7C572.756 1233.83 573.379 1234.13 573.907 1234.55L583.84 1242.59C584.367 1243.01 584.792 1243.55 585.084 1244.16C585.376 1244.76 585.527 1245.43 585.527 1246.11C585.527 1246.78 585.376 1247.45 585.084 1248.06C584.792 1248.67 584.367 1249.2 583.84 1249.63H583.757ZM589.694 1239.03C589.164 1238.94 588.654 1238.76 588.182 1238.5L577.084 1232.45C576.478 1232.12 575.961 1231.66 575.576 1231.09C575.191 1230.52 574.951 1229.87 574.876 1229.19C574.801 1228.5 574.893 1227.81 575.145 1227.17C575.397 1226.54 575.8 1225.97 576.321 1225.52L585.921 1217.1C586.429 1216.65 587.031 1216.33 587.682 1216.15C588.332 1215.97 589.015 1215.93 589.681 1216.05C590.346 1216.17 590.977 1216.43 591.526 1216.82C592.076 1217.22 592.53 1217.73 592.857 1218.32C594.605 1221.57 597.476 1228.49 595.062 1235.76C594.691 1236.84 593.948 1237.75 592.965 1238.34C591.982 1238.93 590.823 1239.14 589.694 1238.96V1239.03Z" fill="#2F2E41"/>
<g id="freepik--Character--inject-432">
<path id="Vector_121" d="M416.167 1328.71H165.884C165.884 1328.71 110.687 1287.07 121.493 1268.48C132.3 1249.89 199.497 1264.78 232.471 1299.66C232.471 1299.66 251.018 1272.54 275.017 1283.37C299.016 1294.2 324.485 1307.38 324.485 1307.38C324.485 1307.38 323.098 1285.37 338.579 1291.25C354.061 1297.14 361.954 1317.91 380.668 1317.37C399.381 1316.83 416.167 1328.71 416.167 1328.71Z" fill="#EBEBEB"/>
</g>
</g>
</g>
</svg>
