<svg width="1903" height="2117" viewBox="0 0 1903 2117" fill="none" xmlns="http://www.w3.org/2000/svg">
<g id="bg-about-mobile">
<circle id="Ellipse 1" cx="951.5" cy="1165.5" r="951.5" fill="#338DF5"/>
<g id="Ride a bicycle 1">
<g id="freepik--background-complete--inject-432">
<path id="Vector" d="M1069 170.213C1069 170.295 1015.36 170.356 949.207 170.356C883.055 170.356 829.398 170.295 829.398 170.213C829.398 170.131 883.029 170.077 949.207 170.077C1015.39 170.077 1069 170.138 1069 170.213Z" fill="#E0E0E0"/>
<path id="Vector_2" d="M1033.75 136.63C1029.97 131.717 1028.79 122.298 1031.46 116.703C1032.94 118.837 1034.87 120.621 1037.12 121.927C1035.87 118.922 1034.96 115.79 1034.39 112.587L1039.26 108.839C1039.92 110.225 1040.4 113.087 1041.68 114.516C1040.37 112.39 1040.83 107.613 1042.39 106.202C1044.27 104.588 1046.47 103.387 1048.84 102.675C1051.8 101.668 1054.85 100.95 1057.96 100.531C1060.01 100.271 1062.32 100.263 1063.88 101.603C1066.11 103.526 1065.61 107.292 1063.72 109.543C1061.82 111.794 1058.98 112.955 1056.36 114.277C1046.66 119.179 1038.75 126.998 1033.75 136.63" fill="#EBEBEB"/>
<path id="Vector_3" d="M1012.4 113.845C1016.18 108.935 1017.35 99.513 1014.68 93.9176C1013.2 96.0535 1011.27 97.8372 1009.02 99.1414C1010.27 96.1463 1011.18 93.0239 1011.75 89.8301L1006.88 86.0819C1006.23 87.4719 1005.74 90.3303 1004.46 91.7559C1005.77 89.6336 1005.32 84.8564 1003.75 83.445C1001.87 81.8307 999.676 80.6291 997.303 79.9184C994.338 78.916 991.284 78.1981 988.183 77.7746C986.124 77.5209 983.822 77.5102 982.253 78.8465C980.03 80.7688 980.524 84.5384 982.418 86.8109C984.312 89.0833 987.152 90.2231 989.78 91.5451C999.478 96.4496 1007.39 104.27 1012.39 113.902" fill="#F5F5F5"/>
<path id="Vector_4" d="M1022.7 103.833C1024.8 101.085 1027.94 99.3486 1030.54 97.044C1033.13 94.7394 1035.33 91.3664 1034.48 88.0185L1029.8 89.4477C1034.87 86.8251 1037.36 80.1077 1035.28 74.7946L1033.68 75.0805C1035.64 74.0085 1036.83 71.8969 1037.22 69.6816C1037.61 67.4663 1037.28 65.2403 1036.81 63.0679C1036.02 59.4276 1034.84 55.8836 1033.29 52.4988C1031.91 53.4349 1030.16 53.5707 1028.54 53.9066C1026.92 54.2424 1025.16 55.1285 1024.72 56.7293C1024.03 59.2626 1027.02 61.5993 1026.66 64.2005C1025.28 62.3782 1023.42 60.9809 1021.29 60.1701C1021.2 62.1174 1018.86 63.5574 1019.12 65.4797C1019.26 66.1332 1019.56 66.7446 1019.98 67.2662L1026.42 76.599C1022.46 75.0796 1018.63 73.2405 1014.96 71.1001C1015.64 82.5124 1017.51 93.6103 1022.69 103.822" fill="#F5F5F5"/>
<path id="Vector_5" d="M1058.84 108.263C1058.79 108.303 1058.73 108.338 1058.68 108.367L1058.2 108.653C1057.78 108.91 1057.13 109.242 1056.35 109.743C1054.11 111.12 1051.98 112.656 1049.96 114.338C1049.3 114.866 1048.67 115.445 1047.98 116.042C1047.28 116.639 1046.62 117.3 1045.94 118C1044.47 119.467 1043.08 121.018 1041.79 122.645C1041.1 123.502 1040.47 124.431 1039.81 125.375C1039.48 125.846 1039.13 126.314 1038.82 126.804L1037.89 128.323C1037.24 129.319 1036.72 130.445 1036.13 131.51C1035.83 132.039 1035.6 132.628 1035.34 133.196C1035.08 133.764 1034.81 134.329 1034.57 134.915C1032.77 139.329 1031.49 143.934 1030.74 148.639C1030.13 152.483 1029.82 156.369 1029.83 160.262C1029.79 161.927 1029.89 163.449 1029.93 164.75C1029.97 166.05 1030.11 167.19 1030.18 168.126L1030.41 170.249C1030.43 170.485 1030.45 170.663 1030.46 170.806C1030.47 170.87 1030.47 170.935 1030.46 170.999C1030.46 170.936 1030.44 170.873 1030.42 170.813C1030.38 170.688 1030.38 170.488 1030.34 170.281C1030.28 169.777 1030.18 169.059 1030.06 168.158C1029.93 167.258 1029.87 166.097 1029.76 164.775C1029.65 163.453 1029.59 161.952 1029.61 160.283C1029.58 156.375 1029.86 152.469 1030.46 148.607C1031.2 143.873 1032.49 139.241 1034.29 134.804C1034.53 134.207 1034.83 133.639 1035.06 133.068C1035.3 132.488 1035.57 131.923 1035.87 131.374C1036.46 130.302 1036.98 129.176 1037.66 128.19L1038.59 126.672C1038.91 126.172 1039.26 125.703 1039.59 125.243C1040.26 124.296 1040.89 123.363 1041.58 122.502C1042.89 120.873 1044.29 119.322 1045.78 117.857C1046.47 117.142 1047.18 116.524 1047.84 115.906C1048.5 115.288 1049.18 114.716 1049.83 114.205C1051.88 112.535 1054.04 111.02 1056.31 109.671C1057.1 109.189 1057.76 108.871 1058.19 108.599L1058.68 108.338L1058.84 108.263Z" fill="#E0E0E0"/>
<path id="Vector_6" d="M1018.89 169.545C1018.89 169.47 1018.89 169.391 1018.89 169.316C1018.89 169.152 1018.89 168.923 1018.86 168.637C1018.86 168.026 1018.81 167.158 1018.78 166.036C1018.74 164.914 1018.7 163.535 1018.69 161.916C1018.67 160.298 1018.63 158.475 1018.64 156.453C1018.64 152.408 1018.7 147.592 1018.87 142.243C1019.03 136.894 1019.33 131.024 1019.81 124.867C1020.29 118.711 1020.89 112.855 1021.49 107.538C1022.1 102.221 1022.78 97.4513 1023.41 93.4567C1023.7 91.4558 1024.01 89.6478 1024.27 88.0685C1024.53 86.4892 1024.78 85.1172 1024.99 84.0059C1025.2 82.8947 1025.35 82.0479 1025.47 81.4405C1025.52 81.1618 1025.57 80.9438 1025.6 80.7795C1025.62 80.7033 1025.63 80.6282 1025.65 80.5544C1025.65 80.6311 1025.64 80.7075 1025.63 80.7831C1025.63 80.9474 1025.57 81.1725 1025.53 81.4512C1025.43 82.0586 1025.29 82.9233 1025.11 84.0202C1024.92 85.1172 1024.69 86.5214 1024.45 88.0935C1024.21 89.6657 1023.92 91.4843 1023.63 93.4888C1023.03 97.4835 1022.4 102.264 1021.78 107.57C1021.15 112.876 1020.6 118.718 1020.12 124.889C1019.65 131.059 1019.36 136.912 1019.16 142.254C1018.96 147.596 1018.87 152.416 1018.86 156.453V161.913C1018.86 163.513 1018.86 164.907 1018.89 166.036C1018.93 167.165 1018.89 168.026 1018.89 168.637V169.316C1018.9 169.392 1018.9 169.469 1018.89 169.545Z" fill="#E0E0E0"/>
<path id="Vector_7" d="M1002.05 96.1579C1002.16 96.2706 1002.26 96.39 1002.35 96.5152L1003.15 97.6086C1003.5 98.0802 1003.91 98.6805 1004.36 99.3665C1004.82 100.053 1005.36 100.846 1005.91 101.743C1006.45 102.639 1007.07 103.618 1007.67 104.697C1008.27 105.777 1008.91 106.931 1009.57 108.156C1010.83 110.632 1012.13 113.401 1013.33 116.374C1014.53 119.347 1015.48 122.255 1016.27 124.921C1016.63 126.261 1017.01 127.529 1017.29 128.733C1017.56 129.938 1017.82 131.059 1018.04 132.085C1018.26 133.11 1018.4 134.054 1018.58 134.872C1018.75 135.69 1018.83 136.405 1018.91 136.994C1018.98 137.584 1019.03 138.002 1019.08 138.338C1019.11 138.492 1019.12 138.649 1019.12 138.806C1019.07 138.654 1019.04 138.499 1019.02 138.341C1018.96 138.013 1018.88 137.573 1018.79 137.016C1018.69 136.458 1018.58 135.729 1018.41 134.893C1018.25 134.057 1018.09 133.139 1017.84 132.121C1017.6 131.102 1017.37 129.998 1017.05 128.78C1016.74 127.561 1016.39 126.322 1015.98 124.992C1015.18 122.338 1014.19 119.447 1013.03 116.496C1011.86 113.544 1010.55 110.779 1009.3 108.296C1008.65 107.07 1008.06 105.894 1007.43 104.83C1006.81 103.765 1006.25 102.764 1005.71 101.868C1005.17 100.971 1004.63 100.174 1004.21 99.4737C1003.78 98.7734 1003.36 98.166 1003.03 97.6872L1002.28 96.5617C1002.19 96.4351 1002.12 96.2998 1002.05 96.1579Z" fill="#E0E0E0"/>
<path id="Vector_8" d="M994.016 130.416C992 131.256 990.435 132.875 988.645 134.086C986.855 135.297 984.416 136.076 982.501 135.029L984.13 132.424C982.867 133.713 981.19 134.515 979.393 134.691C977.595 134.867 975.794 134.405 974.304 133.385L974.734 132.46C974.225 132.943 973.615 133.307 972.949 133.528C972.282 133.749 971.575 133.821 970.878 133.739C969.475 133.564 968.119 133.12 966.885 132.431C964.803 131.366 962.841 130.079 961.034 128.594C961.826 127.908 962.173 126.865 962.631 125.939C963.09 125.014 965.428 123.717 965.428 123.717L969.213 126.454C968.323 125.331 967.771 123.979 967.619 122.556C968.822 122.82 970.072 121.627 971.2 122.091C971.594 122.255 972.99 122.141 973.327 122.402C974.546 123.332 975.622 124.435 976.521 125.675C976.231 123.02 976.012 123.052 975.296 120.483C982.15 122.731 988.595 125.65 994.005 130.434" fill="#FAFAFA"/>
<path id="Vector_9" d="M978.318 128.794C978.955 128.411 979.64 128.116 980.356 127.915C982.317 127.336 984.383 127.201 986.403 127.522C989.385 128.004 992.227 129.123 994.735 130.802C997.793 132.828 1000.64 135.148 1003.25 137.73C1005.89 140.284 1008.28 143.087 1010.38 146.102C1012.1 148.561 1013.56 151.184 1014.76 153.931C1015.55 155.785 1016.21 157.696 1016.73 159.647C1016.89 160.337 1017 160.884 1017.09 161.237C1017.11 161.409 1017.14 161.548 1017.17 161.659C1017.18 161.706 1017.18 161.755 1017.17 161.802C1017.15 161.758 1017.13 161.711 1017.12 161.663C1017.09 161.552 1017.05 161.42 1017.01 161.248C1016.91 160.866 1016.77 160.337 1016.6 159.658C1016.04 157.728 1015.36 155.837 1014.55 153.998C1013.33 151.278 1011.85 148.679 1010.14 146.238C1005.9 140.274 1000.63 135.118 994.571 131.017C992.1 129.342 989.3 128.214 986.357 127.708C983.82 127.281 981.214 127.576 978.837 128.558L978.451 128.73C978.386 128.783 978.343 128.801 978.318 128.794Z" fill="#E0E0E0"/>
<path id="Vector_10" d="M1060.25 170.245C1056.58 158.89 1043.54 151.447 1031.88 154.066C1028.83 150.62 1024.98 147.974 1020.66 146.359C1016.35 144.745 1011.7 144.211 1007.13 144.806C1002.56 145.401 998.209 147.105 994.454 149.77C990.699 152.435 987.657 155.979 985.594 160.09C973.778 154.638 958.965 156.375 948.713 164.407L941.104 169.184L1060.25 170.245Z" fill="#EBEBEB"/>
<path id="Vector_11" d="M854.072 92.6956H847.631V170.345H854.072V92.6956Z" fill="#E0E0E0"/>
<path id="Vector_12" d="M852.461 15.4177H849.242V101.228H852.461V15.4177Z" fill="#E0E0E0"/>
<path id="Vector_13" d="M850.857 28.3236C856.357 28.3236 860.815 23.8748 860.815 18.3869C860.815 12.899 856.357 8.45026 850.857 8.45026C845.358 8.45026 840.899 12.899 840.899 18.3869C840.899 23.8748 845.358 28.3236 850.857 28.3236Z" fill="#EBEBEB"/>
<path id="Vector_14" d="M852.984 29.1096H848.562C848.405 29.1041 848.256 29.0375 848.147 28.9241C848.038 28.8107 847.977 28.6593 847.978 28.5022C847.978 28.3421 848.042 28.1885 848.156 28.0752C848.269 27.962 848.423 27.8984 848.583 27.8984H853.02C853.18 27.8984 853.334 27.962 853.448 28.0752C853.561 28.1885 853.625 28.3421 853.625 28.5022C853.625 28.6627 853.561 28.8167 853.448 28.9305C853.335 29.0443 853.181 29.1087 853.02 29.1096H852.984Z" fill="#E0E0E0"/>
<path id="Vector_15" d="M855.713 92.6956H845.923C845.835 92.6956 845.748 92.6784 845.667 92.6448C845.586 92.6112 845.512 92.562 845.45 92.4999C845.387 92.4379 845.338 92.3642 845.304 92.2832C845.271 92.2021 845.253 92.1152 845.253 92.0275C845.255 91.8508 845.326 91.682 845.452 91.5571C845.577 91.4322 845.746 91.3612 845.923 91.3593H855.713C855.89 91.3593 856.06 91.4297 856.186 91.555C856.312 91.6803 856.382 91.8503 856.382 92.0275C856.383 92.1146 856.367 92.201 856.334 92.2818C856.301 92.3626 856.253 92.4362 856.192 92.4982C856.131 92.5603 856.058 92.6097 855.977 92.6436C855.897 92.6775 855.811 92.6952 855.723 92.6956H855.713Z" fill="#E0E0E0"/>
<path id="Vector_16" d="M915.152 42.7408H961.396C961.396 42.7408 957.303 35.3089 945.401 36.3701C934.032 37.442 933.452 32.7184 927.677 32.1253C921.901 31.5322 917.078 36.0092 915.152 42.7408Z" fill="#F5F5F5"/>
<path id="Vector_17" d="M897.986 51.0946H927.856C927.856 51.0946 925.199 46.3175 917.526 46.9963C910.185 47.6609 909.813 44.6346 906.067 44.263C902.322 43.8914 899.246 46.7284 897.986 51.0946Z" fill="#EBEBEB"/>
<path id="Vector_18" d="M979.915 21.6277H1008.11C1008.11 21.6277 1005.6 17.1006 998.352 17.7581C991.438 18.3869 991.065 15.5285 987.539 15.1783C984.012 14.8282 981.083 17.5258 979.915 21.6277Z" fill="#F5F5F5"/>
</g>
<g id="freepik--Floor--inject-432">
<path id="Vector_19" d="M1069 235.41C1069 235.489 1015.36 235.553 949.207 235.553C883.055 235.553 829.398 235.489 829.398 235.41C829.398 235.332 883.029 235.271 949.207 235.271C1015.39 235.271 1069 235.335 1069 235.41Z" fill="#2F2E41"/>
</g>
<g id="freepik--Plant--inject-432">
<path id="Vector_20" d="M1051.01 204.843C1051.7 205.175 1052.33 205.645 1052.84 206.223C1053.35 206.801 1053.74 207.477 1053.98 208.209C1054.46 209.678 1054.6 211.238 1054.38 212.768C1054.04 215.726 1052.36 218.71 1050.55 221.075C1048.04 218.899 1047.47 215.108 1047.3 213.168C1047.03 210.099 1048.42 204.386 1051.03 204.843" fill="#0071F2"/>
<path id="Vector_21" d="M1053.45 225.956C1053.28 225.11 1053.34 224.236 1053.62 223.42C1053.9 222.604 1054.39 221.877 1055.04 221.311C1055.7 220.758 1056.46 220.342 1057.29 220.086C1058.11 219.831 1058.97 219.74 1059.83 219.821C1060.23 219.812 1060.63 219.892 1061 220.054C1061.37 220.217 1061.7 220.458 1061.96 220.761C1062.15 221.081 1062.25 221.446 1062.26 221.818C1062.26 222.19 1062.17 222.557 1061.99 222.883C1061.61 223.526 1061.07 224.058 1060.42 224.427C1058.26 225.781 1055.91 226.696 1053.47 225.963" fill="#0071F2"/>
<path id="Vector_22" d="M1050.24 235.028C1050.26 234.822 1050.29 234.618 1050.34 234.417C1050.42 233.992 1050.52 233.442 1050.64 232.777C1050.92 230.948 1051.49 229.175 1052.33 227.528C1053.21 225.884 1054.52 224.503 1056.11 223.53C1056.59 223.24 1057.11 223.012 1057.65 222.851C1057.8 222.804 1057.94 222.765 1058.09 222.733C1058.14 222.726 1058.2 222.726 1058.25 222.733C1057.53 222.977 1056.84 223.291 1056.19 223.673C1054.65 224.671 1053.39 226.039 1052.53 227.65C1051.69 229.28 1051.11 231.025 1050.79 232.827C1050.64 233.513 1050.51 234.074 1050.43 234.456C1050.39 234.653 1050.32 234.844 1050.24 235.028Z" fill="#2F2E41"/>
<path id="Vector_23" d="M1050.34 209.277C1050.36 209.364 1050.37 209.453 1050.37 209.542C1050.37 209.738 1050.4 209.988 1050.41 210.299C1050.45 210.964 1050.49 211.925 1050.53 213.107C1050.6 215.476 1050.67 218.756 1050.65 222.372C1050.63 225.988 1050.55 229.272 1050.45 231.641C1050.4 232.823 1050.35 233.763 1050.31 234.446C1050.31 234.757 1050.27 235.007 1050.26 235.203C1050.26 235.292 1050.25 235.38 1050.23 235.468C1050.22 235.38 1050.22 235.291 1050.23 235.203V234.439C1050.23 233.749 1050.26 232.798 1050.3 231.637C1050.36 229.261 1050.42 225.988 1050.44 222.372C1050.45 218.756 1050.44 215.469 1050.38 213.115C1050.38 211.946 1050.34 210.971 1050.33 210.306V209.542C1050.33 209.453 1050.33 209.365 1050.34 209.277Z" fill="#2F2E41"/>
<path id="Vector_24" d="M1049.13 227.753C1048.83 225.958 1048.1 224.26 1047.01 222.8C1045.93 221.341 1044.5 220.161 1042.87 219.36C1042.04 218.964 1040.94 218.703 1040.26 219.321C1039.58 219.939 1039.73 221.054 1040.06 221.915C1040.8 223.702 1042.04 225.233 1043.65 226.314C1045.25 227.395 1047.14 227.978 1049.07 227.989" fill="#0071F2"/>
<path id="Vector_25" d="M1043.28 222.179C1043.46 222.244 1043.64 222.323 1043.81 222.415C1044.01 222.509 1044.21 222.615 1044.41 222.733C1044.67 222.878 1044.92 223.038 1045.17 223.212C1045.47 223.413 1045.76 223.63 1046.04 223.862C1046.37 224.126 1046.67 224.406 1046.97 224.702C1047.64 225.388 1048.23 226.147 1048.73 226.964C1049.21 227.791 1049.61 228.671 1049.89 229.586C1050.01 229.985 1050.11 230.391 1050.19 230.801C1050.26 231.155 1050.31 231.513 1050.34 231.873C1050.37 232.172 1050.38 232.473 1050.38 232.773C1050.39 232.999 1050.39 233.226 1050.38 233.452C1050.37 233.644 1050.35 233.836 1050.31 234.024C1050.26 234.024 1050.35 233.202 1050.2 231.902C1050.16 231.541 1050.11 231.184 1050.03 230.83C1049.95 230.428 1049.85 230.031 1049.72 229.64C1049.16 227.845 1048.18 226.208 1046.86 224.863C1046.57 224.568 1046.27 224.29 1045.95 224.03C1045.67 223.794 1045.39 223.573 1045.1 223.362C1044.01 222.547 1043.25 222.222 1043.28 222.179Z" fill="#2F2E41"/>
</g>
<path id="Vector_26" opacity="0.2" d="M920.759 130.345C920.759 130.345 921.858 141.343 928.665 153.688L936.542 167.565C936.542 167.565 932.99 167.73 934.43 170.817L932.059 174.329L926.62 190.183C926.588 190.285 926.521 190.372 926.431 190.429C925.568 190.994 921.017 194.102 923.208 195.553C923.263 195.589 923.309 195.636 923.345 195.691C923.38 195.746 923.404 195.807 923.415 195.872C923.425 195.936 923.422 196.002 923.405 196.065C923.389 196.129 923.36 196.188 923.319 196.239C922.427 197.375 920.354 200.334 922.445 200.927C922.537 200.95 922.619 201 922.682 201.069C922.746 201.139 922.787 201.226 922.801 201.319C922.815 201.412 922.801 201.507 922.762 201.592C922.722 201.678 922.658 201.749 922.578 201.799C921.582 202.413 920.644 203.282 921.382 204.121C923.415 203.83 925.488 204.164 927.326 205.079L931.93 208.237C931.93 208.237 935.869 193.784 943.056 184.502L947.66 176.945C947.66 176.945 950.056 173.593 949.769 170.724L946.221 150.243L920.759 130.345Z" fill="black"/>
<path id="Vector_27" d="M993.382 202.553L991.305 199.944C987.069 195.328 984.419 186.367 984.419 186.367L978.662 166.879L974.856 154.07H918.997L915.266 142.636C915.206 142.454 915.09 142.295 914.935 142.183C914.779 142.071 914.592 142.01 914.4 142.011H912.928C912.762 142.01 912.6 142.055 912.458 142.14C912.316 142.225 912.2 142.347 912.122 142.493L911.284 144.069C911.229 144.173 911.201 144.29 911.204 144.408C911.207 144.526 911.24 144.641 911.301 144.742C911.362 144.843 911.449 144.927 911.552 144.985C911.655 145.043 911.771 145.073 911.889 145.073H914.203L917.558 155.188L892.912 202.813C892.848 202.936 892.815 203.073 892.815 203.211C892.815 203.35 892.849 203.486 892.913 203.609C892.977 203.732 893.07 203.837 893.184 203.916C893.298 203.996 893.43 204.046 893.567 204.064L936.385 209.781C936.479 209.794 936.576 209.785 936.666 209.754C936.756 209.723 936.838 209.671 936.904 209.602L977.298 168.748L983.048 188.457C984.692 194.084 989.819 201.377 991.642 203.86C991.815 204.09 992.073 204.241 992.359 204.28C992.644 204.32 992.934 204.245 993.163 204.071C993.393 203.898 993.545 203.64 993.584 203.356C993.624 203.071 993.549 202.782 993.375 202.553H993.382ZM894.828 202.495L917.941 157.611L935.271 208.237L894.828 202.495ZM936.925 207.53L919.556 155.964H973.541L977.122 167.04L936.925 207.53Z" fill="#0071F2"/>
<path id="Vector_28" d="M916.961 156.592L903.864 170.557L904.029 170.711L917.125 156.746L916.961 156.592Z" fill="#2F2E41"/>
<path id="Vector_29" d="M920.759 130.345C920.759 130.345 921.858 141.343 928.665 153.688L936.542 167.565C936.542 167.565 932.99 167.73 934.43 170.817L932.059 174.329L926.62 190.183C926.588 190.285 926.521 190.372 926.431 190.429C925.568 190.99 921.017 194.102 923.208 195.553C923.263 195.589 923.309 195.636 923.345 195.691C923.38 195.746 923.404 195.807 923.415 195.872C923.425 195.936 923.422 196.002 923.405 196.065C923.389 196.129 923.36 196.188 923.319 196.239C922.427 197.375 920.354 200.337 922.449 200.927C922.54 200.95 922.623 201 922.686 201.069C922.749 201.139 922.79 201.226 922.805 201.319C922.819 201.412 922.805 201.507 922.765 201.592C922.726 201.678 922.662 201.749 922.581 201.799C921.582 202.41 920.644 203.282 921.382 204.121C923.415 203.83 925.488 204.164 927.326 205.079L931.93 208.237C931.93 208.237 935.869 193.784 943.056 184.502L947.66 176.945C947.66 176.945 950.056 173.593 949.769 170.724L946.221 150.243L920.759 130.345Z" fill="#2F2E41"/>
<path id="Vector_30" d="M937.069 200.884L893.524 199.337L893.532 199.112L937.076 200.659L937.069 200.884Z" fill="#2F2E41"/>
<path id="Vector_31" d="M893.471 207.023C895.66 207.023 897.434 205.252 897.434 203.067C897.434 200.883 895.66 199.112 893.471 199.112C891.281 199.112 889.507 200.883 889.507 203.067C889.507 205.252 891.281 207.023 893.471 207.023Z" fill="#2F2E41"/>
<path id="Vector_32" d="M994.567 175.258C991.403 175.004 988.219 175.28 985.147 176.073C984.692 176.191 984.237 176.319 983.786 176.459C980.245 177.573 976.959 179.375 974.118 181.761C971.317 184.094 969.013 186.963 967.34 190.199C965.667 193.435 964.66 196.972 964.379 200.602C963.158 215.812 974.734 229.165 990.159 230.39C990.931 230.452 991.698 230.482 992.462 230.48C999.099 230.492 1005.53 228.156 1010.6 223.887C1013.41 221.555 1015.71 218.686 1017.39 215.45C1019.06 212.213 1020.07 208.675 1020.36 205.043C1021.58 189.847 1010 176.484 994.567 175.258ZM1020.14 205.025C1019.86 208.627 1018.87 212.136 1017.21 215.346C1015.54 218.557 1013.26 221.402 1010.48 223.716C1004.83 228.451 997.542 230.764 990.195 230.147C974.881 228.932 963.394 215.676 964.597 200.602C964.877 197.001 965.877 193.492 967.537 190.282C969.197 187.073 971.485 184.228 974.265 181.915C979.298 177.679 985.673 175.36 992.258 175.372C993.017 175.372 993.78 175.403 994.546 175.465C1009.85 176.698 1021.35 189.95 1020.14 205.025Z" fill="#2F2E41"/>
<path id="Vector_33" d="M994.077 154.334C993.36 158.065 994.374 159.383 994.743 159.801C994.807 159.874 994.896 159.92 994.992 159.931C995.089 159.943 995.186 159.918 995.265 159.862C995.314 159.825 995.354 159.777 995.381 159.722C995.409 159.667 995.423 159.607 995.423 159.546C995.423 159.484 995.409 159.424 995.381 159.369C995.354 159.314 995.314 159.266 995.265 159.229C995.063 159.051 994.935 158.804 994.907 158.536C994.485 155.592 995.298 151.487 995.298 151.487C995.828 147.728 993.432 147.538 993.432 147.538H990.209L991.173 150.733C991.173 150.733 992.755 151.251 992.816 148.657C992.823 148.657 995.133 148.732 994.077 154.334Z" fill="#0071F2"/>
<path id="Vector_34" d="M994.947 171.506C988.66 171.008 982.365 172.38 976.86 175.451C971.354 178.522 966.885 183.153 964.017 188.758C961.149 194.363 960.011 200.692 960.748 206.942C961.484 213.193 964.061 219.085 968.153 223.875C972.245 228.664 977.669 232.134 983.738 233.848C989.807 235.561 996.249 235.44 1002.25 233.5C1008.25 231.56 1013.54 227.888 1017.45 222.949C1021.35 218.009 1023.71 212.024 1024.21 205.751C1024.88 197.338 1022.17 189.004 1016.68 182.582C1011.2 176.16 1003.38 172.176 994.947 171.506ZM1022.65 205.45C1022.18 211.372 1019.96 217.021 1016.27 221.683C1012.58 226.345 1007.59 229.811 1001.93 231.642C996.265 233.473 990.185 233.587 984.457 231.97C978.729 230.353 973.61 227.078 969.747 222.558C965.885 218.038 963.452 212.477 962.757 206.577C962.061 200.677 963.135 194.705 965.841 189.414C968.548 184.123 972.766 179.752 977.962 176.853C983.158 173.954 989.099 172.658 995.033 173.129C1002.98 173.759 1010.36 177.515 1015.54 183.569C1020.72 189.624 1023.28 197.482 1022.65 205.418V205.45Z" fill="#2F2E41"/>
<path id="Vector_35" d="M941.867 224.563L941.462 225.477L923.409 220.039L919.087 218.428C919.087 218.428 918.943 217.088 921.436 216.563C921.436 216.563 920.34 216.173 920.77 213.615L923.691 208.523L924.408 211.778L941.867 224.563Z" fill="#0071F2"/>
<path id="Vector_36" opacity="0.4" d="M941.867 224.563L941.462 225.477L923.409 220.039L919.087 218.428C919.087 218.428 918.943 217.088 921.436 216.563C921.436 216.563 920.34 216.173 920.77 213.615L923.691 208.523L924.408 211.778L941.867 224.563Z" fill="white"/>
<path id="Vector_37" d="M925.177 204.311L923.856 209.313C923.856 209.313 927.437 212.261 930.473 212.471V207.237L927.322 205.093C926.658 204.711 925.932 204.446 925.177 204.311Z" fill="#F9B499"/>
<path id="Vector_38" d="M996.934 128.901C996.812 129.49 996.511 130.027 996.071 130.438C994.997 131.442 993.446 131.867 988.305 129.927C988.305 129.927 981.422 127.176 976.811 123.027L975.257 121.787C975.257 121.787 975.525 121.234 977.384 121.326C977.384 121.326 985.977 120.119 987.742 119.333L990.317 121.355C990.317 121.355 990.621 118.139 990.772 114.963C990.836 113.666 990.872 112.376 990.854 111.311L996.773 105.562C996.773 105.562 996.855 106.316 996.973 107.57C997.389 112.047 998.198 122.913 996.934 128.901Z" fill="#F9B499"/>
<path id="Vector_39" d="M996.963 107.57C995.258 114.327 992.183 115.031 990.761 114.963C990.825 113.666 990.861 112.376 990.843 111.311L996.762 105.562C996.762 105.562 996.855 106.316 996.963 107.57Z" fill="#F7A48B"/>
<path id="Vector_40" d="M921.693 126.954C921.693 126.954 913.007 114.252 923.172 106.663C923.712 106.257 924.345 105.995 925.014 105.9C925.683 105.805 926.365 105.881 926.996 106.12C927.843 106.399 928.589 106.918 929.145 107.613C929.145 107.613 930.201 103.947 934.709 105.562L935.955 113.066L930.323 118.257C930.323 118.257 925.625 119.49 921.693 126.954Z" fill="#0071F2"/>
<path id="Vector_41" opacity="0.4" d="M921.693 126.954C921.693 126.954 913.007 114.252 923.172 106.663C923.712 106.257 924.345 105.995 925.014 105.9C925.683 105.805 926.365 105.881 926.996 106.12C927.843 106.399 928.589 106.918 929.145 107.613C929.145 107.613 930.201 103.947 934.709 105.562L935.955 113.066L930.323 118.257C930.323 118.257 925.625 119.49 921.693 126.954Z" fill="black"/>
<path id="Vector_42" d="M973.158 121.33L974.233 123.027C974.233 123.027 974.712 121.219 977.394 121.33C977.394 121.33 986.89 119.901 987.753 119.333L982.851 112.487L974.902 114.931L973.158 121.33Z" fill="#0071F2"/>
<path id="Vector_43" opacity="0.2" d="M973.158 121.33L974.233 123.027C974.233 123.027 974.712 121.219 977.394 121.33C977.394 121.33 986.89 119.901 987.753 119.333L982.851 112.487L974.902 114.931L973.158 121.33Z" fill="black"/>
<path id="Vector_44" d="M976.811 101.864C976.811 101.864 979.21 102.036 980.456 101.353L985.343 106.03L985.931 110.232L980.918 113.877C980.918 113.877 983.295 106.545 976.811 101.864Z" fill="#F9B499"/>
<path id="Vector_45" d="M982.067 113.051C982.067 113.051 984.788 111.125 983.292 105.548L985.343 106.016L985.931 110.218L982.067 113.051Z" fill="#F7A48B"/>
<path id="Vector_46" d="M990.016 112.037C994.074 112.037 997.364 107.253 997.364 101.353C997.364 95.4529 994.074 90.6697 990.016 90.6697C985.958 90.6697 982.669 95.4529 982.669 101.353C982.669 107.253 985.958 112.037 990.016 112.037Z" fill="#F9B499"/>
<path id="Vector_47" d="M980.692 103.211C979.706 102.172 978.475 101.397 977.111 100.956C977.111 100.956 972.123 99.0449 973.946 95.5969C973.946 95.5969 970.494 95.4075 968.482 93.5889C970.813 94.383 973.341 94.383 975.672 93.5889C974.687 92.6 973.963 91.3837 973.563 90.048C973.563 90.048 974.426 91.3879 975.385 91.6737C975.385 91.6737 971.644 85.9318 981.619 85.1672C981.183 84.8456 980.826 84.4278 980.578 83.9462C980.329 83.4647 980.196 82.9325 980.187 82.3909C980.187 82.3909 982.586 85.1672 985.078 84.9778C985.078 84.9778 989.45 80.6366 993.289 87.5254C993.289 87.5254 994.284 88.8046 995.534 92.1704C995.534 92.1704 996.007 87.1217 991.792 85.3816C991.792 85.3816 994.145 85.2422 996.028 88.5723C996.785 89.8775 997.2 91.3522 997.235 92.86C997.235 94.45 996.812 96.2294 994.574 95.6148C994.574 95.6148 993.536 95.3575 992.784 93.939C992.647 93.6715 992.41 93.4677 992.125 93.3709C991.695 93.2351 991.122 93.3709 990.843 94.7537C990.843 94.7537 988.967 101.185 985.35 100.792L980.692 103.211Z" fill="#2F2E41"/>
<path id="Vector_48" d="M981.054 113.53C981.054 113.53 983.138 106.216 976.811 101.864C976.811 101.864 971.343 98.4661 958.589 101.864C958.589 101.864 946.654 106.509 938.408 105.794C937.581 105.723 936.767 105.548 935.984 105.273C933.341 104.358 930.475 104.308 927.802 105.13C927.802 105.13 930.398 104.887 932.303 105.255C932.884 105.369 933.401 105.696 933.751 106.173C934.102 106.65 934.259 107.24 934.193 107.828C934.068 109.003 933.603 110.768 932.213 113.044C932.213 113.044 926.205 124.078 934.262 125.993C934.262 125.993 946.153 129.309 948.326 132.117C948.326 132.117 954.464 128.162 959.706 126.758C959.706 126.758 968.851 123.824 970.577 123.542V122.999C970.576 122.828 970.628 122.661 970.726 122.521C970.824 122.381 970.964 122.274 971.125 122.216C975.399 120.65 978.938 117.554 981.054 113.53Z" fill="#0071F2"/>
<path id="Vector_49" opacity="0.2" d="M960.218 109.307C960.218 109.307 956.669 117.525 957.149 123.449C957.149 123.449 956.959 124.596 959.656 125.264L959.72 126.765C959.72 126.765 954.671 128.072 948.341 132.124C948.327 132.124 946.891 121.784 960.218 109.307Z" fill="black"/>
<path id="Vector_50" d="M959.548 122.395L959.641 125.253C959.641 125.253 957.188 124.875 957.135 123.438C957.149 123.449 957.149 122.491 959.548 122.395Z" fill="#0071F2"/>
<path id="Vector_51" opacity="0.4" d="M959.548 122.395L959.641 125.253C959.641 125.253 957.188 124.875 957.135 123.438C957.149 123.449 957.149 122.491 959.548 122.395Z" fill="black"/>
<path id="Vector_52" d="M975.257 121.787L976.811 123.027C976.811 123.027 975.282 124.724 974.222 123.027C974.222 123.027 974.19 122.177 975.257 121.787Z" fill="#0071F2"/>
<path id="Vector_53" opacity="0.4" d="M975.257 121.787L976.811 123.027C976.811 123.027 975.282 124.724 974.222 123.027C974.222 123.027 974.19 122.177 975.257 121.787Z" fill="black"/>
<path id="Vector_54" d="M977.298 144.315C977.299 144.538 977.388 144.752 977.546 144.909C977.705 145.067 977.919 145.155 978.143 145.155H984.033C985.319 145.156 986.552 145.667 987.461 146.574C988.37 147.482 988.881 148.713 988.881 149.997C988.881 151.28 988.37 152.51 987.461 153.418C986.552 154.325 985.319 154.835 984.033 154.835H981.526C981.241 154.835 980.968 154.947 980.767 155.148C980.565 155.35 980.452 155.622 980.452 155.906C980.452 156.191 980.565 156.463 980.767 156.664C980.968 156.865 981.241 156.978 981.526 156.978H984.43C986.227 156.977 987.949 156.265 989.22 154.997C990.49 153.73 991.204 152.011 991.205 150.218C991.2 148.428 990.484 146.713 989.215 145.448C987.945 144.184 986.224 143.473 984.43 143.472H978.143C977.919 143.472 977.704 143.561 977.545 143.719C977.387 143.877 977.298 144.092 977.298 144.315Z" fill="#2F2E41"/>
<path id="Vector_55" d="M992.419 203.603C992.636 203.603 992.813 203.427 992.813 203.21C992.813 202.993 992.636 202.817 992.419 202.817C992.201 202.817 992.025 202.993 992.025 203.21C992.025 203.427 992.201 203.603 992.419 203.603Z" stroke="#ED1C24" stroke-miterlimit="10"/>
<path id="Vector_56" d="M992.419 205.518C993.696 205.518 994.732 204.485 994.732 203.21C994.732 201.935 993.696 200.902 992.419 200.902C991.141 200.902 990.106 201.935 990.106 203.21C990.106 204.485 991.141 205.518 992.419 205.518Z" fill="#2F2E41"/>
<path id="Vector_57" d="M909.748 143.233C906.608 143.165 906.44 138.674 906.44 138.627H906.662C906.662 138.67 906.826 142.951 909.752 143.011H920C920.032 143.011 924.074 142.725 925.26 140.339L925.46 140.439C924.218 142.94 920.179 143.226 920.007 143.236L909.748 143.233Z" fill="#0071F2"/>
<g id="Group" opacity="0.2">
<path id="Vector_58" d="M909.748 143.233C906.608 143.165 906.44 138.674 906.44 138.627H906.662C906.662 138.67 906.826 142.951 909.752 143.011H920C920.032 143.011 924.074 142.725 925.26 140.339L925.46 140.439C924.218 142.94 920.179 143.226 920.007 143.236L909.748 143.233Z" fill="black"/>
</g>
<path id="Vector_59" d="M910.142 141.232L903.765 137.362C903.726 137.338 903.692 137.306 903.667 137.267C903.642 137.228 903.626 137.184 903.62 137.139C903.615 137.093 903.62 137.046 903.635 137.003C903.65 136.959 903.675 136.92 903.708 136.887C904.173 136.444 905.498 135.815 908.968 137.191H925.94L926.717 140.114H913.601C913.601 140.114 912.362 142.143 910.142 141.232Z" fill="#0071F2"/>
<path id="Vector_60" d="M931.705 174.115C931.644 174.433 931.497 175.973 934.53 175.573L935.271 173.907C934.179 173.825 933.082 173.969 932.049 174.329C932.049 174.329 931.755 174.486 931.719 174.118C931.719 174.108 931.705 174.108 931.705 174.115Z" fill="#2F2E41"/>
<path id="Vector_61" opacity="0.4" d="M931.705 174.115C931.644 174.433 931.497 175.973 934.53 175.573L935.271 173.907C934.179 173.825 933.082 173.969 932.049 174.329C932.049 174.329 931.755 174.486 931.719 174.118C931.719 174.108 931.705 174.108 931.705 174.115Z" fill="black"/>
<path id="Vector_62" d="M935.271 173.907L932.625 178.577C932.625 178.577 933.814 182.1 935.808 182.926L945.623 174.654C945.623 174.654 944.71 174.608 942.909 174.411C942.895 174.411 937.029 173.775 935.271 173.907Z" fill="#F9B499"/>
<path id="Vector_63" d="M935.271 173.908L934.849 174.654L943.969 176.041L945.616 174.654C945.616 174.654 944.044 174.551 941.283 174.211C941.291 174.211 936.689 173.861 935.271 173.908Z" fill="#F7A48B"/>
<path id="Vector_64" d="M935.809 182.94V183.594L931.684 180.921V179.51L932.625 178.578C932.625 178.578 933.728 181.929 935.809 182.94Z" fill="white"/>
<path id="Vector_65" d="M939.121 182.94C939.121 182.94 940.252 188.353 941.913 190.526C941.979 190.612 942.063 190.682 942.16 190.731C942.257 190.78 942.364 190.806 942.472 190.808L945.494 190.901C945.939 190.915 946.36 191.101 946.67 191.42C946.979 191.739 947.152 192.165 947.152 192.609V193.834L940.03 193.659C939.76 193.653 939.503 193.541 939.314 193.348C937.921 192.126 936.467 190.758 934.992 189.232C933.66 187.86 932.457 186.513 931.372 185.216C931.298 184.68 931.262 184.139 931.265 183.598C931.265 182.694 931.34 181.615 931.705 180.893L935.83 183.565L939.121 182.94Z" fill="#0071F2"/>
<path id="Vector_66" d="M931.684 179.51L932.042 177.559C932.042 177.559 927.824 181.511 927.824 182.94V184.494C927.823 184.565 927.801 184.635 927.761 184.693C927.721 184.752 927.664 184.797 927.598 184.823L925.482 185.641C925.455 185.652 925.432 185.67 925.414 185.694C925.397 185.717 925.387 185.744 925.384 185.773C925.381 185.802 925.387 185.831 925.4 185.857C925.412 185.883 925.432 185.905 925.457 185.92L938.53 194.156C938.696 194.261 938.888 194.316 939.085 194.317H947.152V193.834L940.03 193.659C939.76 193.653 939.503 193.541 939.314 193.348C937.753 191.976 936.12 190.429 934.473 188.703C933.352 187.524 932.324 186.36 931.372 185.227C931.333 184.705 931.333 184.126 931.343 183.494C931.361 182.558 931.444 181.475 931.701 180.904L931.684 179.51Z" fill="#0071F2"/>
<path id="Vector_67" opacity="0.4" d="M931.684 179.51L932.042 177.559C932.042 177.559 927.824 181.511 927.824 182.94V184.494C927.823 184.565 927.801 184.635 927.761 184.693C927.721 184.752 927.664 184.797 927.598 184.823L925.482 185.641C925.455 185.652 925.432 185.67 925.414 185.694C925.397 185.717 925.387 185.744 925.384 185.773C925.381 185.802 925.387 185.831 925.4 185.857C925.412 185.883 925.432 185.905 925.457 185.92L938.53 194.156C938.696 194.261 938.888 194.316 939.085 194.317H947.152V193.834L940.03 193.659C939.76 193.653 939.503 193.541 939.314 193.348C937.753 191.976 936.12 190.429 934.473 188.703C933.352 187.524 932.324 186.36 931.372 185.227C931.333 184.705 931.333 184.126 931.343 183.494C931.361 182.558 931.444 181.475 931.701 180.904L931.684 179.51Z" fill="white"/>
<path id="Vector_68" d="M939.12 182.94L941.118 179.724C941.118 179.724 938.433 178.52 937.205 181.75L935.808 182.929V183.583L939.12 182.94Z" fill="#0071F2"/>
<path id="Vector_69" opacity="0.4" d="M939.12 182.94L941.118 179.724C941.118 179.724 938.433 178.52 937.205 181.75L935.808 182.929V183.583L939.12 182.94Z" fill="white"/>
<path id="Vector_70" d="M946.103 194.302H939.02C938.441 194.302 937.971 194.77 937.971 195.348C937.971 195.925 938.441 196.393 939.02 196.393H946.103C946.682 196.393 947.152 195.925 947.152 195.348C947.152 194.77 946.682 194.302 946.103 194.302Z" fill="#0071F2"/>
<path id="Vector_71" d="M942.562 195.925C942.882 195.925 943.142 195.665 943.142 195.346C943.142 195.026 942.882 194.767 942.562 194.767C942.241 194.767 941.981 195.026 941.981 195.346C941.981 195.665 942.241 195.925 942.562 195.925Z" fill="#2F2E41"/>
<path id="Vector_72" d="M942.459 195.321L936.17 209.424L936.373 209.514L942.662 195.411L942.459 195.321Z" fill="#2F2E41"/>
<path id="Vector_73" d="M935.096 217.674C935.096 217.674 936.213 220.743 938.397 220.954C938.397 220.954 943.281 221.576 941.867 224.563C941.867 224.563 934.666 222.776 930.906 220.425C930.632 220.251 930.346 220.096 930.051 219.961C928.361 219.167 922.689 216.141 924.397 211.778L928.93 213.615C928.93 213.615 930.172 211.793 931.293 212.679L933.442 215.18L935.096 217.674Z" fill="#0071F2"/>
<path id="Vector_74" d="M934.63 210.699C934.63 210.699 933.048 208.873 930.219 211.114L927.802 213.157L928.937 213.615C928.937 213.615 930.054 211.875 931.3 212.679L932.095 213.608L934.63 210.699Z" fill="#0071F2"/>
<path id="Vector_75" opacity="0.4" d="M934.63 210.699C934.63 210.699 933.048 208.873 930.219 211.114L927.802 213.157L928.937 213.615C928.937 213.615 930.054 211.875 931.3 212.679L932.095 213.608L934.63 210.699Z" fill="white"/>
<path id="Vector_76" d="M923.856 209.32L924.397 211.778L927.802 213.157L928.4 212.479L928.167 211.807C928.167 211.807 927.322 211.775 923.856 209.32Z" fill="white"/>
<path id="Vector_77" d="M921.378 204.121C921.378 204.121 922.778 205.908 924.716 206.061L925.178 204.311C923.942 203.96 922.643 203.895 921.378 204.121Z" fill="#2F2E41"/>
<path id="Vector_78" opacity="0.4" d="M921.378 204.121C921.378 204.121 922.778 205.908 924.716 206.061L925.178 204.311C923.942 203.96 922.643 203.895 921.378 204.121Z" fill="black"/>
<path id="Vector_79" d="M933.671 225.299L926.828 223.294C926.566 223.199 926.351 223.005 926.229 222.754C926.108 222.503 926.089 222.215 926.176 221.951L926.133 222.026C926.214 221.756 926.395 221.527 926.639 221.385C926.883 221.243 927.172 221.198 927.448 221.261L934.251 223.341C934.511 223.418 934.73 223.594 934.86 223.832C934.99 224.07 935.021 224.349 934.945 224.609C934.907 224.738 934.844 224.858 934.759 224.962C934.674 225.067 934.57 225.154 934.451 225.218C934.333 225.282 934.203 225.322 934.069 225.336C933.935 225.35 933.8 225.337 933.671 225.299Z" fill="#0071F2"/>
<path id="Vector_80" d="M932.998 217.286L930.367 222.862L930.568 222.957L933.199 217.38L932.998 217.286Z" fill="#2F2E41"/>
<path id="Vector_81" d="M930.455 223.959C930.813 223.959 931.103 223.669 931.103 223.312C931.103 222.955 930.813 222.665 930.455 222.665C930.097 222.665 929.807 222.955 929.807 223.312C929.807 223.669 930.097 223.959 930.455 223.959Z" fill="#2F2E41"/>
<path id="Vector_82" d="M896.056 171.606C889.768 171.108 883.474 172.48 877.969 175.551C872.463 178.622 867.994 183.253 865.126 188.858C862.258 194.464 861.12 200.792 861.856 207.042C862.593 213.293 865.17 219.186 869.262 223.975C873.354 228.764 878.778 232.234 884.847 233.948C890.916 235.661 897.357 235.54 903.357 233.6C909.358 231.66 914.646 227.988 918.555 223.049C922.464 218.109 924.817 212.124 925.317 205.851C925.649 201.685 925.155 197.495 923.865 193.519C922.574 189.544 920.511 185.861 917.794 182.681C915.077 179.501 911.758 176.887 908.029 174.986C904.299 173.086 900.23 171.938 896.056 171.606ZM923.763 205.55C923.291 211.472 921.07 217.121 917.381 221.783C913.692 226.445 908.7 229.911 903.037 231.742C897.374 233.573 891.294 233.687 885.566 232.07C879.838 230.454 874.719 227.178 870.856 222.658C866.993 218.138 864.561 212.577 863.865 206.677C863.17 200.777 864.244 194.805 866.95 189.514C869.657 184.223 873.875 179.852 879.071 176.953C884.267 174.054 890.207 172.758 896.142 173.229C904.097 173.86 911.475 177.618 916.655 183.677C921.834 189.735 924.391 197.597 923.763 205.536V205.55Z" fill="#2F2E41"/>
<path id="Vector_83" d="M914.829 185.02C910.853 180.414 905.48 177.228 899.525 175.944C899.121 175.851 898.709 175.776 898.297 175.705C897.435 175.555 896.562 175.445 895.676 175.376C888.265 174.753 880.909 177.087 875.22 181.868C872.415 184.199 870.107 187.067 868.432 190.303C866.757 193.539 865.748 197.078 865.466 200.709C864.256 215.905 875.829 229.268 891.268 230.494C892.035 230.553 892.794 230.583 893.546 230.583C908.019 230.583 920.315 219.596 921.475 205.15C921.769 201.522 921.333 197.872 920.191 194.415C919.05 190.957 917.227 187.763 914.829 185.02ZM921.256 205.143C920.114 219.475 907.918 230.372 893.56 230.372C892.81 230.372 892.057 230.343 891.301 230.283C875.986 229.068 864.503 215.812 865.702 200.738C865.983 197.137 866.984 193.628 868.644 190.419C870.304 187.21 872.591 184.364 875.37 182.05C880.405 177.811 886.785 175.492 893.374 175.508C894.129 175.508 894.896 175.537 895.658 175.598C903.011 176.153 909.844 179.594 914.661 185.166C917.041 187.888 918.851 191.058 919.984 194.489C921.117 197.92 921.549 201.543 921.256 205.143Z" fill="#2F2E41"/>
<path id="Vector_84" d="M893.643 228.536H893.56V228.318H893.643C906.966 228.318 918.206 218.081 919.251 204.982C919.524 201.653 919.125 198.302 918.08 195.128C917.035 191.955 915.363 189.022 913.164 186.502C909.636 182.461 904.944 179.606 899.728 178.327C894.512 177.048 889.028 177.407 884.025 179.356L883.946 179.146C888.993 177.18 894.525 176.818 899.786 178.11C905.046 179.401 909.779 182.282 913.336 186.36C917.705 191.374 919.927 197.9 919.521 204.533C919.116 211.166 916.117 217.374 911.17 221.822C906.368 226.158 900.119 228.552 893.643 228.536Z" fill="#2F2E41"/>
<path id="Vector_85" d="M867.798 191.956L867.708 192.158L890.868 202.409L890.958 202.207L867.798 191.956Z" fill="#2F2E41"/>
<path id="Vector_86" d="M919.522 192.897L896.598 202.005L896.682 202.214L919.606 193.106L919.522 192.897Z" fill="#2F2E41"/>
<path id="Vector_87" d="M896.706 205.384L896.557 205.549L914.275 221.417L914.423 221.253L896.706 205.384Z" fill="#2F2E41"/>
<path id="Vector_88" d="M890.348 207.63C889.674 207.247 889.143 206.657 888.834 205.947C888.485 205.2 888.299 204.387 888.285 203.563C888.271 202.739 888.431 201.921 888.755 201.163C889.085 200.38 889.577 199.676 890.198 199.095C890.82 198.515 891.556 198.071 892.361 197.793C892.81 197.636 893.274 197.525 893.746 197.461L893.768 197.686C893.313 197.748 892.865 197.855 892.432 198.008C891.658 198.275 890.95 198.701 890.352 199.26C889.754 199.818 889.281 200.496 888.963 201.248C888.65 201.979 888.494 202.768 888.507 203.562C888.519 204.357 888.699 205.14 889.034 205.861C889.326 206.531 889.829 207.087 890.466 207.444L890.348 207.63Z" fill="#2F2E41"/>
<path id="Vector_89" d="M933.778 217.606L892.787 206.905L892.844 206.69L933.825 217.42L933.778 217.606Z" fill="#2F2E41"/>
<path id="Vector_90" d="M887.081 204.724L870.106 208.644L870.157 208.863L887.131 204.943L887.081 204.724Z" fill="#2F2E41"/>
<path id="Vector_91" d="M890.38 204.927L872.03 217.249L872.156 217.436L890.506 205.114L890.38 204.927Z" fill="#2F2E41"/>
<path id="Vector_92" d="M887.032 209.362L873.679 222.342L873.837 222.503L887.189 209.523L887.032 209.362Z" fill="#2F2E41"/>
<path id="Vector_93" d="M992.533 228.421H992.448V228.2H992.53C999.311 228.22 1005.83 225.566 1010.66 220.814L1010.81 220.972C1005.94 225.764 999.372 228.442 992.533 228.421Z" fill="#2F2E41"/>
<path id="Vector_94" d="M1018.45 203.603H1018.22C1018.54 192.988 1012.01 183.208 1001.99 179.264L1002.07 179.056C1012.17 183.03 1018.75 192.895 1018.45 203.603Z" fill="#2F2E41"/>
<path id="Vector_95" d="M1019.26 195.201L995.509 201.885L995.57 202.102L1019.32 195.418L1019.26 195.201Z" fill="#2F2E41"/>
<path id="Vector_96" d="M994.252 204.636L994.109 204.806L1013.44 221.001L1013.59 220.831L994.252 204.636Z" fill="#2F2E41"/>
<path id="Vector_97" d="M989.231 207.44L976.646 225.55L976.831 225.679L989.416 207.569L989.231 207.44Z" fill="#2F2E41"/>
<path id="Vector_98" d="M993.254 205.379L993.04 205.44L999.305 227.429L999.518 227.368L993.254 205.379Z" fill="#2F2E41"/>
<path id="Vector_99" d="M990.76 212.265L989.542 216.802L989.76 216.86L990.979 212.323L990.76 212.265Z" fill="#2F2E41"/>
<path id="Vector_100" d="M987.437 218.434L986.768 220.859L986.986 220.919L987.655 218.494L987.437 218.434Z" fill="#2F2E41"/>
<path id="Vector_101" d="M990.106 203.099H964.4V203.321H990.106V203.099Z" fill="#2F2E41"/>
<path id="Vector_102" d="M1011.59 182.854L994.646 200.822L994.81 200.976L1011.75 183.009L1011.59 182.854Z" fill="#2F2E41"/>
<path id="Vector_103" d="M985.146 176.073C984.692 176.191 984.237 176.319 983.786 176.459L981.609 169.945C981.583 169.865 981.57 169.782 981.569 169.698C981.57 169.513 981.638 169.333 981.76 169.193C981.882 169.053 982.05 168.96 982.234 168.933C982.418 168.905 982.606 168.944 982.764 169.042C982.922 169.141 983.039 169.292 983.095 169.47L985.146 176.073Z" fill="#0071F2"/>
<path id="Vector_104" d="M964.769 158.643C963.917 158.643 963.076 158.459 962.302 158.104L951.087 157.729C951.034 157.711 949.748 157.25 946.905 154.663L947.055 154.499C949.698 156.903 950.994 157.454 951.145 157.511L962.37 157.886H962.391C970.785 161.709 979.328 143.612 979.414 143.426C979.45 143.351 982.995 135.615 986.142 130.92C986.747 130.013 987.609 129.306 988.617 128.887C989.625 128.469 990.735 128.358 991.807 128.569C993.826 129.005 994.933 130.491 994.997 132.857C994.997 132.925 995.065 139.538 988.874 145.116L988.724 144.948C994.836 139.445 994.775 132.928 994.775 132.86C994.711 130.566 993.701 129.191 991.76 128.773C990.732 128.572 989.667 128.679 988.7 129.081C987.733 129.483 986.906 130.161 986.325 131.031C983.177 135.694 979.654 143.415 979.618 143.49C978.123 146.576 976.324 149.506 974.247 152.237C970.931 156.478 967.712 158.643 964.769 158.643Z" fill="#0071F2"/>
<path id="Vector_105" d="M981.924 169.045C979.047 162.413 976.867 155.502 975.421 148.421C974.938 145.805 974.752 143.143 974.866 140.485C975.171 135.101 977.097 131.831 980.438 131.034C980.531 131.017 982.729 130.538 985.451 132.267C988.011 133.893 991.498 137.92 993.568 147.567H993.335C991.284 137.995 987.85 134.075 985.329 132.467C982.683 130.774 980.492 131.249 980.492 131.252C972.643 133.125 975.607 148.224 975.64 148.378C977.08 155.441 979.254 162.335 982.128 168.948L981.924 169.045Z" fill="#0071F2"/>
<g id="Group_2" opacity="0.2">
<path id="Vector_106" d="M964.769 158.643C963.917 158.643 963.076 158.459 962.302 158.104L951.087 157.729C951.034 157.711 949.748 157.25 946.905 154.663L947.055 154.499C949.698 156.903 950.994 157.454 951.145 157.511L962.37 157.886H962.391C970.785 161.709 979.328 143.612 979.414 143.426C979.45 143.351 982.995 135.615 986.142 130.92C986.747 130.013 987.609 129.306 988.617 128.887C989.625 128.469 990.735 128.358 991.807 128.569C993.826 129.005 994.933 130.491 994.997 132.857C994.997 132.925 995.065 139.538 988.874 145.116L988.724 144.948C994.836 139.445 994.775 132.928 994.775 132.86C994.711 130.566 993.701 129.191 991.76 128.773C990.732 128.572 989.667 128.679 988.7 129.081C987.733 129.483 986.906 130.161 986.325 131.031C983.177 135.694 979.654 143.415 979.618 143.49C978.123 146.576 976.324 149.506 974.247 152.237C970.931 156.478 967.712 158.643 964.769 158.643Z" fill="black"/>
<path id="Vector_107" d="M981.924 169.045C979.047 162.413 976.868 155.502 975.422 148.421C974.938 145.805 974.752 143.143 974.867 140.485C975.171 135.101 977.097 131.831 980.438 131.034C980.531 131.017 982.73 130.538 985.451 132.267C988.011 133.893 991.499 137.92 993.568 147.567H993.336C991.284 137.995 987.85 134.075 985.329 132.467C982.683 130.774 980.492 131.249 980.492 131.252C972.643 133.125 975.608 148.224 975.64 148.378C977.08 155.441 979.255 162.335 982.128 168.948L981.924 169.045Z" fill="black"/>
</g>
<path id="Vector_108" d="M904.496 170.574C904.496 170.708 904.443 170.836 904.349 170.931L899.526 175.933C899.121 175.841 898.709 175.765 898.297 175.694L903.593 170.199C903.642 170.149 903.7 170.109 903.764 170.082C903.829 170.055 903.898 170.041 903.967 170.041C904.037 170.041 904.106 170.055 904.17 170.082C904.235 170.109 904.293 170.149 904.342 170.199C904.391 170.248 904.431 170.306 904.457 170.37C904.484 170.435 904.497 170.504 904.496 170.574Z" fill="#0071F2"/>
<path id="Vector_109" d="M983.288 84.6813C983.288 84.6813 983.077 82.3838 985.297 83.5736C985.297 83.5736 985.025 81.0725 987.298 81.4655C987.298 81.4655 988.251 81.5013 988.233 83.6701C987.915 83.6516 987.596 83.6904 987.291 83.7845C987.149 83.8358 987.02 83.92 986.916 84.0302C986.813 84.1404 986.736 84.2735 986.694 84.4187C986.651 84.5639 986.643 84.7171 986.671 84.8658C986.699 85.0145 986.762 85.1545 986.854 85.2744C987.098 85.596 987.377 86.1284 987.026 86.5429C987.026 86.5429 985.397 87.404 985.351 86.0569C985.351 86.0569 985.666 84.985 985.057 84.985C984.454 84.9835 983.856 84.8808 983.288 84.6813Z" fill="#F9B499"/>
<path id="Vector_110" d="M989.429 82.3909L988.226 83.2913L988.237 83.6594L988.978 83.8523L989.429 82.3909Z" fill="#F7A48B"/>
<path id="Vector_111" d="M984.381 105.293C985.768 105.169 986.742 103.406 986.557 101.355C986.372 99.3051 985.098 97.7439 983.712 97.8684C982.325 97.9929 981.352 99.7559 981.536 101.806C981.721 103.857 982.995 105.418 984.381 105.293Z" fill="#F9B499"/>
<path id="Vector_112" d="M988.978 83.177V84.6348C988.978 84.8083 989.034 84.9772 989.137 85.1163C989.241 85.2554 989.388 85.3573 989.554 85.4066C989.665 85.4396 989.781 85.4488 989.895 85.4335C990.009 85.4182 990.118 85.3788 990.216 85.3179C990.313 85.2571 990.397 85.1761 990.461 85.0805C990.524 84.9849 990.567 84.8768 990.586 84.7635L990.793 83.3057C990.81 83.1864 990.804 83.0649 990.773 82.9482C990.743 82.8316 990.69 82.7221 990.617 82.626C990.544 82.53 990.453 82.4493 990.348 82.3888C990.244 82.3282 990.129 82.2888 990.009 82.273C989.88 82.2563 989.749 82.2671 989.625 82.3049C989.501 82.3426 989.386 82.4064 989.288 82.492C989.191 82.5776 989.112 82.6829 989.059 82.8011C989.005 82.9192 988.978 83.0474 988.978 83.177Z" fill="#F9B499"/>
<path id="Vector_113" d="M962.33 139.885C962.339 140.175 962.276 140.464 962.147 140.725C962.019 140.986 961.828 141.211 961.593 141.382C961.124 140.925 960.784 140.557 960.558 140.31C960.337 140.068 960.21 139.755 960.2 139.428L960.164 138.481C960.379 138.295 960.653 138.193 960.937 138.191C961.704 138.184 962.33 138.945 962.33 139.885Z" fill="#F7A48B"/>
<path id="Vector_114" opacity="0.4" d="M973.316 155.192L977.111 167.044L978.648 166.886L975.232 155.192H973.316Z" fill="white"/>
<path id="Vector_115" d="M968.489 154.106H973.23L969.732 143.476H978.139V145.155H971.877L975.486 155.964H968.489V154.106Z" fill="#0071F2"/>
<path id="Vector_116" d="M925.79 139.349C924.531 138.579 923.451 137.55 922.62 136.332C921.79 135.113 921.229 133.733 920.974 132.281C920.643 130.45 920.745 128.567 921.271 126.782C921.798 124.997 922.734 123.359 924.007 121.998C925.518 120.34 927.63 118.711 930.323 118.257C930.323 118.257 928.948 124.389 933.392 125.761C933.392 125.761 944.85 128.619 948.327 132.149C948.327 132.149 962.807 142.422 968.081 151.415C968.081 151.415 972.783 158.497 964.533 162.899L948.806 173.114C948.806 173.114 947.464 175.126 944.012 174.544C944.012 174.544 934.577 173.246 932.02 174.333C931.98 174.35 931.936 174.356 931.893 174.349C931.849 174.342 931.809 174.322 931.777 174.293C931.745 174.263 931.722 174.225 931.711 174.182C931.7 174.14 931.702 174.095 931.716 174.054C932.024 173.175 932.79 171.553 934.419 170.81C934.419 170.81 931.555 167.844 938.544 166.504C938.544 166.504 936.435 162.867 943.819 163.06C943.819 163.06 942.093 159.998 947.367 159.519L951.109 157.604C951.109 157.604 950.726 154.445 952.068 154.063C953.411 153.68 934.419 146.892 925.79 139.349Z" fill="#2F2E41"/>
<path id="Vector_117" opacity="0.4" d="M927.802 136.655C928.425 136.628 929.046 136.56 929.66 136.451C930.266 136.35 930.864 136.208 931.451 136.026C932.624 135.69 933.709 135.1 934.627 134.297C935.073 133.892 935.457 133.424 935.765 132.907C936.069 132.383 936.303 131.822 936.46 131.238C936.741 130.034 936.826 128.792 936.711 127.561C937.003 128.793 937.032 130.073 936.797 131.317C936.664 131.941 936.441 132.543 936.134 133.103C935.811 133.664 935.404 134.172 934.928 134.611C934.448 135.038 933.914 135.399 933.338 135.683C932.766 135.964 932.166 136.185 931.547 136.34C930.326 136.658 929.059 136.764 927.802 136.655Z" fill="black"/>
<path id="Vector_118" opacity="0.2" d="M930.323 118.243C930.323 118.243 927.236 118.847 925.36 120.715C925.36 120.715 925.79 125.743 932.88 127.083L941.473 128.455C941.473 128.455 938.695 127.404 934.251 126C934.262 126 928.719 125.482 930.323 118.243Z" fill="black"/>
<path id="Vector_119" d="M995.126 153.305C996.376 155.22 990.908 153.881 990.908 153.881C990.621 155.699 989.372 154.835 989.372 154.835C989.085 156.174 983.331 153.305 983.331 153.305C971.039 149.546 964.271 144.015 961.593 141.382C961.124 140.925 960.784 140.557 960.558 140.31C960.338 140.068 960.211 139.755 960.2 139.428L960.164 138.481L959.548 122.402C961.43 122.417 963.299 122.709 965.095 123.27C966.885 123.692 968.737 123.789 970.562 123.556C969.183 127.779 968.28 132.143 967.87 136.566C967.839 136.9 967.884 137.237 968 137.552C968.117 137.868 968.302 138.153 968.543 138.388C976.27 145.938 983.983 148.535 983.983 148.535C984.552 147.292 986.385 147.96 986.385 147.96C986.696 148.096 987.037 148.147 987.373 148.108C987.71 148.069 988.03 147.941 988.301 147.738C988.45 148.017 988.57 148.311 988.659 148.614C988.743 148.894 988.802 149.181 988.835 149.471L995.28 151.501C996.648 152.062 995.126 153.305 995.126 153.305Z" fill="#F9B499"/>
<path id="Vector_120" d="M936.578 200.548C934.842 200.548 933.146 201.062 931.702 202.024C930.259 202.986 929.134 204.354 928.47 205.954C927.806 207.555 927.632 209.315 927.971 211.014C928.309 212.713 929.145 214.273 930.373 215.498C931.6 216.723 933.164 217.557 934.866 217.895C936.568 218.233 938.333 218.059 939.937 217.397C941.54 216.734 942.911 215.611 943.875 214.171C944.84 212.731 945.354 211.038 945.354 209.306C945.354 206.983 944.43 204.756 942.784 203.113C941.138 201.471 938.906 200.548 936.578 200.548ZM935.035 202.763C935.121 202.61 935.242 202.479 935.387 202.38C935.532 202.281 935.699 202.217 935.873 202.192C936.818 202.056 938.737 201.981 940.299 203.214C940.531 203.399 940.689 203.661 940.745 203.953C940.8 204.245 940.748 204.547 940.599 204.804C940.531 204.925 940.442 205.033 940.338 205.125L937.878 207.269C937.747 207.388 937.59 207.472 937.418 207.515C937.247 207.558 937.068 207.559 936.897 207.516C936.725 207.474 936.567 207.39 936.436 207.272C936.305 207.154 936.205 207.006 936.145 206.84L934.956 203.767C934.893 203.605 934.867 203.43 934.88 203.256C934.894 203.083 934.947 202.914 935.035 202.763ZM929.342 207.355C929.539 206.422 930.129 204.582 931.823 203.557C932.077 203.403 932.378 203.345 932.672 203.393C932.965 203.441 933.232 203.591 933.424 203.817C933.512 203.925 933.582 204.045 933.631 204.175L934.799 207.212C934.858 207.363 934.882 207.526 934.869 207.689C934.856 207.851 934.806 208.008 934.723 208.148C934.631 208.311 934.496 208.447 934.334 208.543C934.172 208.638 933.988 208.689 933.8 208.691L930.505 208.748C930.331 208.752 930.158 208.716 929.999 208.644C929.84 208.572 929.7 208.465 929.588 208.331C929.476 208.197 929.396 208.04 929.353 207.871C929.311 207.702 929.307 207.525 929.342 207.355ZM935.039 211.442L933.982 214.562C933.926 214.726 933.833 214.876 933.711 215C933.589 215.124 933.44 215.219 933.276 215.278C933.113 215.337 932.938 215.359 932.764 215.342C932.591 215.325 932.423 215.27 932.274 215.18C931.461 214.683 929.925 213.508 929.528 211.571C929.465 211.278 929.509 210.972 929.654 210.709C929.799 210.447 930.034 210.245 930.316 210.142C930.447 210.103 930.584 210.088 930.72 210.095L933.979 210.024C934.142 210.021 934.303 210.054 934.452 210.121C934.6 210.187 934.732 210.286 934.838 210.41C934.958 210.55 935.039 210.719 935.074 210.9C935.109 211.081 935.097 211.268 935.039 211.442ZM940.678 215.015C939.926 215.601 938.286 216.63 936.328 216.327C936.147 216.3 935.974 216.233 935.822 216.132C935.67 216.031 935.542 215.897 935.448 215.74C935.354 215.584 935.296 215.409 935.278 215.227C935.259 215.046 935.282 214.862 935.343 214.69L936.417 211.617C936.475 211.452 936.571 211.303 936.699 211.183C936.826 211.063 936.98 210.975 937.149 210.927C937.318 210.879 937.495 210.872 937.667 210.907C937.839 210.942 938 211.018 938.136 211.128L940.7 213.2C940.836 213.309 940.945 213.448 941.021 213.605C941.096 213.762 941.135 213.934 941.135 214.108C941.135 214.282 941.096 214.454 941.021 214.611C940.945 214.768 940.836 214.906 940.7 215.015H940.678ZM942.211 212.282C942.074 212.258 941.942 212.213 941.82 212.146L938.956 210.585C938.799 210.501 938.666 210.381 938.567 210.234C938.467 210.088 938.405 209.919 938.386 209.743C938.366 209.567 938.39 209.389 938.455 209.225C938.52 209.06 938.624 208.914 938.759 208.798L941.237 206.626C941.368 206.511 941.523 206.428 941.691 206.381C941.859 206.334 942.035 206.326 942.207 206.356C942.379 206.386 942.542 206.454 942.684 206.555C942.825 206.656 942.943 206.788 943.027 206.94C943.478 207.78 944.219 209.563 943.596 211.439C943.5 211.718 943.309 211.954 943.055 212.105C942.801 212.256 942.502 212.312 942.211 212.264V212.282Z" fill="#2F2E41"/>
<g id="freepik--Character--inject-432">
<path id="Vector_121" d="M897.42 235.414H832.818C832.818 235.414 818.57 224.673 821.36 219.878C824.149 215.083 841.494 218.924 850.005 227.921C850.005 227.921 854.792 220.925 860.987 223.719C867.181 226.513 873.755 229.911 873.755 229.911C873.755 229.911 873.397 224.234 877.393 225.752C881.389 227.271 883.427 232.627 888.257 232.488C893.087 232.348 897.42 235.414 897.42 235.414Z" fill="#EBEBEB"/>
</g>
</g>
</g>
</svg>
