<svg width="2917" height="1903" viewBox="0 0 2917 1903" fill="none" xmlns="http://www.w3.org/2000/svg">
<circle cx="951.5" cy="951.5" r="951.5" fill="#338DF5"/>
<path d="M2046.68 1379.53C2046.68 1379.53 1801.52 1275.42 1816.96 1164.27C1832.41 1053.11 1988.6 1134.11 2019.43 1033.42C2050.25 932.72 1936.42 801.267 2039.71 709.391C2143 617.516 2238.15 704.959 2302.54 686.415C2366.93 667.872 2361.63 524.839 2508.34 522.18C2655.04 519.52 2776.65 609.595 2722.25 867.859C2667.85 1126.12 2835.14 1155.26 2858.25 1247.98C2881.36 1340.7 2799.16 1375.87 2799.16 1375.87L2046.68 1379.53Z" fill="#0071F2"/>
<path opacity="0.7" d="M2046.68 1379.53C2046.68 1379.53 1801.52 1275.42 1816.96 1164.27C1832.41 1053.11 1988.6 1134.11 2019.43 1033.42C2050.25 932.72 1936.42 801.267 2039.71 709.391C2143 617.516 2238.15 704.959 2302.54 686.415C2366.93 667.872 2361.63 524.839 2508.34 522.18C2655.04 519.52 2776.65 609.595 2722.25 867.859C2667.85 1126.12 2835.14 1155.26 2858.25 1247.98C2881.36 1340.7 2799.16 1375.87 2799.16 1375.87L2046.68 1379.53Z" fill="white"/>
<path d="M2156.13 1269.68L2155.93 1269.59L2050.69 1225.98L2050.55 1225.72L1936.44 1023.12L1936.53 1022.78L2009.62 777.883L2009.94 777.728L2299.64 640.562L2300 640.731L2592.21 780.443L2671.86 1024.51L2671.52 1024.86L2469.03 1241.54H2468.71L2156.13 1269.68ZM2051.85 1224.65L2156.38 1268L2468.24 1239.86L2669.97 1024.07L2590.86 781.569L2299.64 642.279L2011 779.05L1938.17 1022.91L2051.85 1224.65Z" fill="#0071F2"/>
<path d="M1935.97 1024.67L1936.53 1022.77L2010.91 773.521L2017.54 921.957V922.083L1998.25 991.56L1935.97 1024.67ZM2009.69 783.398L1938.69 1021.35L1996.8 990.392L2015.87 921.717L2009.69 783.398Z" fill="#0071F2"/>
<path d="M2051.74 1227.83L2050.55 1225.71L1936.2 1022.67L1997.91 989.801L2063.64 1144.57L2051.74 1227.83ZM1938.48 1023.34L2050.8 1222.77L2061.97 1144.75L1997.1 992.15L1938.48 1023.34Z" fill="#0071F2"/>
<path d="M2050.18 1227.07L2062.05 1143.98L2236.12 1097.81L2050.18 1227.07ZM2063.53 1145.3L2052.36 1223.54L2227.44 1101.84L2063.53 1145.3Z" fill="#0071F2"/>
<path d="M2015.98 924.151L2009.39 776.687L2084.48 835.934L2015.98 924.151ZM2011.21 780.232L2017.43 919.522L2082.14 836.173L2011.21 780.232Z" fill="#0071F2"/>
<path d="M2069.86 964.391L2015.54 921.999L2084.48 833.247L2069.86 964.391ZM2017.81 921.717L2068.45 961.267L2082.04 838.861L2017.81 921.717Z" fill="#0071F2"/>
<path d="M2068.2 964.307L2082.54 835.217H2083.31L2292.45 844.306L2068.2 964.307ZM2084.01 836.933L2070.2 961.352L2286.33 845.727L2084.01 836.933Z" fill="#0071F2"/>
<path d="M2004.61 780.232L2300.5 640.126L2297.88 731.79L2297.21 731.903L2004.61 780.232ZM2298.77 642.785L2015.99 776.673L2296.25 730.383L2298.77 642.785Z" fill="#0071F2"/>
<path d="M2539.89 962.857L2538.7 962.295L2286.87 844.77L2537.29 786.381V787.408L2539.89 962.857ZM2291.92 845.305L2538.2 960.255L2535.67 788.477L2291.92 845.305Z" fill="#0071F2"/>
<path d="M2672.32 1025.86L2536.32 961.141L2644.65 942.653L2672.32 1025.86ZM2541.71 961.929L2669.45 1022.7L2643.41 944.553L2541.71 961.929Z" fill="#0071F2"/>
<path d="M2467.05 1243.58L2538.49 960.367L2672.29 1024.02L2671.52 1024.85L2467.05 1243.58ZM2539.6 962.73L2470.22 1237.75L2669.53 1024.55L2539.6 962.73Z" fill="#0071F2"/>
<path d="M2536.43 788.266L2296.22 731.734L2298.84 640.168L2594.48 781.569L2536.43 788.266ZM2297.93 730.425L2536.53 786.578L2588.58 780.528L2300.43 642.757L2297.93 730.425Z" fill="#0071F2"/>
<path d="M2670.77 1040C2680.6 1040 2688.57 1032.03 2688.57 1022.2C2688.57 1012.37 2680.6 1004.41 2670.77 1004.41C2660.94 1004.41 2652.98 1012.37 2652.98 1022.2C2652.98 1032.03 2660.94 1040 2670.77 1040Z" fill="#2F2E41"/>
<path d="M2670.77 1037.4C2679.16 1037.4 2685.97 1030.6 2685.97 1022.2C2685.97 1013.81 2679.16 1007.01 2670.77 1007.01C2662.38 1007.01 2655.58 1013.81 2655.58 1022.2C2655.58 1030.6 2662.38 1037.4 2670.77 1037.4Z" fill="#0071F2"/>
<path d="M2590.13 797.932C2599.96 797.932 2607.93 789.963 2607.93 780.134C2607.93 770.304 2599.96 762.335 2590.13 762.335C2580.3 762.335 2572.33 770.304 2572.33 780.134C2572.33 789.963 2580.3 797.932 2590.13 797.932Z" fill="#2F2E41"/>
<path d="M2590.13 795.329C2598.52 795.329 2605.32 788.526 2605.32 780.134C2605.32 771.742 2598.52 764.938 2590.13 764.938C2581.74 764.938 2574.94 771.742 2574.94 780.134C2574.94 788.526 2581.74 795.329 2590.13 795.329Z" fill="#0071F2"/>
<path d="M2009.03 797.89C2018.86 797.89 2026.83 789.921 2026.83 780.092C2026.83 770.262 2018.86 762.293 2009.03 762.293C1999.2 762.293 1991.23 770.262 1991.23 780.092C1991.23 789.921 1999.2 797.89 2009.03 797.89Z" fill="#2F2E41"/>
<path d="M2009.03 795.287C2017.42 795.287 2024.22 788.483 2024.22 780.091C2024.22 771.699 2017.42 764.896 2009.03 764.896C2000.64 764.896 1993.83 771.699 1993.83 780.091C1993.83 788.483 2000.64 795.287 2009.03 795.287Z" fill="#0071F2"/>
<path d="M1936.8 1040.45C1946.63 1040.45 1954.6 1032.48 1954.6 1022.65C1954.6 1012.82 1946.63 1004.86 1936.8 1004.86C1926.97 1004.86 1919 1012.82 1919 1022.65C1919 1032.48 1926.97 1040.45 1936.8 1040.45Z" fill="#2F2E41"/>
<path d="M1936.8 1037.85C1945.19 1037.85 1951.99 1031.05 1951.99 1022.65C1951.99 1014.26 1945.19 1007.46 1936.8 1007.46C1928.41 1007.46 1921.61 1014.26 1921.61 1022.65C1921.61 1031.05 1928.41 1037.85 1936.8 1037.85Z" fill="#0071F2"/>
<path d="M2265.19 813.802L2299.02 835.203L2331.56 813.802L2299.02 743.566L2265.19 813.802Z" fill="#0071F2"/>
<path d="M2265.19 820.218L2299.02 840.774L2331.56 818.938L2298.17 881.028L2265.19 820.218Z" fill="#0071F2"/>
<g opacity="0.2">
<path d="M2265.19 813.802L2299.02 835.203L2331.56 813.802L2299.02 743.566L2265.19 813.802Z" fill="white"/>
<path d="M2265.19 820.218L2299.02 840.774L2331.56 818.938L2298.17 881.028L2265.19 820.218Z" fill="white"/>
</g>
<path d="M2467.66 892.72V901.161C2467.66 901.275 2467.61 901.382 2467.53 901.465C2467.45 901.547 2467.35 901.601 2467.24 901.616C2467.13 901.63 2467.01 901.606 2466.91 901.546C2466.82 901.487 2466.74 901.395 2466.71 901.288L2464.74 892.959C2464.35 891.332 2463.43 889.879 2462.14 888.822L2447.45 876.863V920.859C2447.45 927.753 2439.33 933.339 2429.31 933.339C2419.3 933.339 2411.18 927.711 2411.18 920.859C2411.18 914.007 2419.31 908.379 2429.31 908.379C2432.88 908.342 2436.41 909.107 2439.64 910.616V864.58C2439.64 863.392 2440.12 862.254 2440.96 861.416C2441.8 860.577 2442.94 860.106 2444.13 860.106C2444.72 860.102 2445.3 860.216 2445.84 860.441C2446.39 860.666 2446.88 860.997 2447.29 861.415C2447.72 861.825 2448.05 862.317 2448.28 862.861C2448.51 863.406 2448.62 863.99 2448.62 864.58V867.563C2448.62 868.533 2448.99 869.467 2449.64 870.18L2465.71 887.542C2466.98 888.964 2467.68 890.81 2467.66 892.72Z" fill="#2F2E41"/>
<path d="M2596.56 696.503L2647.87 726.725L2696.38 695.8L2645.77 662.764L2596.56 696.503Z" fill="#D1D3D4"/>
<path d="M2646.94 782.709L2647.87 726.725L2696.38 695.8L2696.43 747.59L2646.94 782.709Z" fill="#BCBEC0"/>
<path d="M2596.56 696.503L2597.22 751.671L2646.94 782.709L2647.87 726.725L2596.56 696.503Z" fill="#A7A9AC"/>
<path d="M2254.22 528.862L2305.52 559.098L2354.03 528.159L2303.41 495.123L2254.22 528.862Z" fill="#D1D3D4"/>
<path d="M2304.6 615.082L2305.52 559.099L2354.03 528.159L2354.09 579.95L2304.6 615.082Z" fill="#BCBEC0"/>
<path d="M2254.22 528.862L2254.86 584.03L2304.6 615.082L2305.52 559.098L2254.22 528.862Z" fill="#A7A9AC"/>
<path d="M2705.94 990.575L2757.25 1020.8L2805.76 989.871L2755.14 956.835L2705.94 990.575Z" fill="#D1D3D4"/>
<path d="M2756.32 1076.78L2757.25 1020.8L2805.76 989.871L2805.82 1041.66L2756.32 1076.78Z" fill="#BCBEC0"/>
<path d="M2705.94 990.575L2706.59 1045.74L2756.32 1076.78L2757.25 1020.8L2705.94 990.575Z" fill="#A7A9AC"/>
<path d="M1904.32 692.494L1955.64 722.729L2004.13 691.79L1953.53 658.754L1904.32 692.494Z" fill="#D1D3D4"/>
<path d="M1954.7 778.713L1955.64 722.729L2004.13 691.79L2004.2 743.581L1954.7 778.713Z" fill="#BCBEC0"/>
<path d="M1904.32 692.493L1904.98 747.661L1954.7 778.712L1955.64 722.729L1904.32 692.493Z" fill="#A7A9AC"/>
<path d="M1798.76 995.752L1850.08 1025.97L1898.58 995.049L1847.97 961.999L1798.76 995.752Z" fill="#D1D3D4"/>
<path d="M1849.14 1081.96L1850.08 1025.97L1898.58 995.049L1898.65 1046.83L1849.14 1081.96Z" fill="#BCBEC0"/>
<path d="M1798.76 995.752L1799.42 1050.92L1849.14 1081.96L1850.08 1025.97L1798.76 995.752Z" fill="#A7A9AC"/>
<path d="M2116.54 924.841H2035.51V971.186H2116.54V924.841Z" fill="#2F2E41"/>
<path d="M2116.54 914.345H2035.22V924.841H2116.54V914.345Z" fill="#2F2E41"/>
<path d="M2035.22 924.841H2039.01L2045.72 914.345H2035.22V924.841Z" fill="#0071F2"/>
<path d="M2055.08 924.897L2061.45 914.345H2074.28L2067.58 925.136L2055.08 924.897Z" fill="#0071F2"/>
<path d="M2083.78 924.756L2090.16 914.274H2102.99L2096.28 924.981L2083.78 924.756Z" fill="#0071F2"/>
<path opacity="0.2" d="M2116.53 924.841H2035.51V927.641H2116.53V924.841Z" fill="black"/>
<path d="M2070.31 938.193V959.804L2086.49 948.731L2070.31 938.193Z" fill="#0071F2"/>
<path d="M2544.52 1020.23V1064.37C2544.52 1064.67 2544.46 1064.97 2544.35 1065.25C2544.24 1065.53 2544.07 1065.79 2543.85 1066C2543.64 1066.22 2543.39 1066.39 2543.11 1066.5C2542.83 1066.62 2542.53 1066.68 2542.23 1066.68H2496.79C2496.48 1066.68 2496.18 1066.62 2495.91 1066.5C2495.63 1066.39 2495.37 1066.22 2495.16 1066C2494.95 1065.79 2494.78 1065.53 2494.66 1065.25C2494.55 1064.97 2494.49 1064.67 2494.49 1064.37V1020.23C2494.49 1019.93 2494.55 1019.64 2494.67 1019.36C2494.78 1019.08 2494.95 1018.83 2495.17 1018.62C2495.38 1018.4 2495.63 1018.24 2495.91 1018.12C2496.19 1018.01 2496.49 1017.95 2496.79 1017.95H2542.17C2542.48 1017.94 2542.78 1018 2543.07 1018.11C2543.35 1018.22 2543.61 1018.38 2543.83 1018.6C2544.05 1018.81 2544.22 1019.06 2544.34 1019.34C2544.46 1019.63 2544.52 1019.93 2544.52 1020.23V1020.23Z" fill="#2F2E41"/>
<path d="M2544.52 1062.58V1064.37C2544.52 1064.67 2544.46 1064.97 2544.35 1065.26C2544.23 1065.54 2544.06 1065.79 2543.85 1066.01C2543.63 1066.22 2543.38 1066.39 2543.1 1066.51C2542.82 1066.62 2542.52 1066.68 2542.21 1066.68H2519.96L2521.36 1049.57L2525.96 1044.63C2526.16 1044.41 2526.39 1044.24 2526.66 1044.12C2526.92 1044 2527.21 1043.94 2527.5 1043.94C2527.79 1043.94 2528.07 1044 2528.34 1044.12C2528.6 1044.24 2528.84 1044.41 2529.03 1044.63L2544.52 1062.58Z" fill="#0071F2"/>
<path opacity="0.2" d="M2544.52 1062.58V1064.37C2544.52 1064.67 2544.46 1064.97 2544.35 1065.26C2544.23 1065.54 2544.06 1065.79 2543.85 1066.01C2543.63 1066.22 2543.38 1066.39 2543.1 1066.51C2542.82 1066.62 2542.52 1066.68 2542.21 1066.68H2519.96L2521.36 1049.57L2525.96 1044.63C2526.16 1044.41 2526.39 1044.24 2526.66 1044.12C2526.92 1044 2527.21 1043.94 2527.5 1043.94C2527.79 1043.94 2528.07 1044 2528.34 1044.12C2528.6 1044.24 2528.84 1044.41 2529.03 1044.63L2544.52 1062.58Z" fill="white"/>
<path d="M2533.46 1033.97C2535.16 1033.97 2536.54 1032.59 2536.54 1030.88C2536.54 1029.18 2535.16 1027.8 2533.46 1027.8C2531.76 1027.8 2530.38 1029.18 2530.38 1030.88C2530.38 1032.59 2531.76 1033.97 2533.46 1033.97Z" fill="#0071F2"/>
<path d="M2539.23 1066.69H2496.79C2496.18 1066.69 2495.59 1066.45 2495.16 1066.02C2494.73 1065.59 2494.49 1065.01 2494.49 1064.4V1053.11L2508.56 1039.88C2508.88 1039.57 2509.3 1039.4 2509.74 1039.4C2510.18 1039.4 2510.61 1039.57 2510.92 1039.88L2539.23 1066.69Z" fill="#0071F2"/>
<path d="M2440.96 726.303V770.454C2440.97 770.755 2440.91 771.055 2440.8 771.334C2440.68 771.614 2440.52 771.869 2440.3 772.083C2440.09 772.298 2439.84 772.469 2439.56 772.585C2439.28 772.701 2438.98 772.761 2438.68 772.761H2393.28C2392.98 772.761 2392.68 772.701 2392.4 772.585C2392.13 772.469 2391.87 772.298 2391.66 772.083C2391.45 771.869 2391.28 771.614 2391.17 771.334C2391.06 771.055 2391 770.755 2391 770.454V726.303C2391 725.698 2391.24 725.119 2391.67 724.691C2392.1 724.264 2392.68 724.023 2393.28 724.023H2438.68C2438.98 724.022 2439.28 724.079 2439.56 724.193C2439.83 724.307 2440.09 724.475 2440.3 724.687C2440.51 724.899 2440.68 725.151 2440.79 725.428C2440.91 725.706 2440.96 726.003 2440.96 726.303V726.303Z" fill="#2F2E41"/>
<path d="M2440.96 768.653V770.454C2440.96 770.756 2440.91 771.056 2440.79 771.336C2440.68 771.616 2440.51 771.87 2440.3 772.084C2440.08 772.299 2439.83 772.469 2439.55 772.585C2439.27 772.701 2438.97 772.761 2438.67 772.761H2416.5L2417.9 755.652L2422.5 750.714C2422.7 750.498 2422.93 750.325 2423.2 750.206C2423.46 750.088 2423.75 750.026 2424.04 750.026C2424.33 750.026 2424.61 750.088 2424.88 750.206C2425.14 750.325 2425.38 750.498 2425.57 750.714L2440.96 768.653Z" fill="#0071F2"/>
<path opacity="0.2" d="M2440.96 768.653V770.454C2440.96 770.756 2440.91 771.056 2440.79 771.336C2440.68 771.616 2440.51 771.87 2440.3 772.084C2440.08 772.299 2439.83 772.469 2439.55 772.585C2439.27 772.701 2438.97 772.761 2438.67 772.761H2416.5L2417.9 755.652L2422.5 750.714C2422.7 750.498 2422.93 750.325 2423.2 750.206C2423.46 750.088 2423.75 750.026 2424.04 750.026C2424.33 750.026 2424.61 750.088 2424.88 750.206C2425.14 750.325 2425.38 750.498 2425.57 750.714L2440.96 768.653Z" fill="white"/>
<path d="M2429.96 740.049C2431.66 740.049 2433.04 738.67 2433.04 736.968C2433.04 735.266 2431.66 733.887 2429.96 733.887C2428.26 733.887 2426.88 735.266 2426.88 736.968C2426.88 738.67 2428.26 740.049 2429.96 740.049Z" fill="#0071F2"/>
<path d="M2435.73 772.761H2393.28C2392.68 772.757 2392.1 772.516 2391.68 772.089C2391.25 771.663 2391.01 771.085 2391 770.482V759.127L2405.07 745.888C2405.4 745.587 2405.82 745.42 2406.26 745.42C2406.7 745.42 2407.13 745.587 2407.45 745.888L2435.73 772.761Z" fill="#0071F2"/>
<path d="M2643.44 952.685C2648.59 952.685 2652.76 948.508 2652.76 943.357C2652.76 938.205 2648.59 934.028 2643.44 934.028C2638.29 934.028 2634.11 938.205 2634.11 943.357C2634.11 948.508 2638.29 952.685 2643.44 952.685Z" fill="#2F2E41"/>
<path d="M2081.85 845.656C2087 845.656 2091.18 841.48 2091.18 836.328C2091.18 831.176 2087 827 2081.85 827C2076.7 827 2072.52 831.176 2072.52 836.328C2072.52 841.48 2076.7 845.656 2081.85 845.656Z" fill="#2F2E41"/>
<path d="M1997.56 1002.87C2002.71 1002.87 2006.89 998.695 2006.89 993.543C2006.89 988.391 2002.71 984.215 1997.56 984.215C1992.41 984.215 1988.24 988.391 1988.24 993.543C1988.24 998.695 1992.41 1002.87 1997.56 1002.87Z" fill="#2F2E41"/>
<path d="M2053.44 1230.65C2058.59 1230.65 2062.77 1226.47 2062.77 1221.32C2062.77 1216.17 2058.59 1211.99 2053.44 1211.99C2048.29 1211.99 2044.12 1216.17 2044.12 1221.32C2044.12 1226.47 2048.29 1230.65 2053.44 1230.65Z" fill="#2F2E41"/>
<path d="M2297.18 741.765C2302.33 741.765 2306.51 737.589 2306.51 732.437C2306.51 727.285 2302.33 723.109 2297.18 723.109C2292.03 723.109 2287.85 727.285 2287.85 732.437C2287.85 737.589 2292.03 741.765 2297.18 741.765Z" fill="#2F2E41"/>
<path d="M2538.67 971.51C2543.82 971.51 2548 967.334 2548 962.182C2548 957.03 2543.82 952.854 2538.67 952.854C2533.52 952.854 2529.34 957.03 2529.34 962.182C2529.34 967.334 2533.52 971.51 2538.67 971.51Z" fill="#2F2E41"/>
<path d="M2298.57 659.613C2308.4 659.613 2316.37 651.644 2316.37 641.814C2316.37 631.985 2308.4 624.016 2298.57 624.016C2288.75 624.016 2280.78 631.985 2280.78 641.814C2280.78 651.644 2288.75 659.613 2298.57 659.613Z" fill="#2F2E41"/>
<path d="M2298.57 657.01C2306.97 657.01 2313.77 650.207 2313.77 641.814C2313.77 633.422 2306.97 626.619 2298.57 626.619C2290.18 626.619 2283.38 633.422 2283.38 641.814C2283.38 650.207 2290.18 657.01 2298.57 657.01Z" fill="#0071F2"/>
<path d="M2073.36 1066.54L2233.39 1064.48C2234.96 1064.46 2236.52 1064.76 2237.97 1065.34C2239.43 1065.93 2240.75 1066.8 2241.87 1067.9C2242.98 1069 2243.87 1070.32 2244.47 1071.76C2245.08 1073.21 2245.39 1074.76 2245.39 1076.33V1342.58H2119.83L2086.65 1191C2086.65 1191 2062.31 1095.32 2073.36 1066.54Z" fill="#2F2E41"/>
<path d="M2367.5 1222.6C2367.5 1222.6 2408.06 1268.38 2454.88 1265.99L2471.07 1224.33C2471.07 1224.33 2431.68 1207.56 2407.42 1183.25L2393.54 1176.93L2367.5 1211.06V1222.6Z" fill="#F7A48B"/>
<path d="M2242.05 1100.5C2233.56 1103.45 2225.59 1107.73 2218.44 1113.16C2214.52 1116.12 2210.36 1118.75 2206.02 1121.04C2192.05 1128.32 2172.52 1136.76 2164.49 1140.16C2163.38 1140.63 2162.44 1141.42 2161.77 1142.42C2161.11 1143.42 2160.75 1144.59 2160.74 1145.79C2160.38 1169.98 2159.56 1296.73 2181.38 1342.25L2334.43 1343.85L2348.71 1301.04L2342.72 1287.68L2369.21 1123.73C2369.25 1123.39 2369.17 1123.04 2368.97 1122.76C2368.77 1122.48 2368.48 1122.28 2368.14 1122.2C2344.4 1117.64 2321.39 1109.89 2299.73 1099.16L2242.05 1100.5Z" fill="#0071F2"/>
<path d="M2249.46 1056.03C2249.46 1056.03 2248.45 1091.75 2242.05 1100.5C2242.05 1100.5 2224.53 1104.89 2231.93 1119.72C2231.93 1119.72 2243.71 1139.42 2277.63 1141.09C2287.3 1141.77 2296.9 1138.95 2304.68 1133.16C2309.25 1129.58 2313.22 1124.72 2313.7 1118.44C2313.84 1115.72 2313.31 1113 2312.15 1110.53C2310.98 1108.06 2309.23 1105.92 2307.04 1104.29C2304.7 1102.42 2302.24 1100.71 2299.67 1099.16L2301.36 1081.3L2264.63 1033.78L2245.75 1033.11L2249.46 1056.03Z" fill="#F9B499"/>
<path d="M2355.54 1208.5C2355.54 1208.5 2357.86 1219.29 2362.87 1226.62C2362.87 1226.62 2391.41 1211.15 2408.39 1180.73C2408.39 1180.73 2383.65 1153.7 2369.21 1123.62L2355.54 1208.5Z" fill="#0071F2"/>
<path opacity="0.2" d="M2355.54 1208.5C2355.54 1208.5 2357.86 1219.29 2362.87 1226.62C2362.87 1226.62 2391.41 1211.15 2408.39 1180.73C2408.39 1180.73 2383.65 1153.7 2369.21 1123.62L2355.54 1208.5Z" fill="black"/>
<path d="M2170.2 1245.76C2170.2 1245.76 2186.25 1295.76 2216.06 1342.09L2330.28 1341.63C2330.28 1341.63 2381.62 1343.85 2393.02 1328.97C2393.02 1328.97 2400.26 1324.48 2399.23 1299.97C2399.23 1299.97 2413.44 1314.88 2411.9 1302.43C2411.9 1302.43 2422.17 1311.77 2416.88 1285.63C2416.88 1285.63 2424.04 1303.68 2428.38 1301.19C2428.38 1301.19 2434.01 1302.43 2427.77 1285.01C2427.77 1285.01 2419.06 1262.29 2407.54 1261.67L2413.77 1258.25L2421.8 1261.63C2422.9 1262.09 2423.89 1262.76 2424.73 1263.61C2425.56 1264.46 2426.21 1265.46 2426.65 1266.57C2428.33 1270.79 2432.08 1277.48 2438.96 1275.99C2438.96 1275.99 2442.07 1274.74 2437.42 1270.07C2435.04 1266.19 2433.06 1262.08 2431.49 1257.81C2430.87 1255.9 2429.64 1254.24 2427.98 1253.1L2421.84 1248.8C2420.09 1247.56 2418.08 1246.76 2415.97 1246.44C2413.85 1246.13 2411.69 1246.32 2409.66 1247C2398.97 1250.57 2379.09 1257.72 2379.54 1261.36C2379.54 1261.36 2379.54 1267.27 2376.72 1269.14C2375.67 1269.88 2374.82 1270.89 2374.27 1272.05C2373.72 1273.22 2373.49 1274.51 2373.59 1275.8C2373.66 1277.47 2373.26 1279.12 2372.43 1280.58C2370.56 1283.76 2367.51 1290.79 2367.07 1303.37C2338.89 1307.54 2310.24 1307.37 2282.11 1302.88C2279.48 1302.43 2276.87 1301.83 2274.31 1301.09C2268.13 1299.33 2255.13 1295.9 2247.28 1295.9C2247.28 1295.9 2230.17 1235.22 2223.01 1229.31C2223.01 1229.35 2181.45 1243.29 2170.2 1245.76Z" fill="#F9B499"/>
<path d="M2384.04 1335.23C2382.4 1335.72 2380.69 1335.92 2378.98 1335.82C2377.24 1335.73 2375.53 1335.36 2373.91 1334.72C2372.28 1334.06 2370.81 1333.06 2369.61 1331.77C2368.43 1330.49 2367.57 1328.95 2367.12 1327.28C2368.03 1328.64 2369.13 1329.88 2370.37 1330.96C2371.58 1332 2372.96 1332.83 2374.45 1333.43C2377.52 1334.58 2380.76 1335.19 2384.04 1335.23V1335.23Z" fill="#F7A48B"/>
<path d="M2379.92 1288.61C2383.88 1288.62 2387.76 1289.69 2391.17 1291.71C2392.03 1292.21 2392.85 1292.75 2393.65 1293.34C2394.43 1293.94 2395.17 1294.6 2395.86 1295.3C2397.24 1296.68 2398.41 1298.27 2399.32 1300.01C2397.99 1298.63 2396.58 1297.33 2395.1 1296.11C2393.65 1294.91 2392.1 1293.85 2390.46 1292.93C2388.83 1291.98 2387.14 1291.14 2385.39 1290.44C2383.61 1289.72 2381.78 1289.11 2379.92 1288.61Z" fill="#F7A48B"/>
<path d="M2386.11 1277.22C2387.93 1277.41 2389.72 1277.82 2391.44 1278.43C2393.18 1279.02 2394.85 1279.8 2396.42 1280.75C2398.01 1281.71 2399.44 1282.91 2400.64 1284.32C2401.87 1285.73 2402.68 1287.46 2402.98 1289.3C2402.19 1287.72 2401.13 1286.29 2399.84 1285.08C2398.56 1283.88 2397.14 1282.83 2395.62 1281.96C2394.11 1281.03 2392.55 1280.19 2390.95 1279.44C2389.41 1278.69 2387.78 1277.92 2386.11 1277.22Z" fill="#F7A48B"/>
<path d="M2389.91 1266.51C2394.26 1266.45 2398.57 1267.31 2402.57 1269.03C2404.59 1269.89 2406.46 1271.07 2408.11 1272.52C2409.75 1273.98 2410.98 1275.83 2411.7 1277.91C2410.55 1276.15 2409.09 1274.61 2407.41 1273.36C2405.73 1272.14 2403.92 1271.12 2402.01 1270.31C2400.09 1269.47 2398.12 1268.75 2396.11 1268.16C2393.99 1267.57 2392 1266.97 2389.91 1266.51Z" fill="#F7A48B"/>
<path d="M2391.64 1257.89C2393.04 1257.69 2394.45 1257.65 2395.86 1257.77C2397.24 1257.88 2398.61 1258.08 2399.97 1258.38C2402.71 1258.94 2405.3 1260.08 2407.58 1261.71L2403.6 1260.69C2402.29 1260.38 2400.98 1260.04 2399.66 1259.76C2396.97 1259.14 2394.32 1258.62 2391.64 1257.89Z" fill="#F7A48B"/>
<path opacity="0.75" d="M2720.57 1139.05L2732.53 1102.74C2733.1 1101 2733.26 1099.16 2732.98 1097.35C2732.7 1095.55 2731.99 1093.83 2730.92 1092.35C2729.86 1090.87 2728.45 1089.66 2726.83 1088.83C2725.2 1088 2723.4 1087.56 2721.57 1087.56L2482.04 1087.02C2476.92 1087.01 2471.91 1088.59 2467.71 1091.53C2463.51 1094.47 2460.32 1098.64 2458.58 1103.46L2383.87 1309.66C2383.27 1311.31 2383.08 1313.08 2383.31 1314.81C2383.55 1316.55 2384.19 1318.2 2385.2 1319.64C2386.2 1321.07 2387.54 1322.24 2389.1 1323.05C2390.65 1323.86 2392.38 1324.28 2394.13 1324.28H2448.85L2534.8 1165.08L2720.57 1139.05Z" fill="#E6E7E8"/>
<path d="M2545.93 1335.92L2396.1 1334.51C2392.67 1334.68 2389.26 1334.02 2386.15 1332.57C2383.03 1331.13 2380.32 1328.95 2378.24 1326.22C2376.17 1323.49 2374.78 1320.3 2374.22 1316.92C2373.65 1313.53 2373.92 1310.06 2374.99 1306.81L2448.87 1098.7C2450.99 1092.73 2454.9 1087.57 2460.07 1083.91C2465.24 1080.26 2471.41 1078.29 2477.74 1078.27L2721.38 1077.69C2724.83 1077.69 2728.23 1078.5 2731.3 1080.07C2734.38 1081.64 2737.04 1083.91 2739.06 1086.71C2741.08 1089.51 2742.41 1092.74 2742.93 1096.15C2743.45 1099.56 2743.16 1103.05 2742.07 1106.33L2730.58 1140.81L2545.93 1335.92Z" stroke="#E6E7E8" stroke-miterlimit="10"/>
<path opacity="0.75" d="M2432.94 1208.19L2473.76 1099.87L2506.72 1100.39L2466.43 1208.73L2432.94 1208.19Z" fill="#E6E7E8"/>
<path opacity="0.75" d="M2418.8 1249.02L2430.85 1215L2463.29 1216.56L2451.78 1249.54L2418.8 1249.02Z" fill="#E6E7E8"/>
<path opacity="0.75" d="M2438.61 1302.87C2449.02 1291.23 2450.55 1275.6 2442.02 1267.97C2433.49 1260.34 2418.13 1263.59 2407.72 1275.24C2397.3 1286.89 2395.77 1302.51 2404.3 1310.15C2412.83 1317.78 2428.19 1314.52 2438.61 1302.87Z" fill="#E6E7E8"/>
<path d="M2077.78 1085.12C2079.01 1062.78 2073.36 1066.54 2073.36 1066.54C2060.58 1064.4 2064.09 1096.08 2064.09 1096.08C2064.09 1096.08 2061.35 1141.11 2077.01 1188.02C2077.01 1188.02 2097.73 1253.72 2096.94 1278.37L2105.95 1343.7L2124.71 1342.95L2107.83 1249.85L2093.58 1187.94C2092.57 1183.56 2091.4 1179.24 2090.02 1174.96C2085.89 1161.72 2075.6 1125.04 2077.78 1085.12Z" fill="#2F2E41"/>
<path opacity="0.2" d="M2077.78 1085.12C2079.01 1062.78 2073.36 1066.54 2073.36 1066.54C2060.58 1064.4 2064.09 1096.08 2064.09 1096.08C2064.09 1096.08 2061.35 1141.11 2077.01 1188.02C2077.01 1188.02 2097.73 1253.72 2096.94 1278.37L2105.95 1343.7L2124.71 1342.95L2107.83 1249.85L2093.58 1187.94C2092.57 1183.56 2091.4 1179.24 2090.02 1174.96C2085.89 1161.72 2075.6 1125.04 2077.78 1085.12Z" fill="black"/>
<path d="M2803.66 1349.14H2033.68V1395.7H2803.66V1349.14Z" fill="#BCBEC0"/>
<path d="M2299.73 1099.16L2301.13 1076.78L2264.2 1044.1C2264.2 1044.1 2260.34 1074.22 2299.73 1099.16Z" fill="#F7A48B"/>
<path d="M2313.04 1086.25C2286.57 1089.79 2260.7 1059.83 2255.36 1019.28C2250.01 978.728 2266.93 943.005 2293.34 939.459C2319.75 935.914 2345.63 965.882 2351.02 1006.42C2351.02 1006.49 2351.02 1006.56 2351.02 1006.61C2351.2 1008.16 2351.37 1009.71 2351.5 1011.26C2355.12 1049.77 2338.43 1082.83 2313.04 1086.25Z" fill="#F9B499"/>
<path d="M2352.34 959.509C2352.34 959.509 2391.65 984.665 2353.92 983.723C2353.92 983.723 2357.45 998.665 2350.22 1001.18C2350.22 1001.18 2349 991.335 2341.65 974.592L2344.47 962.337L2352.34 959.509Z" fill="#2F2E41"/>
<path opacity="0.2" d="M2352.34 959.509C2352.34 959.509 2391.65 984.665 2353.92 983.723C2353.92 983.723 2357.45 998.665 2350.22 1001.18C2350.22 1001.18 2349 991.447 2341.65 974.592L2344.47 962.337L2352.34 959.509Z" fill="black"/>
<path d="M2255.19 1055.69C2255.19 1055.69 2249.46 1050.3 2251.89 1038.5L2256.27 1015.24C2256.27 1015.24 2265.03 1025.02 2268.4 1032.12C2268.4 1032.12 2276.15 1032.12 2268.73 1013.59C2268.73 1013.59 2262.67 1003.48 2266.05 998.116C2269.96 991.503 2271.83 983.883 2271.44 976.209L2228.98 974.802C2228.98 974.802 2226.35 994.5 2240.51 1045.15C2241.14 1047.53 2242.25 1049.76 2243.79 1051.68C2246 1054.42 2249.76 1057.18 2255.19 1055.69Z" fill="#2F2E41"/>
<path opacity="0.2" d="M2255.19 1055.69C2255.19 1055.69 2249.46 1050.3 2251.89 1038.5L2256.27 1015.24C2256.27 1015.24 2265.03 1025.02 2268.4 1032.12C2268.4 1032.12 2276.15 1032.12 2268.73 1013.59C2268.73 1013.59 2262.67 1003.48 2266.05 998.116C2269.96 991.503 2271.83 983.883 2271.44 976.209L2228.98 974.802C2228.98 974.802 2226.35 994.5 2240.51 1045.15C2241.14 1047.53 2242.25 1049.76 2243.79 1051.68C2246 1054.42 2249.76 1057.18 2255.19 1055.69Z" fill="black"/>
<path d="M2283.76 1009.34L2253.44 1012.93L2239.11 1015.75C2239.11 1015.75 2228.53 1019.75 2230.06 1009.01C2230.23 1007.8 2246.72 1007.04 2255.96 1006.59C2265.81 1006.11 2274.95 1006.09 2283.48 1006.37C2283.58 1007.32 2283.68 1008.33 2283.76 1009.34Z" fill="#0071F2"/>
<path d="M2363.66 1009.84L2351.57 1011.24C2351.44 1009.7 2351.27 1008.15 2351.09 1006.6C2355.31 1006.6 2359.43 1006.6 2363.4 1006.77C2363.46 1007.81 2363.56 1008.81 2363.66 1009.84Z" fill="#0071F2"/>
<path opacity="0.4" d="M2319.79 1008.29C2319.79 1011.87 2318.73 1015.38 2316.74 1018.36C2314.75 1021.34 2311.92 1023.67 2308.61 1025.04C2305.3 1026.41 2301.66 1026.78 2298.14 1026.08C2294.63 1025.38 2291.4 1023.66 2288.86 1021.12C2286.33 1018.59 2284.6 1015.36 2283.9 1011.84C2283.2 1008.33 2283.56 1004.68 2284.93 1001.37C2286.3 998.059 2288.62 995.228 2291.6 993.236C2294.58 991.244 2298.08 990.181 2301.67 990.181H2301.75C2306.54 990.199 2311.13 992.115 2314.51 995.509C2317.89 998.903 2319.79 1003.5 2319.79 1008.29V1008.29Z" fill="white"/>
<path opacity="0.4" d="M2301.75 990.181L2285.83 1017.08C2284.3 1014.32 2283.52 1011.22 2283.56 1008.06C2283.6 1004.91 2284.47 1001.82 2286.07 999.107C2287.67 996.39 2289.95 994.138 2292.68 992.572C2295.42 991.007 2298.52 990.183 2301.67 990.181H2301.75Z" fill="white"/>
<path d="M2301.67 1027.11C2297.95 1027.11 2294.31 1026.01 2291.21 1023.94C2288.12 1021.87 2285.7 1018.93 2284.28 1015.49C2282.85 1012.05 2282.48 1008.27 2283.21 1004.62C2283.93 1000.96 2285.73 997.609 2288.36 994.977C2290.99 992.344 2294.35 990.551 2298 989.825C2301.65 989.098 2305.43 989.471 2308.87 990.896C2312.31 992.321 2315.25 994.734 2317.32 997.829C2319.39 1000.93 2320.49 1004.56 2320.49 1008.29C2320.48 1013.28 2318.49 1018.06 2314.97 1021.59C2311.44 1025.12 2306.66 1027.1 2301.67 1027.11V1027.11ZM2301.75 990.884C2298.3 990.867 2294.93 991.875 2292.05 993.779C2289.18 995.684 2286.93 998.399 2285.6 1001.58C2284.27 1004.76 2283.91 1008.27 2284.58 1011.65C2285.24 1015.04 2286.89 1018.15 2289.33 1020.59C2291.76 1023.04 2294.87 1024.7 2298.25 1025.38C2301.63 1026.06 2305.14 1025.72 2308.32 1024.4C2311.51 1023.08 2314.24 1020.85 2316.15 1017.98C2318.07 1015.11 2319.09 1011.74 2319.09 1008.29C2319.08 1003.69 2317.25 999.278 2314 996.019C2310.76 992.759 2306.35 990.914 2301.75 990.884V990.884Z" fill="#0071F2"/>
<path opacity="0.35" d="M2363.94 1006.68C2363.95 1010.28 2362.89 1013.8 2360.9 1016.8C2358.91 1019.79 2356.07 1022.13 2352.75 1023.51C2349.43 1024.89 2345.78 1025.26 2342.25 1024.56C2338.72 1023.86 2335.48 1022.13 2332.94 1019.59C2330.39 1017.05 2328.66 1013.81 2327.96 1010.28C2327.26 1006.75 2327.62 1003.09 2329 999.773C2330.38 996.452 2332.71 993.615 2335.71 991.621C2338.7 989.628 2342.22 988.568 2345.82 988.577C2350.62 988.577 2355.23 990.484 2358.62 993.879C2362.02 997.275 2363.93 1001.88 2363.94 1006.68Z" fill="white"/>
<path opacity="0.4" d="M2341.93 988.928L2330.48 1016.17C2328.96 1013.71 2328.05 1010.92 2327.82 1008.04C2327.6 1005.16 2328.07 1002.26 2329.19 999.595C2330.31 996.93 2332.05 994.571 2334.27 992.715C2336.48 990.859 2339.11 989.561 2341.93 988.928V988.928Z" fill="white"/>
<path d="M2345.82 1025.44C2341.19 1025.42 2336.73 1023.71 2333.29 1020.62C2329.85 1017.52 2327.67 1013.27 2327.17 1008.67C2326.66 1004.08 2327.86 999.454 2330.55 995.687C2333.23 991.92 2337.21 989.274 2341.72 988.253C2344.31 987.668 2346.99 987.636 2349.59 988.158C2352.19 988.681 2354.64 989.746 2356.8 991.285C2358.96 992.824 2360.77 994.802 2362.11 997.088C2363.45 999.375 2364.3 1001.92 2364.59 1004.55C2364.88 1007.19 2364.61 1009.86 2363.8 1012.38C2362.98 1014.9 2361.65 1017.23 2359.88 1019.2C2358.1 1021.17 2355.94 1022.75 2353.51 1023.82C2351.09 1024.9 2348.47 1025.45 2345.82 1025.44V1025.44ZM2345.82 989.21C2344.54 989.211 2343.28 989.347 2342.03 989.618C2338.15 990.465 2334.67 992.624 2332.19 995.732C2329.71 998.841 2328.38 1002.71 2328.41 1006.68C2328.41 1010.13 2329.43 1013.5 2331.34 1016.37C2333.26 1019.23 2335.98 1021.47 2339.16 1022.79C2342.34 1024.11 2345.84 1024.45 2349.22 1023.78C2352.6 1023.11 2355.71 1021.45 2358.15 1019.02C2360.58 1016.58 2362.24 1013.47 2362.91 1010.09C2363.58 1006.71 2363.24 1003.21 2361.92 1000.03C2360.6 996.843 2358.36 994.123 2355.5 992.21C2352.63 990.297 2349.26 989.278 2345.82 989.28V989.21Z" fill="#0071F2"/>
<path d="M2327.95 1006.28H2319.55V1007.68H2327.95V1006.28Z" fill="#0071F2"/>
<path d="M2265.27 1039.01C2270.39 1034.7 2269.36 1025.04 2262.96 1017.43C2256.55 1009.81 2247.21 1007.14 2242.08 1011.45C2236.96 1015.76 2237.99 1025.43 2244.39 1033.04C2250.8 1040.65 2260.14 1043.33 2265.27 1039.01Z" fill="#F9B499"/>
<path d="M2231.06 957.145C2231.06 957.145 2221.38 975.436 2237.16 984.046C2238.95 984.412 2246.13 987.282 2266.22 979.024C2266.22 979.024 2256.89 989.787 2280.2 984.046C2280.2 984.046 2254.37 996.962 2264.73 1001.27C2264.73 1001.27 2272.97 1005.57 2316.37 976.153C2316.37 976.153 2313.56 990.504 2321.38 985.847C2321.38 985.847 2331.79 973.297 2335.73 963.969C2335.73 963.969 2332.14 989.435 2344.7 971.496C2344.7 971.496 2374.83 931.679 2350.08 932.101C2350.08 932.101 2271.9 932.101 2236.39 948.985C2236.39 948.985 2232.96 939.023 2225.23 938.826C2224.95 938.811 2224.67 938.852 2224.41 938.945C2224.14 939.039 2223.9 939.184 2223.69 939.372C2223.48 939.56 2223.31 939.788 2223.19 940.042C2223.07 940.296 2223 940.571 2222.98 940.852C2222.9 942.907 2223.79 946.635 2228.96 952.235C2228.96 952.235 2219.76 948.844 2219.82 953.782C2219.87 953.698 2219.11 956.456 2231.06 957.145Z" fill="#2F2E41"/>
<path opacity="0.2" d="M2286.64 983.09C2290.03 981.521 2293.2 979.511 2296.06 977.11C2298.9 974.747 2301.47 972.066 2303.71 969.118C2304.29 968.401 2304.76 967.613 2305.31 966.867L2306.1 965.728L2306.76 964.475L2308.17 962.083C2308.56 961.239 2308.97 960.409 2309.39 959.579L2310.01 958.327L2310.52 957.032L2311.55 954.429C2312.22 952.685 2312.68 950.87 2313.35 949.083C2313.05 950.94 2312.74 952.811 2312.32 954.711L2311.5 957.44L2311.1 958.847L2310.56 960.17C2309.19 963.746 2307.32 967.113 2305.02 970.174C2302.69 973.225 2299.93 975.913 2296.82 978.151C2295.27 979.259 2293.64 980.256 2291.95 981.134C2290.25 981.968 2288.47 982.623 2286.64 983.09V983.09Z" fill="black"/>
<path opacity="0.2" d="M2313.67 974.591C2315.87 972.926 2317.85 970.993 2319.56 968.837C2321.28 966.735 2322.75 964.451 2323.97 962.027C2324.29 961.436 2324.53 960.803 2324.83 960.184C2325.12 959.565 2325.36 958.946 2325.59 958.298L2326.29 956.385L2326.84 954.415C2327.27 953.121 2327.44 951.756 2327.77 950.405C2328.09 949.055 2328.17 947.676 2328.46 946.297C2328.54 947.704 2328.6 949.111 2328.58 950.518C2328.51 951.933 2328.35 953.343 2328.1 954.739C2327.61 957.544 2326.71 960.263 2325.45 962.815C2324.17 965.359 2322.5 967.693 2320.52 969.737C2318.58 971.789 2316.25 973.438 2313.67 974.591V974.591Z" fill="black"/>
<path opacity="0.2" d="M2336.94 959.818C2337.25 958.06 2337.52 956.343 2337.77 954.627C2338.02 952.91 2338.22 951.208 2338.35 949.491C2338.47 947.775 2338.61 946.058 2338.67 944.327C2338.73 942.597 2338.74 940.852 2338.82 939.065C2339.96 942.464 2340.36 946.066 2340.01 949.632C2339.85 951.414 2339.52 953.176 2339.02 954.894C2338.56 956.625 2337.86 958.283 2336.94 959.818V959.818Z" fill="black"/>
<path d="M2160.45 1249.37C2160.45 1249.37 2215.23 1232.8 2228.12 1227.27C2228.12 1227.27 2212.92 1121.85 2158.61 1143.02C2158.61 1143.02 2146.18 1143.95 2150.78 1161.9C2150.77 1161.9 2160.9 1239.24 2160.45 1249.37Z" fill="#0071F2"/>
<path opacity="0.2" d="M2160.45 1249.37C2160.45 1249.37 2215.23 1232.8 2228.12 1227.27C2228.12 1227.27 2212.92 1121.85 2158.61 1143.02C2158.61 1143.02 2146.18 1143.95 2150.78 1161.9C2150.77 1161.9 2160.9 1239.24 2160.45 1249.37Z" fill="black"/>
<path d="M2442.72 1332.47C2442.72 1332.47 2432.23 1335.4 2433.87 1321.9L2494.83 1150.86C2494.83 1150.86 2498.52 1128.35 2519.79 1129.18L2724.77 1129.58C2724.77 1129.58 2738.02 1128.95 2733.21 1141.54L2442.72 1332.47Z" fill="#0071F2"/>
<path d="M2542.49 1332.47H2442.72C2441.89 1332.47 2441.06 1332.27 2440.32 1331.88C2439.58 1331.5 2438.94 1330.95 2438.46 1330.27C2437.98 1329.59 2437.66 1328.8 2437.55 1327.97C2437.43 1327.15 2437.51 1326.31 2437.78 1325.52L2500.44 1146.47C2501.85 1142.45 2504.48 1138.96 2507.95 1136.5C2511.43 1134.04 2515.58 1132.72 2519.84 1132.72L2727.26 1133C2728.28 1133 2729.29 1133.25 2730.19 1133.73C2731.1 1134.2 2731.88 1134.88 2732.46 1135.72C2733.05 1136.56 2733.43 1137.52 2733.56 1138.54C2733.7 1139.55 2733.58 1140.58 2733.24 1141.54L2666.72 1325.62C2666.19 1327.09 2665.23 1328.36 2663.95 1329.27C2662.68 1330.18 2661.16 1330.67 2659.6 1330.7L2542.49 1332.47Z" fill="#0071F2"/>
<path opacity="0.2" d="M2542.49 1332.47H2442.72C2441.89 1332.47 2441.06 1332.27 2440.32 1331.88C2439.58 1331.5 2438.94 1330.95 2438.46 1330.27C2437.98 1329.59 2437.66 1328.8 2437.55 1327.97C2437.43 1327.15 2437.51 1326.31 2437.78 1325.52L2500.44 1146.47C2501.85 1142.45 2504.48 1138.96 2507.95 1136.5C2511.43 1134.04 2515.58 1132.72 2519.84 1132.72L2727.26 1133C2728.28 1133 2729.29 1133.25 2730.19 1133.73C2731.1 1134.2 2731.88 1134.88 2732.46 1135.72C2733.05 1136.56 2733.43 1137.52 2733.56 1138.54C2733.7 1139.55 2733.58 1140.58 2733.24 1141.54L2666.72 1325.62C2666.19 1327.09 2665.23 1328.36 2663.95 1329.27C2662.68 1330.18 2661.16 1330.67 2659.6 1330.7L2542.49 1332.47Z" fill="black"/>
<path opacity="0.2" d="M2515.5 1332.24L2542.49 1215.17V1332.47L2515.5 1332.24Z" fill="black"/>
<path d="M2542.49 1215.17L2542.02 1343.33H2665.38L2663.95 1216.13L2542.49 1215.17Z" fill="#2F2E41"/>
<path opacity="0.75" d="M2435.46 1300.06C2443.76 1290.79 2444.97 1278.34 2438.18 1272.27C2431.38 1266.19 2419.15 1268.78 2410.86 1278.05C2402.57 1287.33 2401.35 1299.77 2408.15 1305.85C2414.94 1311.92 2427.17 1309.33 2435.46 1300.06Z" fill="#E6E7E8"/>
<path d="M2138.39 1294.21L2086.62 1294.97L2084.73 1261.57L2140.26 1261.95L2138.39 1294.21Z" fill="#0071F2"/>
<path d="M2089.23 1324.98L2092.24 1344.5L2131.66 1344.67L2133.89 1323.48L2089.23 1324.98Z" fill="#0071F2"/>
<path d="M2020.21 1342.35H2811.32C2812.09 1342.35 2812.86 1342.5 2813.58 1342.8C2814.3 1343.09 2814.96 1343.53 2815.51 1344.08C2816.06 1344.63 2816.49 1345.28 2816.79 1346C2817.09 1346.72 2817.24 1347.49 2817.24 1348.27V1355.92H2014.28V1348.27C2014.28 1347.49 2014.43 1346.72 2014.73 1346C2015.03 1345.28 2015.46 1344.63 2016.02 1344.08C2016.57 1343.53 2017.22 1343.09 2017.94 1342.79C2018.66 1342.5 2019.43 1342.34 2020.21 1342.35V1342.35Z" fill="#D1D3D4"/>
<path d="M2140.26 1261.95L2084.73 1261.57L2087.36 1248.44H2137.26L2140.26 1261.95Z" fill="#0071F2"/>
<path d="M2086.98 1326.87L2082.48 1288.97H2142.15L2137.64 1327.24L2086.98 1326.87Z" fill="#0071F2"/>
<path opacity="0.2" d="M2086.98 1326.87L2082.48 1288.97H2142.15L2137.64 1327.24L2086.98 1326.87Z" fill="black"/>
<path d="M2146.63 1257.45H2079.1V1266.07H2146.63V1257.45Z" fill="#0071F2"/>
<path opacity="0.2" d="M2146.63 1257.45H2079.1V1266.07H2146.63V1257.45Z" fill="white"/>
</svg>
