<svg width="1903" height="2232" viewBox="0 0 1903 2232" fill="none" xmlns="http://www.w3.org/2000/svg">
<g id="bg-home-mobile">
<g id="NFT blockchain 1">
<path id="Vector" d="M852.603 314.106C852.603 314.106 768.267 278.346 773.581 240.17C778.895 201.994 832.625 229.815 843.229 195.229C853.832 160.644 814.674 115.494 850.207 83.9388C885.74 52.3833 918.471 82.4166 940.622 76.0475C962.773 69.6784 960.949 20.5522 1011.42 19.6389C1061.89 18.7256 1103.72 49.6626 1085 138.366C1066.29 227.07 1123.84 237.078 1131.79 268.923C1139.74 300.769 1111.46 312.85 1111.46 312.85L852.603 314.106Z" fill="#0071F2"/>
<path id="Vector_2" opacity="0.7" d="M852.603 314.106C852.603 314.106 768.267 278.346 773.581 240.17C778.895 201.994 832.625 229.815 843.229 195.229C853.832 160.644 814.674 115.494 850.207 83.9388C885.74 52.3833 918.471 82.4166 940.622 76.0475C962.773 69.6784 960.949 20.5522 1011.42 19.6389C1061.89 18.7256 1103.72 49.6626 1085 138.366C1066.29 227.07 1123.84 237.078 1131.79 268.923C1139.74 300.769 1111.46 312.85 1111.46 312.85L852.603 314.106Z" fill="white"/>
<path id="Vector_3" d="M890.256 276.375L890.188 276.346L853.982 261.365L853.934 261.278L814.679 191.692L814.713 191.576L839.855 107.463L839.967 107.41L939.625 60.2987L939.746 60.3567L1040.27 108.342L1067.67 192.17L1067.55 192.291L997.895 266.71H997.784L890.256 276.375ZM854.384 260.911L890.343 275.8L997.624 266.135L1067.02 192.02L1039.81 108.729L939.625 60.8883L840.329 107.864L815.274 191.619L854.384 260.911Z" fill="#0071F2"/>
<path id="Vector_4" d="M814.52 192.223L814.713 191.571L840.301 105.965L842.58 156.947V156.99L835.945 180.853L814.52 192.223ZM839.879 109.357L815.454 191.083L835.446 180.452L842.004 156.865L839.879 109.357Z" fill="#0071F2"/>
<path id="Vector_5" d="M854.345 262.003L853.934 261.274L814.597 191.537L835.829 180.249L858.44 233.405L854.345 262.003ZM815.381 191.769L854.021 260.264L857.864 233.468L835.548 181.056L815.381 191.769Z" fill="#0071F2"/>
<path id="Vector_6" d="M853.808 261.742L857.893 233.202L917.774 217.347L853.808 261.742ZM858.401 233.656L854.558 260.529L914.788 218.729L858.401 233.656Z" fill="#0071F2"/>
<path id="Vector_7" d="M842.043 157.701L839.778 107.052L865.607 127.401L842.043 157.701ZM840.402 108.27L842.541 156.111L864.804 127.484L840.402 108.27Z" fill="#0071F2"/>
<path id="Vector_8" d="M860.579 171.521L841.893 156.961L865.607 126.479L860.579 171.521ZM842.672 156.865L860.095 170.449L864.77 128.407L842.672 156.865Z" fill="#0071F2"/>
<path id="Vector_9" d="M860.008 171.492L864.939 127.155H865.205L937.152 130.277L860.008 171.492ZM865.447 127.745L860.695 170.478L935.047 130.765L865.447 127.745Z" fill="#0071F2"/>
<path id="Vector_10" d="M838.132 108.27L939.92 60.1489L939.02 91.632L938.788 91.6707L838.132 108.27ZM939.325 61.0622L842.048 107.047L938.459 91.1488L939.325 61.0622Z" fill="#0071F2"/>
<path id="Vector_11" d="M1022.27 170.995L1021.86 170.801L935.231 130.436L1021.38 110.382V110.735L1022.27 170.995ZM936.968 130.62L1021.69 170.101L1020.82 111.102L936.968 130.62Z" fill="#0071F2"/>
<path id="Vector_12" d="M1067.83 192.634L1021.04 170.405L1058.31 164.055L1067.83 192.634ZM1022.9 170.676L1066.84 191.547L1057.88 164.708L1022.9 170.676Z" fill="#0071F2"/>
<path id="Vector_13" d="M997.213 267.411L1021.79 170.139L1067.82 192.001L1067.55 192.286L997.213 267.411ZM1022.17 170.951L998.306 265.41L1066.87 192.185L1022.17 170.951Z" fill="#0071F2"/>
<path id="Vector_14" d="M1021.08 111.029L938.449 91.6127L939.349 60.1634L1041.05 108.729L1021.08 111.029ZM939.035 91.1633L1021.12 110.449L1039.02 108.371L939.896 61.0526L939.035 91.1633Z" fill="#0071F2"/>
<path id="Vector_15" d="M1067.3 197.491C1070.68 197.491 1073.42 194.754 1073.42 191.378C1073.42 188.002 1070.68 185.265 1067.3 185.265C1063.91 185.265 1061.17 188.002 1061.17 191.378C1061.17 194.754 1063.91 197.491 1067.3 197.491Z" fill="#2F2E41"/>
<path id="Vector_16" d="M1067.3 196.597C1070.18 196.597 1072.52 194.26 1072.52 191.378C1072.52 188.495 1070.18 186.159 1067.3 186.159C1064.41 186.159 1062.07 188.495 1062.07 191.378C1062.07 194.26 1064.41 196.597 1067.3 196.597Z" fill="#0071F2"/>
<path id="Vector_17" d="M1039.55 114.349C1042.94 114.349 1045.68 111.612 1045.68 108.236C1045.68 104.86 1042.94 102.123 1039.55 102.123C1036.17 102.123 1033.43 104.86 1033.43 108.236C1033.43 111.612 1036.17 114.349 1039.55 114.349Z" fill="#2F2E41"/>
<path id="Vector_18" d="M1039.55 113.455C1042.44 113.455 1044.78 111.119 1044.78 108.236C1044.78 105.354 1042.44 103.017 1039.55 103.017C1036.67 103.017 1034.33 105.354 1034.33 108.236C1034.33 111.119 1036.67 113.455 1039.55 113.455Z" fill="#0071F2"/>
<path id="Vector_19" d="M839.652 114.335C843.033 114.335 845.774 111.598 845.774 108.222C845.774 104.846 843.033 102.109 839.652 102.109C836.271 102.109 833.53 104.846 833.53 108.222C833.53 111.598 836.271 114.335 839.652 114.335Z" fill="#2F2E41"/>
<path id="Vector_20" d="M839.652 113.441C842.539 113.441 844.879 111.104 844.879 108.222C844.879 105.339 842.539 103.003 839.652 103.003C836.765 103.003 834.425 105.339 834.425 108.222C834.425 111.104 836.765 113.441 839.652 113.441Z" fill="#0071F2"/>
<path id="Vector_21" d="M814.805 197.645C818.186 197.645 820.927 194.908 820.927 191.532C820.927 188.156 818.186 185.419 814.805 185.419C811.424 185.419 808.683 188.156 808.683 191.532C808.683 194.908 811.424 197.645 814.805 197.645Z" fill="#2F2E41"/>
<path id="Vector_22" d="M814.805 196.751C817.692 196.751 820.032 194.415 820.032 191.532C820.032 188.65 817.692 186.313 814.805 186.313C811.918 186.313 809.578 188.65 809.578 191.532C809.578 194.415 811.918 196.751 814.805 196.751Z" fill="#0071F2"/>
<path id="Vector_23" d="M927.773 119.8L939.412 127.15L950.607 119.8L939.412 95.6768L927.773 119.8Z" fill="#0071F2"/>
<path id="Vector_24" d="M927.773 122.004L939.412 129.064L950.607 121.564L939.117 142.889L927.773 122.004Z" fill="#0071F2"/>
<g id="Group" opacity="0.2">
<path id="Vector_25" d="M927.773 119.8L939.412 127.15L950.607 119.8L939.412 95.6768L927.773 119.8Z" fill="white"/>
<path id="Vector_26" d="M927.773 122.004L939.412 129.064L950.607 121.564L939.117 142.889L927.773 122.004Z" fill="white"/>
</g>
<path id="Vector_27" d="M997.425 146.905V149.804C997.423 149.843 997.407 149.88 997.38 149.909C997.353 149.937 997.317 149.955 997.279 149.96C997.24 149.966 997.201 149.957 997.167 149.937C997.134 149.916 997.109 149.885 997.096 149.848L996.419 146.987C996.284 146.429 995.97 145.929 995.523 145.566L990.471 141.459V156.57C990.471 158.938 987.678 160.856 984.232 160.856C980.787 160.856 977.994 158.923 977.994 156.57C977.994 154.216 980.791 152.284 984.232 152.284C985.459 152.271 986.673 152.533 987.785 153.052V137.24C987.786 136.832 987.949 136.441 988.239 136.153C988.528 135.865 988.92 135.704 989.329 135.704C989.531 135.702 989.732 135.741 989.919 135.819C990.106 135.896 990.275 136.009 990.418 136.153C990.563 136.294 990.679 136.463 990.757 136.65C990.835 136.837 990.875 137.038 990.873 137.24V138.265C990.874 138.598 991 138.919 991.226 139.164L996.753 145.127C997.191 145.615 997.431 146.249 997.425 146.905Z" fill="#2F2E41"/>
<path id="Vector_28" d="M1041.77 79.5124L1059.42 89.8924L1076.1 79.2707L1058.7 67.9243L1041.77 79.5124Z" fill="#D1D3D4"/>
<path id="Vector_29" d="M1059.1 109.121L1059.42 89.8924L1076.1 79.2708L1076.12 97.0588L1059.1 109.121Z" fill="#BCBEC0"/>
<path id="Vector_30" d="M1041.77 79.5124L1041.99 98.4602L1059.1 109.12L1059.42 89.8924L1041.77 79.5124Z" fill="#A7A9AC"/>
<path id="Vector_31" d="M923.998 21.9343L941.648 32.3191L958.335 21.6927L940.922 10.3462L923.998 21.9343Z" fill="#D1D3D4"/>
<path id="Vector_32" d="M941.329 51.5472L941.648 32.3191L958.335 21.6927L958.355 39.4807L941.329 51.5472Z" fill="#BCBEC0"/>
<path id="Vector_33" d="M923.998 21.9343L924.22 40.8821L941.329 51.5472L941.648 32.3191L923.998 21.9343Z" fill="#A7A9AC"/>
<path id="Vector_34" d="M1079.4 180.514L1097.05 190.894L1113.73 180.273L1096.32 168.926L1079.4 180.514Z" fill="#D1D3D4"/>
<path id="Vector_35" d="M1096.73 210.123L1097.05 190.894L1113.73 180.273L1113.75 198.061L1096.73 210.123Z" fill="#BCBEC0"/>
<path id="Vector_36" d="M1079.4 180.514L1079.62 199.462L1096.73 210.123L1097.05 190.894L1079.4 180.514Z" fill="#A7A9AC"/>
<path id="Vector_37" d="M803.63 78.1351L821.286 88.52L837.968 77.8935L820.56 66.547L803.63 78.1351Z" fill="#D1D3D4"/>
<path id="Vector_38" d="M820.961 107.748L821.285 88.52L837.968 77.8935L837.992 95.6816L820.961 107.748Z" fill="#BCBEC0"/>
<path id="Vector_39" d="M803.63 78.1351L803.858 97.083L820.961 107.748L821.286 88.52L803.63 78.1351Z" fill="#A7A9AC"/>
<path id="Vector_40" d="M767.318 182.293L784.973 192.673L801.656 182.051L784.247 170.7L767.318 182.293Z" fill="#D1D3D4"/>
<path id="Vector_41" d="M784.649 211.901L784.973 192.673L801.656 182.051L801.68 199.834L784.649 211.901Z" fill="#BCBEC0"/>
<path id="Vector_42" d="M767.318 182.293L767.546 201.241L784.649 211.901L784.973 192.673L767.318 182.293Z" fill="#A7A9AC"/>
<path id="Vector_43" d="M876.637 157.937H848.76V173.855H876.637V157.937Z" fill="#2F2E41"/>
<path id="Vector_44" d="M876.637 154.332H848.664V157.937H876.637V154.332Z" fill="#2F2E41"/>
<path id="Vector_45" d="M848.664 157.937H849.965L852.274 154.332H848.664V157.937Z" fill="#0071F2"/>
<path id="Vector_46" d="M855.492 157.957L857.685 154.332H862.098L859.795 158.039L855.492 157.957Z" fill="#0071F2"/>
<path id="Vector_47" d="M865.365 157.908L867.562 154.308H871.976L869.668 157.986L865.365 157.908Z" fill="#0071F2"/>
<path id="Vector_48" opacity="0.2" d="M876.632 157.937H848.76V158.899H876.632V157.937Z" fill="black"/>
<path id="Vector_49" d="M860.734 162.523V169.946L866.299 166.143L860.734 162.523Z" fill="#0071F2"/>
<path id="Vector_50" d="M1023.86 190.701V205.86C1023.87 205.964 1023.85 206.067 1023.81 206.163C1023.77 206.259 1023.71 206.347 1023.64 206.42C1023.56 206.494 1023.47 206.553 1023.38 206.592C1023.28 206.632 1023.18 206.653 1023.08 206.653H1007.44C1007.34 206.653 1007.24 206.632 1007.14 206.592C1007.04 206.553 1006.96 206.494 1006.88 206.42C1006.81 206.347 1006.75 206.259 1006.71 206.163C1006.67 206.067 1006.65 205.964 1006.65 205.86V190.701C1006.65 190.598 1006.68 190.496 1006.71 190.4C1006.75 190.305 1006.81 190.219 1006.89 190.146C1006.96 190.073 1007.05 190.016 1007.14 189.976C1007.24 189.937 1007.34 189.918 1007.44 189.918H1023.06C1023.16 189.915 1023.27 189.933 1023.36 189.971C1023.46 190.009 1023.55 190.066 1023.63 190.139C1023.7 190.212 1023.76 190.299 1023.8 190.396C1023.84 190.492 1023.86 190.596 1023.86 190.701Z" fill="#2F2E41"/>
<path id="Vector_51" d="M1023.86 205.247V205.86C1023.87 205.965 1023.85 206.068 1023.81 206.164C1023.77 206.261 1023.71 206.348 1023.63 206.422C1023.56 206.496 1023.47 206.554 1023.38 206.594C1023.28 206.633 1023.18 206.654 1023.07 206.653H1015.41L1015.9 200.777L1017.48 199.081C1017.55 199.006 1017.63 198.947 1017.72 198.906C1017.81 198.865 1017.91 198.844 1018.01 198.844C1018.11 198.844 1018.21 198.865 1018.3 198.906C1018.39 198.947 1018.47 199.006 1018.54 199.081L1023.86 205.247Z" fill="#0071F2"/>
<path id="Vector_52" opacity="0.2" d="M1023.86 205.247V205.86C1023.87 205.965 1023.85 206.068 1023.81 206.164C1023.77 206.261 1023.71 206.348 1023.63 206.422C1023.56 206.496 1023.47 206.554 1023.38 206.594C1023.28 206.633 1023.18 206.654 1023.07 206.653H1015.41L1015.9 200.777L1017.48 199.081C1017.55 199.006 1017.63 198.947 1017.72 198.906C1017.81 198.865 1017.91 198.844 1018.01 198.844C1018.11 198.844 1018.21 198.865 1018.3 198.906C1018.39 198.947 1018.47 199.006 1018.54 199.081L1023.86 205.247Z" fill="white"/>
<path id="Vector_53" d="M1020.06 195.418C1020.65 195.418 1021.12 194.944 1021.12 194.359C1021.12 193.775 1020.65 193.301 1020.06 193.301C1019.48 193.301 1019 193.775 1019 194.359C1019 194.944 1019.48 195.418 1020.06 195.418Z" fill="#0071F2"/>
<path id="Vector_54" d="M1022.04 206.658H1007.44C1007.23 206.658 1007.03 206.575 1006.89 206.427C1006.74 206.279 1006.65 206.079 1006.65 205.87V201.994L1011.49 197.447C1011.6 197.342 1011.75 197.283 1011.9 197.283C1012.05 197.283 1012.2 197.342 1012.31 197.447L1022.04 206.658Z" fill="#0071F2"/>
<path id="Vector_55" d="M988.24 89.7474V104.911C988.241 105.015 988.222 105.118 988.183 105.214C988.144 105.31 988.086 105.398 988.014 105.471C987.941 105.545 987.854 105.604 987.758 105.643C987.662 105.683 987.559 105.704 987.456 105.704H971.838C971.734 105.704 971.632 105.683 971.536 105.643C971.44 105.604 971.353 105.545 971.28 105.471C971.207 105.398 971.15 105.31 971.111 105.214C971.072 105.118 971.053 105.015 971.054 104.911V89.7474C971.054 89.5398 971.137 89.3407 971.284 89.1938C971.431 89.047 971.63 88.9646 971.838 88.9646H987.456C987.559 88.9639 987.661 88.9837 987.756 89.0228C987.852 89.0619 987.939 89.1196 988.011 89.1924C988.084 89.2652 988.142 89.3518 988.181 89.4471C988.221 89.5423 988.24 89.6444 988.24 89.7474Z" fill="#2F2E41"/>
<path id="Vector_56" d="M988.24 104.293V104.911C988.241 105.015 988.221 105.118 988.181 105.214C988.142 105.311 988.084 105.398 988.011 105.472C987.937 105.545 987.85 105.604 987.754 105.644C987.658 105.683 987.555 105.704 987.451 105.704H979.824L980.308 99.8278L981.89 98.1316C981.957 98.0573 982.038 97.9979 982.129 97.9572C982.22 97.9165 982.318 97.8955 982.418 97.8955C982.517 97.8955 982.616 97.9165 982.707 97.9572C982.798 97.9979 982.879 98.0573 982.945 98.1316L988.24 104.293Z" fill="#0071F2"/>
<path id="Vector_57" opacity="0.2" d="M988.24 104.293V104.911C988.241 105.015 988.221 105.118 988.181 105.214C988.142 105.311 988.084 105.398 988.011 105.472C987.937 105.545 987.85 105.604 987.754 105.644C987.658 105.683 987.555 105.704 987.451 105.704H979.824L980.308 99.8278L981.89 98.1316C981.957 98.0573 982.038 97.9979 982.129 97.9572C982.22 97.9165 982.318 97.8955 982.418 97.8955C982.517 97.8955 982.616 97.9165 982.707 97.9572C982.798 97.9979 982.879 98.0573 982.945 98.1316L988.24 104.293Z" fill="white"/>
<path id="Vector_58" d="M984.455 94.4687C985.041 94.4687 985.515 93.9948 985.515 93.4104C985.515 92.8259 985.041 92.3521 984.455 92.3521C983.87 92.3521 983.395 92.8259 983.395 93.4104C983.395 93.9948 983.87 94.4687 984.455 94.4687Z" fill="#0071F2"/>
<path id="Vector_59" d="M986.44 105.704H971.838C971.631 105.703 971.432 105.62 971.285 105.473C971.138 105.327 971.055 105.128 971.054 104.921V101.021L975.894 96.4741C976.005 96.3708 976.151 96.3134 976.303 96.3134C976.455 96.3134 976.601 96.3708 976.712 96.4741L986.44 105.704Z" fill="#0071F2"/>
<path id="Vector_60" d="M1057.89 167.501C1059.66 167.501 1061.1 166.066 1061.1 164.297C1061.1 162.527 1059.66 161.093 1057.89 161.093C1056.12 161.093 1054.68 162.527 1054.68 164.297C1054.68 166.066 1056.12 167.501 1057.89 167.501Z" fill="#2F2E41"/>
<path id="Vector_61" d="M864.702 130.741C866.474 130.741 867.911 129.306 867.911 127.537C867.911 125.767 866.474 124.333 864.702 124.333C862.93 124.333 861.493 125.767 861.493 127.537C861.493 129.306 862.93 130.741 864.702 130.741Z" fill="#2F2E41"/>
<path id="Vector_62" d="M835.708 184.738C837.48 184.738 838.916 183.304 838.916 181.534C838.916 179.765 837.48 178.33 835.708 178.33C833.936 178.33 832.499 179.765 832.499 181.534C832.499 183.304 833.936 184.738 835.708 184.738Z" fill="#2F2E41"/>
<path id="Vector_63" d="M854.931 262.97C856.703 262.97 858.14 261.535 858.14 259.766C858.14 257.996 856.703 256.562 854.931 256.562C853.159 256.562 851.722 257.996 851.722 259.766C851.722 261.535 853.159 262.97 854.931 262.97Z" fill="#2F2E41"/>
<path id="Vector_64" d="M938.778 95.0582C940.55 95.0582 941.987 93.6238 941.987 91.8543C941.987 90.0849 940.55 88.6504 938.778 88.6504C937.006 88.6504 935.57 90.0849 935.57 91.8543C935.57 93.6238 937.006 95.0582 938.778 95.0582Z" fill="#2F2E41"/>
<path id="Vector_65" d="M1021.85 173.967C1023.62 173.967 1025.06 172.532 1025.06 170.763C1025.06 168.993 1023.62 167.559 1021.85 167.559C1020.08 167.559 1018.64 168.993 1018.64 170.763C1018.64 172.532 1020.08 173.967 1021.85 173.967Z" fill="#2F2E41"/>
<path id="Vector_66" d="M939.257 66.8418C942.639 66.8418 945.38 64.1049 945.38 60.7288C945.38 57.3527 942.639 54.6158 939.257 54.6158C935.876 54.6158 933.135 57.3527 933.135 60.7288C933.135 64.1049 935.876 66.8418 939.257 66.8418Z" fill="#2F2E41"/>
<path id="Vector_67" d="M939.257 65.9478C942.144 65.9478 944.484 63.6112 944.484 60.7288C944.484 57.8464 942.144 55.5098 939.257 55.5098C936.371 55.5098 934.031 57.8464 934.031 60.7288C934.031 63.6112 936.371 65.9478 939.257 65.9478Z" fill="#0071F2"/>
<path id="Vector_68" d="M861.784 206.605L916.835 205.899C917.375 205.893 917.91 205.993 918.41 206.195C918.91 206.396 919.366 206.695 919.75 207.073C920.134 207.452 920.439 207.902 920.647 208.399C920.855 208.896 920.963 209.429 920.963 209.968V301.416H877.769L866.352 249.352C866.352 249.352 857.98 216.492 861.784 206.605Z" fill="#2F2E41"/>
<path id="Vector_69" d="M962.967 260.206C962.967 260.206 976.92 275.93 993.026 275.109L998.597 260.8C998.597 260.8 985.046 255.04 976.702 246.689L971.925 244.52L962.967 256.243V260.206Z" fill="#F7A48B"/>
<path id="Vector_70" d="M919.812 218.27C916.892 219.284 914.152 220.752 911.691 222.619C910.341 223.634 908.912 224.538 907.417 225.325C902.611 227.824 895.894 230.723 893.13 231.893C892.75 232.054 892.426 232.323 892.197 232.667C891.968 233.01 891.845 233.413 891.843 233.825C891.717 242.132 891.437 285.668 898.943 301.3L951.594 301.851L956.506 287.146L954.444 282.56L963.557 226.248C963.571 226.131 963.542 226.012 963.474 225.915C963.406 225.818 963.305 225.749 963.19 225.722C955.023 224.155 947.107 221.494 939.654 217.811L919.812 218.27Z" fill="#0071F2"/>
<path id="Vector_71" d="M922.362 202.995C922.362 202.995 922.014 215.264 919.812 218.27C919.812 218.27 913.786 219.778 916.332 224.871C916.332 224.871 920.383 231.636 932.051 232.211C935.38 232.443 938.682 231.476 941.358 229.486C942.931 228.259 944.295 226.587 944.46 224.431C944.509 223.495 944.325 222.562 943.926 221.714C943.527 220.866 942.924 220.129 942.171 219.57C941.365 218.929 940.518 218.341 939.635 217.811L940.216 211.674L927.579 195.355L921.084 195.123L922.362 202.995Z" fill="#F9B499"/>
<path id="Vector_72" d="M958.853 255.364C958.853 255.364 959.652 259.07 961.375 261.588C961.375 261.588 971.194 256.272 977.036 245.824C977.036 245.824 968.523 236.541 963.557 226.21L958.853 255.364Z" fill="#0071F2"/>
<path id="Vector_73" opacity="0.2" d="M958.853 255.364C958.853 255.364 959.652 259.07 961.375 261.588C961.375 261.588 971.194 256.272 977.036 245.824C977.036 245.824 968.523 236.541 963.557 226.21L958.853 255.364Z" fill="black"/>
<path id="Vector_74" d="M895.095 268.16C895.095 268.16 900.618 285.334 910.873 301.247L950.166 301.088C950.166 301.088 967.826 301.851 971.746 296.739C971.746 296.739 974.239 295.197 973.885 286.779C973.885 286.779 978.774 291.901 978.241 287.625C978.241 287.625 981.774 290.833 979.954 281.855C979.954 281.855 982.418 288.055 983.913 287.199C983.913 287.199 985.849 287.625 983.7 281.642C983.7 281.642 980.705 273.838 976.741 273.625L978.885 272.451L981.648 273.611C982.026 273.768 982.368 273.999 982.654 274.291C982.941 274.582 983.167 274.927 983.318 275.307C983.894 276.757 985.186 279.057 987.553 278.545C987.553 278.545 988.622 278.114 987.02 276.51C986.204 275.178 985.522 273.768 984.983 272.301C984.769 271.643 984.344 271.074 983.773 270.682L981.663 269.204C981.061 268.78 980.369 268.503 979.641 268.396C978.913 268.288 978.17 268.353 977.472 268.585C973.793 269.812 966.955 272.267 967.11 273.519C967.11 273.519 967.11 275.548 966.142 276.191C965.779 276.446 965.488 276.791 965.299 277.191C965.11 277.592 965.028 278.035 965.063 278.477C965.087 279.051 964.949 279.62 964.666 280.12C964.022 281.212 962.972 283.628 962.822 287.948C953.128 289.378 943.272 289.321 933.595 287.779C932.689 287.625 931.792 287.42 930.909 287.166C928.784 286.562 924.313 285.382 921.612 285.382C921.612 285.382 915.727 264.54 913.264 262.511C913.264 262.525 898.967 267.314 895.095 268.16Z" fill="#F9B499"/>
<path id="Vector_75" d="M968.659 298.889C968.094 299.058 967.504 299.127 966.916 299.092C966.319 299.063 965.73 298.936 965.174 298.715C964.612 298.49 964.106 298.143 963.693 297.7C963.288 297.262 962.994 296.734 962.836 296.159C963.152 296.628 963.528 297.053 963.954 297.425C964.373 297.782 964.847 298.067 965.358 298.27C966.414 298.666 967.531 298.875 968.659 298.889Z" fill="#F7A48B"/>
<path id="Vector_76" d="M967.24 282.879C968.603 282.883 969.94 283.25 971.112 283.942C971.406 284.115 971.69 284.302 971.964 284.503C972.232 284.71 972.486 284.934 972.724 285.175C973.201 285.651 973.602 286.197 973.914 286.793C973.458 286.318 972.973 285.871 972.462 285.455C971.965 285.043 971.43 284.677 970.865 284.363C970.307 284.034 969.725 283.749 969.123 283.507C968.509 283.261 967.88 283.051 967.24 282.879Z" fill="#F7A48B"/>
<path id="Vector_77" d="M969.37 278.965C969.996 279.031 970.611 279.17 971.204 279.381C971.802 279.584 972.377 279.851 972.917 280.178C973.464 280.507 973.954 280.921 974.369 281.405C974.792 281.889 975.07 282.482 975.173 283.116C974.903 282.572 974.537 282.081 974.093 281.666C973.652 281.254 973.165 280.894 972.642 280.594C972.123 280.274 971.587 279.985 971.035 279.728C970.507 279.472 969.946 279.207 969.37 278.965Z" fill="#F7A48B"/>
<path id="Vector_78" d="M970.677 275.288C972.173 275.266 973.658 275.561 975.032 276.153C975.727 276.448 976.371 276.853 976.939 277.351C977.502 277.852 977.927 278.49 978.173 279.202C977.777 278.599 977.277 278.071 976.697 277.641C976.119 277.223 975.496 276.871 974.839 276.592C974.178 276.305 973.501 276.058 972.811 275.853C972.08 275.65 971.398 275.447 970.677 275.288Z" fill="#F7A48B"/>
<path id="Vector_79" d="M971.272 272.325C971.753 272.258 972.24 272.245 972.724 272.287C973.199 272.324 973.671 272.394 974.137 272.494C975.081 272.688 975.973 273.078 976.755 273.64L975.386 273.287C974.936 273.181 974.486 273.065 974.031 272.968C973.106 272.755 972.196 272.577 971.272 272.325Z" fill="#F7A48B"/>
<path id="Vector_80" opacity="0.75" d="M1084.43 231.511L1088.54 219.038C1088.74 218.442 1088.79 217.808 1088.69 217.188C1088.6 216.568 1088.36 215.98 1087.99 215.471C1087.62 214.963 1087.14 214.548 1086.58 214.262C1086.02 213.976 1085.4 213.826 1084.77 213.824L1002.37 213.641C1000.61 213.638 998.886 214.178 997.442 215.188C995.997 216.198 994.899 217.629 994.299 219.285L968.6 290.108C968.395 290.674 968.329 291.281 968.409 291.878C968.488 292.474 968.71 293.043 969.056 293.535C969.402 294.028 969.862 294.43 970.397 294.707C970.932 294.985 971.526 295.13 972.128 295.129H990.955L1020.52 240.451L1084.43 231.511Z" fill="#E6E7E8"/>
<path id="Vector_81" d="M1024.35 299.126L972.806 298.643C971.628 298.702 970.453 298.474 969.382 297.978C968.312 297.482 967.379 296.733 966.664 295.796C965.949 294.859 965.474 293.762 965.279 292.6C965.084 291.438 965.176 290.246 965.546 289.128L990.96 217.651C991.689 215.602 993.034 213.829 994.812 212.573C996.59 211.317 998.713 210.64 1000.89 210.635L1084.7 210.437C1085.89 210.434 1087.06 210.714 1088.12 211.252C1089.18 211.791 1090.09 212.572 1090.79 213.533C1091.48 214.493 1091.94 215.605 1092.12 216.777C1092.3 217.948 1092.2 219.146 1091.82 220.271L1087.87 232.115L1024.35 299.126Z" stroke="#E6E7E8" stroke-miterlimit="10"/>
<path id="Vector_82" opacity="0.75" d="M985.481 255.257L999.521 218.053L1010.86 218.231L997 255.441L985.481 255.257Z" fill="#E6E7E8"/>
<path id="Vector_83" opacity="0.75" d="M980.617 269.281L984.76 257.596L995.92 258.132L991.961 269.46L980.617 269.281Z" fill="#E6E7E8"/>
<path id="Vector_84" opacity="0.75" d="M987.43 287.777C991.014 283.776 991.54 278.409 988.605 275.788C985.67 273.167 980.386 274.285 976.803 278.286C973.22 282.286 972.694 287.654 975.628 290.275C978.563 292.895 983.847 291.777 987.43 287.777Z" fill="#E6E7E8"/>
<path id="Vector_85" d="M863.303 212.988C863.725 205.314 861.784 206.605 861.784 206.605C857.385 205.87 858.595 216.753 858.595 216.753C858.595 216.753 857.651 232.216 863.037 248.328C863.037 248.328 870.166 270.895 869.895 279.361L872.993 301.798L879.449 301.542L873.641 269.566L868.738 248.303C868.39 246.796 867.988 245.312 867.514 243.843C866.091 239.296 862.553 226.698 863.303 212.988Z" fill="#2F2E41"/>
<path id="Vector_86" opacity="0.2" d="M863.303 212.988C863.725 205.314 861.784 206.605 861.784 206.605C857.385 205.87 858.595 216.753 858.595 216.753C858.595 216.753 857.651 232.216 863.037 248.328C863.037 248.328 870.166 270.895 869.895 279.361L872.993 301.798L879.449 301.542L873.641 269.566L868.738 248.303C868.39 246.796 867.988 245.312 867.514 243.843C866.091 239.296 862.553 226.698 863.303 212.988Z" fill="black"/>
<path id="Vector_87" d="M1113.01 303.668H848.131V319.659H1113.01V303.668Z" fill="#BCBEC0"/>
<path id="Vector_88" d="M939.654 217.811L940.138 210.123L927.434 198.897C927.434 198.897 926.103 209.243 939.654 217.811Z" fill="#F7A48B"/>
<path id="Vector_89" d="M944.233 213.375C935.129 214.593 926.229 204.3 924.39 190.373C922.551 176.446 928.373 164.176 937.457 162.958C946.541 161.741 955.446 172.034 957.3 185.956C957.3 185.98 957.3 186.004 957.3 186.023C957.363 186.555 957.421 187.087 957.464 187.618C958.708 200.844 952.968 212.2 944.233 213.375Z" fill="#F9B499"/>
<path id="Vector_90" d="M957.755 169.844C957.755 169.844 971.277 178.485 958.297 178.161C958.297 178.161 959.511 183.293 957.024 184.158C957.024 184.158 956.603 180.775 954.076 175.025L955.044 170.816L957.755 169.844Z" fill="#2F2E41"/>
<path id="Vector_91" opacity="0.2" d="M957.755 169.844C957.755 169.844 971.277 178.485 958.297 178.161C958.297 178.161 959.511 183.293 957.024 184.158C957.024 184.158 956.603 180.814 954.076 175.025L955.044 170.816L957.755 169.844Z" fill="black"/>
<path id="Vector_92" d="M924.332 202.879C924.332 202.879 922.362 201.028 923.199 196.974L924.704 188.986C924.704 188.986 927.72 192.344 928.876 194.785C928.876 194.785 931.543 194.785 928.992 188.42C928.992 188.42 926.906 184.946 928.068 183.105C929.414 180.833 930.059 178.216 929.922 175.581L915.315 175.097C915.315 175.097 914.41 181.863 919.284 199.259C919.499 200.077 919.883 200.841 920.412 201.502C921.171 202.444 922.464 203.391 924.332 202.879Z" fill="#2F2E41"/>
<path id="Vector_93" opacity="0.2" d="M924.332 202.879C924.332 202.879 922.362 201.028 923.199 196.974L924.704 188.986C924.704 188.986 927.72 192.344 928.876 194.785C928.876 194.785 931.543 194.785 928.992 188.42C928.992 188.42 926.906 184.946 928.068 183.105C929.414 180.833 930.059 178.216 929.922 175.581L915.315 175.097C915.315 175.097 914.41 181.863 919.284 199.259C919.499 200.077 919.883 200.841 920.412 201.502C921.171 202.444 922.464 203.391 924.332 202.879Z" fill="black"/>
<path id="Vector_94" d="M934.161 186.961L923.732 188.193L918.8 189.16C918.8 189.16 915.161 190.537 915.688 186.845C915.746 186.429 921.418 186.168 924.598 186.014C927.986 185.849 931.132 185.845 934.065 185.941C934.098 186.265 934.132 186.613 934.161 186.961Z" fill="#0071F2"/>
<path id="Vector_95" d="M961.646 187.13L957.489 187.613C957.445 187.082 957.387 186.55 957.324 186.019C958.776 186.019 960.194 186.019 961.559 186.077C961.578 186.434 961.612 186.777 961.646 187.13Z" fill="#0071F2"/>
<path id="Vector_96" opacity="0.4" d="M946.556 186.598C946.557 187.83 946.192 189.033 945.507 190.058C944.823 191.082 943.85 191.88 942.711 192.352C941.572 192.824 940.319 192.948 939.109 192.708C937.9 192.469 936.788 191.876 935.916 191.006C935.044 190.136 934.45 189.027 934.209 187.819C933.968 186.612 934.091 185.36 934.563 184.222C935.034 183.085 935.833 182.113 936.858 181.428C937.884 180.744 939.089 180.379 940.322 180.379H940.351C941.999 180.385 943.577 181.044 944.74 182.209C945.903 183.375 946.556 184.953 946.556 186.598Z" fill="white"/>
<g id="Group_2">
<path id="Vector_97" opacity="0.4" d="M940.351 180.379L934.873 189.619C934.347 188.671 934.078 187.604 934.093 186.521C934.107 185.438 934.404 184.378 934.955 183.445C935.505 182.512 936.289 181.738 937.231 181.201C938.172 180.663 939.238 180.38 940.322 180.379H940.351Z" fill="white"/>
</g>
<path id="Vector_98" d="M940.322 193.064C939.041 193.064 937.789 192.685 936.725 191.974C935.66 191.264 934.83 190.254 934.34 189.073C933.849 187.891 933.721 186.591 933.971 185.337C934.221 184.083 934.838 182.931 935.743 182.026C936.649 181.122 937.803 180.506 939.059 180.257C940.315 180.007 941.617 180.135 942.8 180.625C943.983 181.114 944.995 181.943 945.706 183.006C946.418 184.07 946.798 185.32 946.798 186.598C946.794 188.312 946.11 189.954 944.897 191.166C943.683 192.378 942.038 193.06 940.322 193.064ZM940.351 180.621C939.165 180.615 938.003 180.961 937.014 181.615C936.025 182.269 935.252 183.202 934.795 184.295C934.337 185.388 934.214 186.592 934.443 187.754C934.671 188.917 935.24 189.985 936.077 190.825C936.914 191.664 937.982 192.237 939.146 192.469C940.309 192.702 941.515 192.584 942.612 192.132C943.708 191.679 944.645 190.911 945.304 189.926C945.963 188.941 946.315 187.783 946.314 186.598C946.31 185.018 945.681 183.504 944.565 182.384C943.448 181.265 941.934 180.631 940.351 180.621Z" fill="#0071F2"/>
<path id="Vector_99" opacity="0.35" d="M961.743 186.048C961.746 187.283 961.383 188.491 960.698 189.52C960.013 190.549 959.038 191.352 957.896 191.826C956.754 192.301 955.496 192.427 954.282 192.187C953.069 191.947 951.953 191.353 951.078 190.48C950.203 189.607 949.607 188.494 949.366 187.282C949.125 186.071 949.25 184.815 949.725 183.674C950.199 182.533 951.002 181.559 952.032 180.874C953.062 180.189 954.272 179.825 955.509 179.828C957.161 179.828 958.746 180.483 959.915 181.65C961.084 182.816 961.741 184.398 961.743 186.048Z" fill="white"/>
<g id="Group_3">
<path id="Vector_100" opacity="0.4" d="M954.173 179.949L950.234 189.305C949.71 188.46 949.397 187.503 949.319 186.513C949.242 185.522 949.402 184.528 949.788 183.613C950.173 182.697 950.773 181.887 951.535 181.25C952.298 180.612 953.203 180.166 954.173 179.949Z" fill="white"/>
</g>
<path id="Vector_101" d="M955.509 192.489C953.918 192.484 952.385 191.894 951.201 190.832C950.018 189.77 949.267 188.31 949.093 186.731C948.919 185.152 949.333 183.564 950.257 182.27C951.181 180.977 952.549 180.068 954.101 179.717C954.99 179.516 955.912 179.505 956.806 179.684C957.7 179.864 958.546 180.23 959.289 180.758C960.031 181.287 960.654 181.966 961.115 182.752C961.577 183.537 961.867 184.411 961.967 185.316C962.066 186.221 961.974 187.137 961.694 188.004C961.415 188.87 960.956 189.668 960.346 190.346C959.736 191.023 958.99 191.564 958.157 191.933C957.323 192.303 956.421 192.492 955.509 192.489ZM955.509 180.046C955.071 180.046 954.635 180.093 954.207 180.186C952.871 180.477 951.675 181.218 950.822 182.286C949.969 183.353 949.51 184.682 949.522 186.048C949.522 187.231 949.872 188.388 950.53 189.373C951.188 190.358 952.124 191.125 953.219 191.579C954.314 192.032 955.519 192.151 956.682 191.92C957.844 191.689 958.912 191.12 959.751 190.283C960.589 189.446 961.16 188.379 961.391 187.218C961.622 186.057 961.503 184.854 961.049 183.761C960.594 182.667 959.826 181.733 958.84 181.076C957.854 180.419 956.695 180.069 955.509 180.07V180.046Z" fill="#0071F2"/>
<path id="Vector_102" d="M949.363 185.907H946.473V186.391H949.363V185.907Z" fill="#0071F2"/>
<path id="Vector_103" d="M927.8 197.152C929.563 195.671 929.207 192.351 927.004 189.737C924.802 187.122 921.587 186.204 919.824 187.685C918.061 189.165 918.417 192.485 920.619 195.099C922.822 197.714 926.036 198.632 927.8 197.152Z" fill="#F9B499"/>
<path id="Vector_104" d="M916.032 169.033C916.032 169.033 912.702 175.315 918.132 178.272C918.747 178.398 921.215 179.384 928.126 176.547C928.126 176.547 924.917 180.244 932.937 178.272C932.937 178.272 924.051 182.708 927.613 184.187C927.613 184.187 930.449 185.666 945.38 175.561C945.38 175.561 944.412 180.49 947.103 178.891C947.103 178.891 950.684 174.58 952.039 171.376C952.039 171.376 950.805 180.123 955.127 173.962C955.127 173.962 965.488 160.286 956.975 160.431C956.975 160.431 930.081 160.431 917.866 166.23C917.866 166.23 916.685 162.808 914.028 162.741C913.932 162.736 913.835 162.75 913.744 162.782C913.652 162.814 913.568 162.864 913.496 162.928C913.424 162.993 913.366 163.071 913.324 163.158C913.283 163.246 913.259 163.34 913.254 163.437C913.225 164.142 913.53 165.423 915.311 167.346C915.311 167.346 912.146 166.182 912.165 167.878C912.184 167.849 911.923 168.796 916.032 169.033Z" fill="#2F2E41"/>
<path id="Vector_105" opacity="0.2" d="M935.153 177.944C936.319 177.405 937.408 176.714 938.391 175.89C939.371 175.078 940.254 174.157 941.024 173.145C941.222 172.899 941.387 172.628 941.576 172.372L941.847 171.98L942.074 171.55L942.558 170.729C942.694 170.439 942.834 170.154 942.979 169.869L943.192 169.439L943.366 168.994L943.72 168.1C943.952 167.501 944.112 166.877 944.339 166.264C944.237 166.902 944.131 167.544 943.986 168.197L943.705 169.134L943.565 169.617L943.381 170.072C942.908 171.3 942.266 172.456 941.474 173.507C940.675 174.555 939.724 175.479 938.652 176.247C938.119 176.628 937.56 176.97 936.978 177.272C936.395 177.558 935.783 177.783 935.153 177.944Z" fill="black"/>
<path id="Vector_106" opacity="0.2" d="M944.45 175.025C945.206 174.453 945.887 173.789 946.478 173.048C947.067 172.326 947.575 171.542 947.993 170.709C948.104 170.507 948.187 170.289 948.288 170.076C948.39 169.864 948.472 169.651 948.55 169.429L948.792 168.772L948.98 168.095C949.13 167.651 949.188 167.182 949.3 166.718C949.411 166.254 949.44 165.78 949.537 165.307C949.566 165.79 949.585 166.273 949.581 166.757C949.555 167.243 949.5 167.727 949.416 168.206C949.245 169.17 948.937 170.104 948.501 170.98C948.061 171.854 947.49 172.656 946.807 173.358C946.139 174.062 945.338 174.629 944.45 175.025Z" fill="black"/>
<path id="Vector_107" opacity="0.2" d="M952.455 169.951C952.562 169.347 952.654 168.757 952.741 168.168C952.828 167.578 952.895 166.993 952.939 166.404C952.983 165.814 953.031 165.225 953.05 164.63C953.07 164.036 953.075 163.437 953.104 162.823C953.495 163.99 953.633 165.227 953.51 166.452C953.456 167.064 953.343 167.669 953.171 168.259C953.014 168.854 952.773 169.424 952.455 169.951Z" fill="black"/>
<path id="Vector_108" d="M891.741 269.402C891.741 269.402 910.587 263.709 915.02 261.81C915.02 261.81 909.793 225.601 891.107 232.874C891.107 232.874 886.834 233.192 888.417 239.359C888.412 239.359 891.896 265.922 891.741 269.402Z" fill="#0071F2"/>
<path id="Vector_109" opacity="0.2" d="M891.741 269.402C891.741 269.402 910.587 263.709 915.02 261.81C915.02 261.81 909.793 225.601 891.107 232.874C891.107 232.874 886.834 233.192 888.417 239.359C888.412 239.359 891.896 265.922 891.741 269.402Z" fill="black"/>
<path id="Vector_110" d="M988.845 297.942C988.845 297.942 985.234 298.947 985.8 294.313L1006.77 235.565C1006.77 235.565 1008.04 227.833 1015.36 228.118L1085.87 228.259C1085.87 228.259 1090.43 228.041 1088.77 232.366L988.845 297.942Z" fill="#0071F2"/>
<path id="Vector_111" d="M1023.17 297.942H988.845C988.558 297.941 988.275 297.873 988.02 297.741C987.765 297.609 987.545 297.419 987.379 297.185C987.213 296.952 987.105 296.682 987.064 296.398C987.024 296.115 987.052 295.825 987.146 295.555L1008.7 234.057C1009.19 232.676 1010.09 231.48 1011.28 230.634C1012.48 229.788 1013.91 229.334 1015.38 229.336L1086.73 229.433C1087.08 229.434 1087.43 229.519 1087.74 229.681C1088.05 229.844 1088.32 230.079 1088.52 230.366C1088.72 230.654 1088.85 230.986 1088.9 231.334C1088.94 231.682 1088.9 232.036 1088.78 232.366L1065.9 295.588C1065.72 296.093 1065.39 296.531 1064.95 296.843C1064.51 297.154 1063.99 297.325 1063.45 297.333L1023.17 297.942Z" fill="#0071F2"/>
<path id="Vector_112" opacity="0.2" d="M1023.17 297.942H988.845C988.558 297.941 988.275 297.873 988.02 297.741C987.765 297.609 987.545 297.419 987.379 297.185C987.213 296.952 987.105 296.682 987.064 296.398C987.024 296.115 987.052 295.825 987.146 295.555L1008.7 234.057C1009.19 232.676 1010.09 231.48 1011.28 230.634C1012.48 229.788 1013.91 229.334 1015.38 229.336L1086.73 229.433C1087.08 229.434 1087.43 229.519 1087.74 229.681C1088.05 229.844 1088.32 230.079 1088.52 230.366C1088.72 230.654 1088.85 230.986 1088.9 231.334C1088.94 231.682 1088.9 232.036 1088.78 232.366L1065.9 295.588C1065.72 296.093 1065.39 296.531 1064.95 296.843C1064.51 297.154 1063.99 297.325 1063.45 297.333L1023.17 297.942Z" fill="black"/>
<path id="Vector_113" opacity="0.2" d="M1013.88 297.865L1023.17 257.654V297.942L1013.88 297.865Z" fill="black"/>
<path id="Vector_114" d="M1023.17 257.654L1023 301.672H1065.44L1064.95 257.983L1023.17 257.654Z" fill="#2F2E41"/>
<path id="Vector_115" opacity="0.75" d="M986.348 286.81C989.201 283.625 989.619 279.352 987.282 277.265C984.945 275.178 980.738 276.067 977.885 279.252C975.032 282.437 974.614 286.711 976.951 288.798C979.288 290.885 983.495 289.995 986.348 286.81Z" fill="#E6E7E8"/>
<path id="Vector_116" d="M884.153 284.803L866.343 285.063L865.694 273.591L884.797 273.722L884.153 284.803Z" fill="#0071F2"/>
<path id="Vector_117" d="M867.243 295.371L868.279 302.074L881.839 302.132L882.604 294.854L867.243 295.371Z" fill="#0071F2"/>
<path id="Vector_118" d="M843.5 301.334H1115.64C1115.91 301.334 1116.18 301.387 1116.42 301.489C1116.67 301.591 1116.9 301.741 1117.09 301.93C1117.27 302.119 1117.42 302.343 1117.53 302.59C1117.63 302.837 1117.68 303.101 1117.68 303.369V305.997H841.457V303.369C841.457 303.101 841.51 302.836 841.613 302.589C841.716 302.342 841.866 302.117 842.056 301.928C842.245 301.739 842.471 301.59 842.718 301.488C842.966 301.386 843.232 301.334 843.5 301.334Z" fill="#D1D3D4"/>
<path id="Vector_119" d="M884.797 273.722L865.694 273.591L866.599 269.083H883.766L884.797 273.722Z" fill="#0071F2"/>
<path id="Vector_120" d="M866.469 296.019L864.92 283H885.445L883.896 296.144L866.469 296.019Z" fill="#0071F2"/>
<path id="Vector_121" opacity="0.2" d="M866.469 296.019L864.92 283H885.445L883.896 296.144L866.469 296.019Z" fill="black"/>
<path id="Vector_122" d="M886.989 272.175H863.758V275.138H886.989V272.175Z" fill="#0071F2"/>
<path id="Vector_123" opacity="0.2" d="M886.989 272.175H863.758V275.138H886.989V272.175Z" fill="white"/>
</g>
<circle id="Ellipse 1" cx="951.5" cy="1280.5" r="951.5" fill="#338DF5"/>
</g>
</svg>
