<svg width="1903" height="2240" viewBox="0 0 1903 2240" fill="none" xmlns="http://www.w3.org/2000/svg">
<g id="bg-projects-mobile">
<circle id="Ellipse 1" cx="951.5" cy="1288.5" r="951.5" fill="#338DF5"/>
<g id="Cool Robot 1">
<g id="freepik--background-complete--inject-478">
<path id="Vector" d="M1133.81 249.403H774.949V249.584H1133.81V249.403Z" fill="#EBEBEB"/>
<path id="Vector_2" d="M1097.85 260.966H1074.08V261.147H1097.85V260.966Z" fill="#EBEBEB"/>
<path id="Vector_3" d="M1012.67 262.923H1006.43V263.103H1012.67V262.923Z" fill="#EBEBEB"/>
<path id="Vector_4" d="M1073.36 254.299H1059.59V254.479H1073.36V254.299Z" fill="#EBEBEB"/>
<path id="Vector_5" d="M843.599 255.505H812.6V255.685H843.599V255.505Z" fill="#EBEBEB"/>
<path id="Vector_6" d="M854.535 255.505H849.993V255.685H854.535V255.505Z" fill="#EBEBEB"/>
<path id="Vector_7" d="M936.542 258.538H869.306V258.718H936.542V258.538Z" fill="#EBEBEB"/>
<path id="Vector_8" d="M945.048 217.353H806.463C805.925 217.353 805.392 217.246 804.894 217.039C804.397 216.833 803.945 216.53 803.565 216.148C803.185 215.766 802.884 215.313 802.679 214.814C802.474 214.316 802.369 213.781 802.371 213.242V18.1964C802.381 17.1156 802.816 16.0824 803.583 15.3209C804.349 14.5594 805.384 14.1311 806.463 14.1289H945.048C946.135 14.13 947.177 14.5632 947.945 15.3331C948.714 16.103 949.145 17.1467 949.145 18.235V213.242C949.146 213.782 949.041 214.316 948.836 214.815C948.63 215.313 948.329 215.766 947.948 216.148C947.568 216.53 947.116 216.833 946.618 217.04C946.12 217.246 945.587 217.353 945.048 217.353ZM806.463 14.2748C805.429 14.2816 804.438 14.6976 803.709 15.4322C802.979 16.1668 802.569 17.1604 802.568 18.1964V213.242C802.569 214.282 802.981 215.278 803.715 216.014C804.448 216.75 805.442 217.165 806.48 217.168H945.065C946.104 217.165 947.099 216.75 947.833 216.014C948.567 215.279 948.98 214.282 948.982 213.242V18.1964C948.98 17.157 948.567 16.1609 947.833 15.4259C947.098 14.6909 946.104 14.2771 945.065 14.2748H806.463Z" fill="#EBEBEB"/>
<path id="Vector_9" d="M1100.3 217.353H961.705C961.167 217.352 960.633 217.245 960.136 217.038C959.639 216.832 959.187 216.529 958.807 216.147C958.426 215.765 958.125 215.312 957.919 214.814C957.713 214.316 957.608 213.781 957.608 213.242V18.1964C957.62 17.1152 958.056 16.082 958.823 15.3206C959.59 14.5593 960.625 14.1311 961.705 14.1289H1100.3C1101.38 14.1345 1102.41 14.5641 1103.17 15.3251C1103.94 16.0861 1104.37 17.1174 1104.38 18.1964V213.242C1104.38 214.329 1103.96 215.373 1103.19 216.144C1102.42 216.914 1101.38 217.349 1100.3 217.353ZM961.705 14.2748C960.667 14.2771 959.672 14.6909 958.938 15.4259C958.204 16.1609 957.791 17.157 957.788 18.1964V213.242C957.79 214.282 958.202 215.28 958.937 216.016C959.671 216.751 960.666 217.166 961.705 217.168H1100.3C1101.34 217.165 1102.33 216.75 1103.07 216.014C1103.8 215.279 1104.21 214.282 1104.22 213.242V18.1964C1104.21 17.157 1103.8 16.1609 1103.07 15.4259C1102.33 14.6909 1101.34 14.2771 1100.3 14.2748H961.705Z" fill="#EBEBEB"/>
<path id="Vector_10" d="M881.215 148.283V149.857C881.211 162.027 884.254 174.004 890.064 184.693L898.635 179.943C893.618 170.711 890.99 160.368 890.99 149.857V148.454L881.215 148.283Z" fill="#E6E6E6"/>
<path id="Vector_11" d="M951.695 222.282L951.905 212.414H951.63C942.557 212.207 933.641 210.001 925.515 205.955C917.389 201.908 910.252 196.12 904.613 189L897.002 195.222C903.531 203.461 911.791 210.159 921.197 214.842C930.603 219.524 940.923 222.074 951.425 222.313L951.695 222.282Z" fill="#E6E6E6"/>
<path id="Vector_12" d="M923.112 94.9378L918.398 86.3137C914.737 88.3512 911.258 90.7026 908.002 93.3417L914.126 101.018C916.942 98.738 919.949 96.704 923.112 94.9378Z" fill="#E6E6E6"/>
<path id="Vector_13" d="M983.084 204.661L987.798 213.281C991.445 211.234 994.907 208.87 998.143 206.219L992.006 198.56C989.213 200.847 986.228 202.888 983.084 204.661Z" fill="#E6E6E6"/>
<path id="Vector_14" d="M1007.4 119.587C1012.46 128.842 1015.11 139.219 1015.12 149.767V151.029L1024.88 151.2V149.741C1024.88 137.521 1021.81 125.496 1015.96 114.773L1007.4 119.587Z" fill="#E6E6E6"/>
<path id="Vector_15" d="M954.63 77.3679L954.472 80.6802L954.42 87.2148C963.473 87.4228 972.37 89.6191 980.482 93.6486C988.594 97.6782 995.723 103.442 1001.37 110.534L1008.97 104.347C1002.44 96.1408 994.184 89.4709 984.794 84.809C975.405 80.1471 965.108 77.6069 954.63 77.3679Z" fill="#E6E6E6"/>
<path id="Vector_16" d="M953.027 198.045C979.428 198.045 1000.83 176.453 1000.83 149.819C1000.83 123.184 979.428 101.593 953.027 101.593C926.627 101.593 905.225 123.184 905.225 149.819C905.225 176.453 926.627 198.045 953.027 198.045Z" fill="#E6E6E6"/>
<path id="Vector_17" d="M1043.23 133.124C1040.2 116.358 1032.6 100.757 1021.27 88.0386L1016.92 91.9945C1027.52 103.896 1034.63 118.495 1037.47 134.184L1043.23 133.124Z" fill="#E6E6E6"/>
<path id="Vector_18" d="M940.18 64.1914L939.323 58.3477C929.321 59.8611 919.644 63.0431 910.693 67.7612L913.397 73C921.769 68.5826 930.823 65.605 940.18 64.1914Z" fill="#E6E6E6"/>
<path id="Vector_19" d="M1044.5 143.207L1038.65 143.636C1038.79 145.666 1038.86 147.742 1038.87 149.797V151.78C1038.71 158.588 1037.77 165.356 1036.05 171.945L1041.72 173.456C1043.55 166.409 1044.56 159.174 1044.72 151.895V149.785C1044.72 147.596 1044.65 145.378 1044.5 143.207Z" fill="#E6E6E6"/>
<path id="Vector_20" d="M997.77 69.0527C994.835 67.3997 991.812 65.9087 988.715 64.5862L986.431 70.0267C989.332 71.2673 992.162 72.6697 994.907 74.2271L997.77 69.0527Z" fill="#E6E6E6"/>
<path id="Vector_21" d="M905.272 77.857L901.986 72.9399C887.921 82.457 876.746 95.6689 869.688 111.126L875.01 113.598C881.626 99.1264 892.097 86.7602 905.272 77.857Z" fill="#E6E6E6"/>
<path id="Vector_22" d="M861.362 147.742V150.668L867.224 150.625V147.922C867.275 145.657 867.417 143.374 867.652 141.126L861.82 140.534C861.563 142.877 861.417 145.327 861.362 147.742Z" fill="#E6E6E6"/>
<path id="Vector_23" d="M880.238 195.724L875.271 198.864C880.627 207.489 887.365 215.172 895.215 221.605L898.913 217.022C891.56 211 885.25 203.804 880.238 195.724Z" fill="#E6E6E6"/>
<path id="Vector_24" d="M951.103 236.411C935.258 236.062 919.825 231.295 906.537 222.647L903.357 227.616C917.553 236.85 934.037 241.941 950.962 242.32H953.057C962.939 242.321 972.756 240.709 982.12 237.548L980.264 231.941C970.874 235.104 961.008 236.617 951.103 236.411Z" fill="#E6E6E6"/>
<path id="Vector_25" d="M1005.16 218.618L1008.75 223.312C1011.42 221.252 1013.98 219.044 1016.4 216.7L1012.33 212.47C1010.05 214.652 1007.66 216.704 1005.16 218.618Z" fill="#E6E6E6"/>
<path id="Vector_26" d="M852.431 171.838H823.334V173.211H852.431V171.838Z" fill="#F0F0F0"/>
<path id="Vector_27" d="M852.431 174.726H823.334V176.099H852.431V174.726Z" fill="#F0F0F0"/>
<path id="Vector_28" d="M852.431 177.609H823.334V178.982H852.431V177.609Z" fill="#F0F0F0"/>
<path id="Vector_29" d="M852.423 180.496H818.633V181.869H852.423V180.496Z" fill="#F0F0F0"/>
<path id="Vector_30" d="M852.423 183.38H818.633V184.753H852.423V183.38Z" fill="#F0F0F0"/>
<path id="Vector_31" d="M852.423 186.267H818.633V187.64H852.423V186.267Z" fill="#F0F0F0"/>
<path id="Vector_32" d="M852.427 189.155H813.941V190.528H852.427V189.155Z" fill="#F0F0F0"/>
<path id="Vector_33" d="M852.427 192.038H813.941V193.411H852.427V192.038Z" fill="#F0F0F0"/>
<path id="Vector_34" d="M852.423 194.926H818.633V196.299H852.423V194.926Z" fill="#F0F0F0"/>
<path id="Vector_35" d="M852.427 197.809H813.941V199.182H852.427V197.809Z" fill="#F0F0F0"/>
<path id="Vector_36" d="M861.602 171.817H855.808V177.618H861.602V171.817Z" fill="#F0F0F0"/>
<path id="Vector_37" d="M1070.99 73.4377H1041.89V74.8107H1070.99V73.4377Z" fill="#F0F0F0"/>
<path id="Vector_38" d="M1070.99 70.5502H1041.89V71.9232H1070.99V70.5502Z" fill="#F0F0F0"/>
<path id="Vector_39" d="M1070.99 67.6669H1041.89V69.0399H1070.99V67.6669Z" fill="#F0F0F0"/>
<path id="Vector_40" d="M1075.67 64.7793H1041.88V66.1523H1075.67V64.7793Z" fill="#F0F0F0"/>
<path id="Vector_41" d="M1075.67 61.8917H1041.88V63.2647H1075.67V61.8917Z" fill="#F0F0F0"/>
<path id="Vector_42" d="M1075.67 59.0084H1041.88V60.3814H1075.67V59.0084Z" fill="#F0F0F0"/>
<path id="Vector_43" d="M1080.37 56.1208H1041.88V57.4938H1080.37V56.1208Z" fill="#F0F0F0"/>
<path id="Vector_44" d="M1038.5 56.1038H1032.71V61.9046H1038.5V56.1038Z" fill="#F0F0F0"/>
<path id="Vector_45" d="M1085.42 177.622H1056.33V178.995H1085.42V177.622Z" fill="#F0F0F0"/>
<path id="Vector_46" d="M1085.42 180.509H1056.33V181.882H1085.42V180.509Z" fill="#F0F0F0"/>
<path id="Vector_47" d="M1085.42 183.393H1056.33V184.766H1085.42V183.393Z" fill="#F0F0F0"/>
<path id="Vector_48" d="M1090.12 186.289H1056.33V187.662H1090.12V186.289Z" fill="#F0F0F0"/>
<path id="Vector_49" d="M1090.12 189.176H1056.33V190.549H1090.12V189.176Z" fill="#F0F0F0"/>
<path id="Vector_50" d="M1094.81 192.06H1056.33V193.433H1094.81V192.06Z" fill="#F0F0F0"/>
<path id="Vector_51" d="M1094.81 194.947H1056.33V196.32H1094.81V194.947Z" fill="#F0F0F0"/>
<path id="Vector_52" d="M1090.12 197.83H1056.33V199.203H1090.12V197.83Z" fill="#F0F0F0"/>
<path id="Vector_53" d="M1094.81 200.718H1056.33V202.091H1094.81V200.718Z" fill="#F0F0F0"/>
<path id="Vector_54" d="M1094.81 203.606H1056.33V204.979H1094.81V203.606Z" fill="#F0F0F0"/>
<path id="Vector_55" d="M1085.42 206.489H1056.33V207.862H1085.42V206.489Z" fill="#F0F0F0"/>
<path id="Vector_56" d="M1085.42 209.376H1056.33V210.749H1085.42V209.376Z" fill="#F0F0F0"/>
<path id="Vector_57" d="M1085.42 212.26H1056.33V213.633H1085.42V212.26Z" fill="#F0F0F0"/>
<path id="Vector_58" d="M1052.95 177.6H1047.16V183.401H1052.95V177.6Z" fill="#F0F0F0"/>
<path id="Vector_59" d="M863.299 78.462H834.202V79.835H863.299V78.462Z" fill="#F0F0F0"/>
<path id="Vector_60" d="M863.299 75.5787H834.202V76.9517H863.299V75.5787Z" fill="#F0F0F0"/>
<path id="Vector_61" d="M863.299 72.6912H834.202V74.0641H863.299V72.6912Z" fill="#F0F0F0"/>
<path id="Vector_62" d="M863.298 69.8036H829.509V71.1766H863.298V69.8036Z" fill="#F0F0F0"/>
<path id="Vector_63" d="M863.298 66.9203H829.509V68.2933H863.298V66.9203Z" fill="#F0F0F0"/>
<path id="Vector_64" d="M863.298 64.0327H829.509V65.4057H863.298V64.0327Z" fill="#F0F0F0"/>
<path id="Vector_65" d="M863.303 61.1494H824.817V62.5224H863.303V61.1494Z" fill="#F0F0F0"/>
<path id="Vector_66" d="M863.303 58.2618H824.817V59.6348H863.303V58.2618Z" fill="#F0F0F0"/>
<path id="Vector_67" d="M863.298 55.37H829.509V56.743H863.298V55.37Z" fill="#F0F0F0"/>
<path id="Vector_68" d="M872.473 55.3486H866.68V61.1495H872.473V55.3486Z" fill="#F0F0F0"/>
</g>
<g id="freepik--Machine--inject-478">
<path id="Vector_69" d="M1036.22 254.951H877.551V274.525H1036.22V254.951Z" fill="#263238"/>
<path id="Vector_70" opacity="0.5" d="M1036.22 254.951H877.551V274.525H1036.22V254.951Z" fill="white"/>
<path id="Vector_71" opacity="0.2" d="M1036.22 274.529H877.551L888.324 254.951L895.258 266.887H1013.07L1019.41 254.951L1036.22 274.529Z" fill="black"/>
<path id="Vector_72" d="M877.483 187.893H850.567L822.49 274.713H891.521L877.483 187.893Z" fill="#263238"/>
<path id="Vector_73" opacity="0.5" d="M877.483 187.893H850.567L822.49 274.713H891.521L877.483 187.893Z" fill="white"/>
<path id="Vector_74" opacity="0.2" d="M850.567 187.893L852.29 274.34L891.521 274.713L877.483 187.893H850.567Z" fill="white"/>
<path id="Vector_75" opacity="0.3" d="M889.044 272.581L854.355 272.251L854.261 267.814L854.227 266.025L854.154 262.275L854.12 260.486L854.047 256.736L854.012 254.951L853.931 251.192L853.897 249.412L853.824 245.662L853.79 243.873L853.717 240.118L853.682 238.329L853.601 234.579L853.567 232.79L853.494 229.04L853.46 227.255L853.387 223.505L853.352 221.716L853.271 217.966L853.237 216.181L853.164 212.427L853.121 210.638L853.057 206.884L853.023 205.103L852.941 201.344L852.907 199.564L852.834 195.81L852.8 194.02L852.718 190.004H875.687L889.044 272.581Z" fill="black"/>
<path id="Vector_76" opacity="0.2" d="M874.839 194.02V195.81H852.834L852.8 194.02H874.839Z" fill="white"/>
<path id="Vector_77" opacity="0.2" d="M875.743 199.564V201.344H852.941L852.907 199.564H875.743Z" fill="white"/>
<path id="Vector_78" opacity="0.2" d="M876.647 205.103V206.884H853.057L853.022 205.103H876.647Z" fill="white"/>
<path id="Vector_79" opacity="0.2" d="M877.551 210.638V212.427H853.164L853.121 210.638H877.551Z" fill="white"/>
<path id="Vector_80" opacity="0.2" d="M878.455 216.181V217.966H853.271L853.237 216.181H878.455Z" fill="white"/>
<path id="Vector_81" opacity="0.2" d="M879.359 221.716V223.505H853.387L853.352 221.716H879.359Z" fill="white"/>
<path id="Vector_82" opacity="0.2" d="M880.264 227.255V229.04H853.494L853.459 227.255H880.264Z" fill="white"/>
<path id="Vector_83" opacity="0.2" d="M881.164 232.79V234.579H853.601L853.567 232.79H881.164Z" fill="white"/>
<path id="Vector_84" opacity="0.2" d="M882.068 238.329V240.119H853.717L853.682 238.329H882.068Z" fill="white"/>
<path id="Vector_85" opacity="0.2" d="M882.981 243.873V245.662H853.824L853.79 243.873H882.981Z" fill="white"/>
<path id="Vector_86" opacity="0.2" d="M883.885 249.412V251.192H853.931L853.896 249.412H883.885Z" fill="white"/>
<path id="Vector_87" opacity="0.2" d="M884.789 254.951V256.736H854.046L854.012 254.951H884.789Z" fill="white"/>
<path id="Vector_88" opacity="0.2" d="M885.693 260.486V262.275H854.154L854.119 260.486H885.693Z" fill="white"/>
<path id="Vector_89" opacity="0.2" d="M886.597 266.025V267.814H854.261L854.227 266.025H886.597Z" fill="white"/>
<path id="Vector_90" d="M1030.97 187.893H1057.89L1085.96 274.713H1016.93L1030.97 187.893Z" fill="#263238"/>
<path id="Vector_91" opacity="0.5" d="M1030.97 187.893H1057.89L1085.96 274.713H1016.93L1030.97 187.893Z" fill="white"/>
<path id="Vector_92" opacity="0.2" d="M1057.89 187.893L1056.16 274.34L1016.93 274.713L1030.97 187.893H1057.89Z" fill="white"/>
<path id="Vector_93" opacity="0.3" d="M1019.41 272.581L1054.1 272.251L1054.19 267.814L1054.23 266.025L1054.3 262.275L1054.33 260.486L1054.41 256.736L1054.44 254.951L1054.52 251.192L1054.56 249.412L1054.63 245.662L1054.66 243.873L1054.74 240.118L1054.77 238.329L1054.85 234.579L1054.89 232.79L1054.96 229.04L1054.99 227.255L1055.07 223.505L1055.1 221.716L1055.18 217.966L1055.22 216.181L1055.29 212.427L1055.32 210.638L1055.4 206.884L1055.43 205.103L1055.51 201.344L1055.55 199.564L1055.62 195.81L1055.65 194.02L1055.73 190.004H1032.77L1019.41 272.581Z" fill="black"/>
<path id="Vector_94" opacity="0.2" d="M1033.61 194.02V195.81H1055.62L1055.65 194.02H1033.61Z" fill="white"/>
<path id="Vector_95" opacity="0.2" d="M1032.71 199.564V201.344H1055.51L1055.55 199.564H1032.71Z" fill="white"/>
<path id="Vector_96" opacity="0.2" d="M1031.8 205.103V206.884H1055.4L1055.43 205.103H1031.8Z" fill="white"/>
<path id="Vector_97" opacity="0.2" d="M1030.9 210.638V212.427H1055.29L1055.32 210.638H1030.9Z" fill="white"/>
<path id="Vector_98" opacity="0.2" d="M1029.99 216.181V217.966H1055.18L1055.22 216.181H1029.99Z" fill="white"/>
<path id="Vector_99" opacity="0.2" d="M1029.09 221.716V223.505H1055.07L1055.1 221.716H1029.09Z" fill="white"/>
<path id="Vector_100" opacity="0.2" d="M1028.19 227.255V229.04H1054.96L1054.99 227.255H1028.19Z" fill="white"/>
<path id="Vector_101" opacity="0.2" d="M1027.29 232.79V234.579H1054.85L1054.89 232.79H1027.29Z" fill="white"/>
<path id="Vector_102" opacity="0.2" d="M1026.39 238.329V240.119H1054.74L1054.77 238.329H1026.39Z" fill="white"/>
<path id="Vector_103" opacity="0.2" d="M1025.47 243.873V245.662H1054.63L1054.67 243.873H1025.47Z" fill="white"/>
<path id="Vector_104" opacity="0.2" d="M1024.57 249.412V251.192H1054.52L1054.56 249.412H1024.57Z" fill="white"/>
<path id="Vector_105" opacity="0.2" d="M1023.67 254.951V256.736H1054.41L1054.44 254.951H1023.67Z" fill="white"/>
<path id="Vector_106" opacity="0.2" d="M1022.76 260.486V262.275H1054.3L1054.33 260.486H1022.76Z" fill="white"/>
<path id="Vector_107" opacity="0.2" d="M1021.86 266.025V267.814H1054.19L1054.23 266.025H1021.86Z" fill="white"/>
</g>
<path id="Vector_108" d="M1015.79 70.1426C1015.79 70.1426 1012.18 75.6646 1012.49 76.0378C1012.8 76.4111 1014.23 78.565 1014.23 78.565C1013.5 78.369 1012.72 78.3706 1011.99 78.5695C1011.26 78.7684 1010.59 79.1576 1010.06 79.6977C1008.08 81.5727 1008.16 83.3061 1008.16 83.3061L1010.07 84.6276L1011.72 83.2289L1011.45 87.4251L1013.21 89.7334C1013.21 89.7334 1008.39 90.5915 1007.21 91.0206C1006.04 91.4496 1002.99 95.6029 1002.83 96.3538C1002.66 97.1046 1002.02 100.704 1002.77 101.241C1002.82 101.27 1002.86 101.29 1002.91 101.299C1002.96 101.309 1003.02 101.308 1003.07 101.297C1004.26 101.073 1007.35 97.2591 1008.24 96.903C1008.24 96.903 1007.81 102.013 1008.34 102.159C1008.87 102.305 1009.8 101.515 1008.86 102.309L1005.99 104.75C1005.99 104.75 1005.18 105.437 1006.38 107.788C1007.59 110.139 1008.15 109.646 1008.07 110.71C1007.98 111.774 1008.07 114.46 1008.07 114.46C1008.07 114.46 979.24 130.614 973.875 130.816C968.51 131.017 958.397 127.036 958.397 127.036C958.397 127.036 958.77 126.238 959.374 125.024C961.264 121.201 965.343 113.25 966.659 113.194C968.373 113.126 975.276 109.123 980.312 106.196C985.347 103.27 993.956 91.4925 995.567 88.4934C997.178 85.4943 1005.99 76.4412 1005.99 76.4412L1015.79 70.1426Z" fill="#0071F2"/>
<path id="Vector_109" opacity="0.2" d="M1008.85 102.331L1005.98 104.768C1005.98 104.768 1005.17 105.454 1006.37 107.805C1007.57 110.157 1008.14 109.663 1008.05 110.727C1007.96 111.791 1008.05 114.477 1008.05 114.477C1008.05 114.477 979.228 130.631 973.862 130.837C968.497 131.043 958.384 127.053 958.384 127.053C958.384 127.053 958.757 126.255 959.361 125.045C959.361 125.045 969.886 115.846 972.86 114.988C975.834 114.13 988.488 111.727 990.815 110.504C991.98 109.903 997.504 105.518 1002.73 101.279C1002.77 101.309 1002.82 101.33 1002.87 101.339C1002.92 101.349 1002.97 101.348 1003.02 101.335C1004.21 101.116 1007.3 97.2976 1008.19 96.9415C1008.19 96.9415 1007.76 102.052 1008.29 102.197C1008.83 102.343 1009.77 101.545 1008.85 102.331Z" fill="black"/>
<path id="Vector_110" d="M936.799 223.754H926.438V240.243H936.799V223.754Z" fill="#2F2E41"/>
<path id="Vector_111" d="M975.152 239.96H985.514V223.471H975.152V239.96Z" fill="#2F2E41"/>
<path id="Vector_112" d="M973.142 186.014H939.923V191.772H973.142V186.014Z" fill="#2F2E41"/>
<path id="Vector_113" opacity="0.2" d="M973.142 186.014H939.923V191.772H973.142V186.014Z" fill="black"/>
<path id="Vector_114" d="M951.498 179.707H960.964V190.571C960.964 191.696 960.517 192.776 959.722 193.571C958.928 194.367 957.85 194.814 956.726 194.814H955.74C954.616 194.814 953.538 194.367 952.743 193.571C951.948 192.776 951.502 191.696 951.502 190.571V179.707H951.498Z" fill="#2F2E41"/>
<path id="Vector_115" d="M899.475 177.841H907.994V160.571H899.475V177.841Z" fill="#2F2E41"/>
<path id="Vector_116" d="M917.074 126.675H910.595V149.059H917.074V126.675Z" fill="#2F2E41"/>
<path id="Vector_117" d="M895.378 116.961V163.132H911.418V122.87L895.378 116.961Z" fill="#0071F2"/>
<path id="Vector_118" d="M895.378 201.675L909.202 208.78V169.208H895.378V201.675Z" fill="#0071F2"/>
<path id="Vector_119" d="M1012.39 160.575H1003.87V177.845H1012.39V160.575Z" fill="#2F2E41"/>
<path id="Vector_120" d="M1016.49 201.675L1002.67 208.78V169.208H1016.49V201.675Z" fill="#0071F2"/>
<path id="Vector_121" d="M1002.25 126.675H995.773V149.059H1002.25V126.675Z" fill="#2F2E41"/>
<path id="Vector_122" d="M1016.49 116.961V163.132H1000.45V122.87L1016.49 116.961Z" fill="#0071F2"/>
<path id="Vector_123" d="M1002.67 215.13V208.78L1013.59 203.168V211.436L1010.24 215.13H1002.67Z" fill="#2F2E41"/>
<path id="Vector_124" opacity="0.2" d="M1002.67 208.78V212.002L1013.59 203.168L1002.67 208.78Z" fill="black"/>
<path id="Vector_125" d="M942.996 171.529H968.904V177.463C968.904 178.942 968.317 180.361 967.273 181.407C966.228 182.453 964.811 183.041 963.333 183.041H948.584C947.106 183.041 945.689 182.453 944.644 181.407C943.6 180.361 943.013 178.942 943.013 177.463V171.529H942.996Z" fill="#2F2E41"/>
<path id="Vector_126" d="M940.3 232.661L923.172 223.943V182.247H940.3V232.661Z" fill="#0071F2"/>
<path id="Vector_127" d="M940.3 240.239V282.029H932.964L914.087 273.216L914.79 270.007L923.172 231.996L940.3 240.239Z" fill="#0071F2"/>
<path id="Vector_128" d="M932.964 282.029H902.753L910.406 271.989H930.778L932.964 282.029Z" fill="#2F2E41"/>
<path id="Vector_129" d="M971.651 232.374L988.779 223.66V181.964H971.651V232.374Z" fill="#0071F2"/>
<path id="Vector_130" d="M971.651 239.955V281.742H978.983L997.864 272.933L997.157 269.724L988.779 231.713L971.651 239.955Z" fill="#0071F2"/>
<path id="Vector_131" d="M978.983 281.742H1009.19L1001.55 271.706H981.173L978.983 281.742Z" fill="#2F2E41"/>
<path id="Vector_132" d="M983.466 170.083L955.954 175.743L927.192 169.967V127.353H983.466V170.083Z" fill="#0071F2"/>
<path id="Vector_133" opacity="0.2" d="M927.192 127.353H931.43L936.139 163.51L955.329 173.623L975.932 163.51L980.522 127.353H983.466V170.083L955.954 175.743L927.192 169.967V127.353Z" fill="black"/>
<path id="Vector_134" d="M962.116 130.202L955.98 134.343L949.535 130.635V123.989H962.116V130.202Z" fill="#2F2E41"/>
<path id="Vector_135" d="M969.084 125.422H943.158L939.837 122.093V111.826L943.158 108.5H968.707L972.127 112.113V122.192L969.084 125.422Z" fill="#0071F2"/>
<path id="Vector_136" d="M965.917 112.984H946.008C944.581 112.984 943.424 114.142 943.424 115.571V116.176C943.424 117.605 944.581 118.763 946.008 118.763H965.917C967.344 118.763 968.501 117.605 968.501 116.176V115.571C968.501 114.142 967.344 112.984 965.917 112.984Z" fill="#2F2E41"/>
<path id="Vector_137" d="M947.122 127.353L952.033 136.415L955.959 163.51L959.618 136.415L964.786 127.353L955.98 132.789L947.122 127.353Z" fill="#2F2E41"/>
<path id="Vector_138" opacity="0.2" d="M947.122 127.353L952.033 136.415L955.959 163.51L959.618 136.415L964.786 127.353L955.98 132.789L947.122 127.353Z" fill="black"/>
<path id="Vector_139" d="M996.887 118.763L982.052 122.23V174.683L996.887 170.675V118.763Z" fill="#0071F2"/>
<path id="Vector_140" opacity="0.2" d="M1016.49 122.166V147.193C1013.22 147.132 1010.1 145.787 1007.8 143.447C1005.51 141.107 1004.22 137.959 1004.22 134.679C1004.22 131.4 1005.51 128.252 1007.8 125.912C1010.1 123.572 1013.22 122.227 1016.49 122.166Z" fill="black"/>
<path id="Vector_141" d="M1016.59 144.069C1021.77 144.069 1025.97 139.866 1025.97 134.682C1025.97 129.497 1021.77 125.294 1016.59 125.294C1011.42 125.294 1007.22 129.497 1007.22 134.682C1007.22 139.866 1011.42 144.069 1016.59 144.069Z" fill="#2F2E41"/>
<path id="Vector_142" opacity="0.2" d="M1016.59 136.93C1017.83 136.93 1018.84 135.923 1018.84 134.682C1018.84 133.44 1017.83 132.433 1016.59 132.433C1015.35 132.433 1014.35 133.44 1014.35 134.682C1014.35 135.923 1015.35 136.93 1016.59 136.93Z" fill="black"/>
<path id="Vector_143" d="M915.064 118.763L929.9 122.23V174.683L915.064 170.675V118.763Z" fill="#0071F2"/>
<path id="Vector_144" d="M909.202 215.13V208.78L898.283 203.168V211.436L901.63 215.13H909.202Z" fill="#2F2E41"/>
<path id="Vector_145" opacity="0.2" d="M909.202 208.78V212.002L898.283 203.168L909.202 208.78Z" fill="black"/>
<path id="Vector_146" opacity="0.2" d="M895.378 122.166V147.197C898.693 147.197 901.873 145.879 904.217 143.531C906.561 141.184 907.878 138.001 907.878 134.682C907.878 131.362 906.561 128.179 904.217 125.832C901.873 123.484 898.693 122.166 895.378 122.166Z" fill="black"/>
<path id="Vector_147" d="M895.275 144.069C900.453 144.069 904.651 139.866 904.651 134.682C904.651 129.497 900.453 125.294 895.275 125.294C890.097 125.294 885.899 129.497 885.899 134.682C885.899 139.866 890.097 144.069 895.275 144.069Z" fill="#2F2E41"/>
<path id="Vector_148" opacity="0.2" d="M895.275 136.93C896.515 136.93 897.52 135.923 897.52 134.682C897.52 133.44 896.515 132.433 895.275 132.433C894.035 132.433 893.03 133.44 893.03 134.682C893.03 135.923 894.035 136.93 895.275 136.93Z" fill="black"/>
<path id="Vector_149" opacity="0.2" d="M940.3 240.406V282.025H932.964L914.083 273.212L914.79 270.007H934.245L940.266 240.402L940.3 240.406Z" fill="black"/>
<path id="Vector_150" opacity="0.2" d="M971.651 240.119V281.737H978.983L997.864 272.929L997.157 269.719H977.706L971.681 240.114L971.651 240.119Z" fill="black"/>
</g>
</g>
</svg>
