<svg width="3129" height="1903" viewBox="0 0 3129 1903" fill="none" xmlns="http://www.w3.org/2000/svg">
<g id="bg-projects">
<circle id="Ellipse 1" cx="951.5" cy="951.5" r="951.5" fill="#338DF5"/>
<g id="robot">
<g id="freepik--background-complete--inject-478">
<path id="Vector" d="M3099.93 1275.98H1649.01V1276.7H3099.93V1275.98Z" fill="#EBEBEB"/>
<path id="Vector_2" d="M2954.53 1322.66H2858.42V1323.39H2954.53V1322.66Z" fill="#EBEBEB"/>
<path id="Vector_3" d="M2610.14 1330.56H2584.93V1331.29H2610.14V1330.56Z" fill="#EBEBEB"/>
<path id="Vector_4" d="M2855.53 1295.74H2799.84V1296.47H2855.53V1295.74Z" fill="#EBEBEB"/>
<path id="Vector_5" d="M1926.57 1300.61H1801.24V1301.34H1926.57V1300.61Z" fill="#EBEBEB"/>
<path id="Vector_6" d="M1970.79 1300.61H1952.42V1301.34H1970.79V1300.61Z" fill="#EBEBEB"/>
<path id="Vector_7" d="M2302.35 1312.86H2030.51V1313.59H2302.35V1312.86Z" fill="#EBEBEB"/>
<path id="Vector_8" d="M2336.74 1146.57H1776.43C1774.25 1146.57 1772.09 1146.14 1770.08 1145.31C1768.07 1144.47 1766.24 1143.25 1764.71 1141.71C1763.17 1140.16 1761.95 1138.33 1761.12 1136.32C1760.3 1134.31 1759.87 1132.15 1759.88 1129.97V342.469C1759.92 338.105 1761.68 333.933 1764.78 330.859C1767.88 327.784 1772.06 326.055 1776.43 326.046H2336.74C2341.14 326.051 2345.35 327.799 2348.46 330.908C2351.56 334.017 2353.31 338.231 2353.31 342.625V1129.97C2353.31 1132.15 2352.89 1134.31 2352.05 1136.32C2351.22 1138.34 2350.01 1140.17 2348.47 1141.71C2346.93 1143.25 2345.1 1144.47 2343.09 1145.31C2341.08 1146.14 2338.92 1146.57 2336.74 1146.57ZM1776.43 326.635C1772.24 326.663 1768.24 328.342 1765.29 331.308C1762.34 334.274 1760.68 338.286 1760.68 342.469V1129.97C1760.68 1134.17 1762.35 1138.2 1765.31 1141.17C1768.28 1144.14 1772.3 1145.81 1776.49 1145.83H2336.81C2341.01 1145.81 2345.03 1144.14 2348 1141.17C2350.97 1138.2 2352.64 1134.17 2352.65 1129.97V342.469C2352.64 338.272 2350.97 334.25 2348 331.283C2345.03 328.315 2341.01 326.644 2336.81 326.635H1776.43Z" fill="#EBEBEB"/>
<path id="Vector_9" d="M2964.44 1146.57H2404.09C2401.91 1146.57 2399.75 1146.14 2397.74 1145.3C2395.73 1144.47 2393.91 1143.24 2392.37 1141.7C2390.83 1140.16 2389.61 1138.33 2388.78 1136.32C2387.95 1134.31 2387.52 1132.15 2387.52 1129.97V342.469C2387.57 338.103 2389.33 333.932 2392.43 330.858C2395.53 327.784 2399.72 326.055 2404.09 326.046H2964.44C2968.8 326.069 2972.97 327.803 2976.06 330.876C2979.15 333.948 2980.91 338.112 2980.95 342.469V1129.97C2980.96 1134.36 2979.23 1138.58 2976.13 1141.69C2973.03 1144.8 2968.83 1146.56 2964.44 1146.57ZM2404.09 326.635C2399.89 326.644 2395.87 328.315 2392.9 331.283C2389.93 334.25 2388.26 338.272 2388.25 342.469V1129.97C2388.26 1134.17 2389.93 1138.2 2392.89 1141.17C2395.86 1144.14 2399.89 1145.82 2404.09 1145.83H2964.44C2968.64 1145.81 2972.66 1144.14 2975.63 1141.17C2978.6 1138.2 2980.27 1134.17 2980.28 1129.97V342.469C2980.27 338.272 2978.59 334.25 2975.63 331.283C2972.66 328.315 2968.64 326.644 2964.44 326.635H2404.09Z" fill="#EBEBEB"/>
<path id="Vector_10" d="M2078.66 867.698V874.056C2078.64 923.191 2090.94 971.547 2114.43 1014.7L2149.09 995.528C2128.8 958.252 2118.18 916.491 2118.18 874.056V868.391L2078.66 867.698Z" fill="#E6E6E6"/>
<path id="Vector_11" d="M2363.61 1166.48L2364.46 1126.63H2363.35C2326.67 1125.79 2290.62 1116.89 2257.77 1100.55C2224.91 1084.21 2196.06 1060.84 2173.26 1032.1L2142.49 1057.22C2168.88 1090.48 2202.28 1117.53 2240.31 1136.43C2278.34 1155.34 2320.06 1165.63 2362.52 1166.6L2363.61 1166.48Z" fill="#E6E6E6"/>
<path id="Vector_12" d="M2248.05 652.316L2228.99 617.496C2214.19 625.722 2200.12 635.216 2186.96 645.871L2211.72 676.863C2223.11 667.659 2235.26 659.447 2248.05 652.316Z" fill="#E6E6E6"/>
<path id="Vector_13" d="M2490.53 1095.33L2509.58 1130.13C2524.33 1121.86 2538.33 1112.32 2551.41 1101.62L2526.6 1070.69C2515.31 1079.93 2503.24 1088.17 2490.53 1095.33Z" fill="#E6E6E6"/>
<path id="Vector_14" d="M2588.85 751.839C2609.29 789.205 2620.01 831.104 2620.04 873.692V878.785L2659.5 879.478V873.588C2659.5 824.247 2647.1 775.697 2623.43 732.402L2588.85 751.839Z" fill="#E6E6E6"/>
<path id="Vector_15" d="M2375.48 581.376L2374.84 594.75L2374.63 621.133C2411.24 621.973 2447.21 630.841 2480.01 647.11C2512.8 663.38 2541.63 686.653 2564.44 715.286L2595.17 690.306C2568.77 657.172 2535.4 630.243 2497.44 611.42C2459.48 592.597 2417.85 582.341 2375.48 581.376Z" fill="#E6E6E6"/>
<path id="Vector_16" d="M2369 1068.62C2475.74 1068.62 2562.27 981.438 2562.27 873.9C2562.27 766.361 2475.74 679.184 2369 679.184C2262.26 679.184 2175.73 766.361 2175.73 873.9C2175.73 981.438 2262.26 1068.62 2369 1068.62Z" fill="#E6E6E6"/>
<path id="Vector_17" d="M2733.71 806.494C2721.44 738.802 2690.72 675.811 2644.93 624.46L2627.33 640.432C2670.18 688.484 2698.92 747.43 2710.41 810.773L2733.71 806.494Z" fill="#E6E6E6"/>
<path id="Vector_18" d="M2317.06 528.176L2313.6 504.582C2273.16 510.692 2234.03 523.539 2197.84 542.589L2208.77 563.741C2242.62 545.906 2279.23 533.883 2317.06 528.176Z" fill="#E6E6E6"/>
<path id="Vector_19" d="M2738.82 847.204L2715.19 848.937C2715.74 857.131 2716.04 865.515 2716.06 873.813V881.817C2715.45 909.306 2711.63 936.631 2704.69 963.237L2727.61 969.335C2735.01 940.885 2739.08 911.673 2739.74 882.284V873.761C2739.74 864.926 2739.43 855.97 2738.82 847.204Z" fill="#E6E6E6"/>
<path id="Vector_20" d="M2549.9 547.803C2538.04 541.13 2525.82 535.109 2513.29 529.77L2504.06 551.736C2515.79 556.745 2527.23 562.407 2538.33 568.696L2549.9 547.803Z" fill="#E6E6E6"/>
<path id="Vector_21" d="M2175.92 583.351L2162.63 563.499C2105.77 601.924 2060.59 655.268 2032.05 717.677L2053.57 727.655C2080.32 669.227 2122.65 619.299 2175.92 583.351Z" fill="#E6E6E6"/>
<path id="Vector_22" d="M1998.39 865.515V877.33L2022.09 877.157V866.243C2022.3 857.096 2022.87 847.88 2023.82 838.803L2000.24 836.412C1999.2 845.87 1998.61 855.762 1998.39 865.515Z" fill="#E6E6E6"/>
<path id="Vector_23" d="M2074.71 1059.24L2054.63 1071.92C2076.28 1106.75 2103.52 1137.77 2135.26 1163.74L2150.21 1145.24C2120.48 1120.92 2094.97 1091.87 2074.71 1059.24Z" fill="#E6E6E6"/>
<path id="Vector_24" d="M2361.22 1223.52C2297.16 1222.11 2234.76 1202.86 2181.03 1167.95L2168.18 1188.01C2225.57 1225.29 2292.22 1245.85 2360.65 1247.38H2369.12C2409.08 1247.38 2448.77 1240.87 2486.63 1228.11L2479.13 1205.47C2441.16 1218.24 2401.27 1224.35 2361.22 1223.52Z" fill="#E6E6E6"/>
<path id="Vector_25" d="M2579.79 1151.68L2594.31 1170.63C2605.1 1162.31 2615.43 1153.4 2625.23 1143.94L2608.76 1126.86C2599.57 1135.67 2589.9 1143.95 2579.79 1151.68Z" fill="#E6E6E6"/>
<path id="Vector_26" d="M1962.28 962.804H1844.64V968.347H1962.28V962.804Z" fill="#F0F0F0"/>
<path id="Vector_27" d="M1962.28 974.462H1844.64V980.006H1962.28V974.462Z" fill="#F0F0F0"/>
<path id="Vector_28" d="M1962.28 986.104H1844.64V991.647H1962.28V986.104Z" fill="#F0F0F0"/>
<path id="Vector_29" d="M1962.24 997.762H1825.63V1003.31H1962.24V997.762Z" fill="#F0F0F0"/>
<path id="Vector_30" d="M1962.24 1009.4H1825.63V1014.95H1962.24V1009.4Z" fill="#F0F0F0"/>
<path id="Vector_31" d="M1962.24 1021.06H1825.63V1026.61H1962.24V1021.06Z" fill="#F0F0F0"/>
<path id="Vector_32" d="M1962.26 1032.72H1806.66V1038.26H1962.26V1032.72Z" fill="#F0F0F0"/>
<path id="Vector_33" d="M1962.26 1044.36H1806.66V1049.91H1962.26V1044.36Z" fill="#F0F0F0"/>
<path id="Vector_34" d="M1962.24 1056.02H1825.63V1061.56H1962.24V1056.02Z" fill="#F0F0F0"/>
<path id="Vector_35" d="M1962.26 1067.66H1806.66V1073.21H1962.26V1067.66Z" fill="#F0F0F0"/>
<path id="Vector_36" d="M1999.36 962.717H1975.93V986.138H1999.36V962.717Z" fill="#F0F0F0"/>
<path id="Vector_37" d="M2845.93 565.508H2728.29V571.052H2845.93V565.508Z" fill="#F0F0F0"/>
<path id="Vector_38" d="M2845.93 553.849H2728.29V559.393H2845.93V553.849Z" fill="#F0F0F0"/>
<path id="Vector_39" d="M2845.93 542.208H2728.29V547.752H2845.93V542.208Z" fill="#F0F0F0"/>
<path id="Vector_40" d="M2864.87 530.549H2728.25V536.093H2864.87V530.549Z" fill="#F0F0F0"/>
<path id="Vector_41" d="M2864.87 518.891H2728.25V524.434H2864.87V518.891Z" fill="#F0F0F0"/>
<path id="Vector_42" d="M2864.87 507.249H2728.25V512.793H2864.87V507.249Z" fill="#F0F0F0"/>
<path id="Vector_43" d="M2883.86 495.591H2728.25V501.134H2883.86V495.591Z" fill="#F0F0F0"/>
<path id="Vector_44" d="M2714.58 495.521H2691.16V518.943H2714.58V495.521Z" fill="#F0F0F0"/>
<path id="Vector_45" d="M2904.3 986.156H2786.66V991.699H2904.3V986.156Z" fill="#F0F0F0"/>
<path id="Vector_46" d="M2904.3 997.814H2786.66V1003.36H2904.3V997.814Z" fill="#F0F0F0"/>
<path id="Vector_47" d="M2904.3 1009.46H2786.66V1015H2904.3V1009.46Z" fill="#F0F0F0"/>
<path id="Vector_48" d="M2923.27 1021.15H2786.66V1026.69H2923.27V1021.15Z" fill="#F0F0F0"/>
<path id="Vector_49" d="M2923.27 1032.81H2786.66V1038.35H2923.27V1032.81Z" fill="#F0F0F0"/>
<path id="Vector_50" d="M2942.26 1044.45H2786.66V1049.99H2942.26V1044.45Z" fill="#F0F0F0"/>
<path id="Vector_51" d="M2942.26 1056.11H2786.66V1061.65H2942.26V1056.11Z" fill="#F0F0F0"/>
<path id="Vector_52" d="M2923.27 1067.75H2786.66V1073.29H2923.27V1067.75Z" fill="#F0F0F0"/>
<path id="Vector_53" d="M2942.26 1079.41H2786.66V1084.95H2942.26V1079.41Z" fill="#F0F0F0"/>
<path id="Vector_54" d="M2942.26 1091.07H2786.66V1096.61H2942.26V1091.07Z" fill="#F0F0F0"/>
<path id="Vector_55" d="M2904.3 1102.71H2786.66V1108.25H2904.3V1102.71Z" fill="#F0F0F0"/>
<path id="Vector_56" d="M2904.3 1114.37H2786.66V1119.91H2904.3V1114.37Z" fill="#F0F0F0"/>
<path id="Vector_57" d="M2904.3 1126.01H2786.66V1131.55H2904.3V1126.01Z" fill="#F0F0F0"/>
<path id="Vector_58" d="M2773.01 986.069H2749.58V1009.49H2773.01V986.069Z" fill="#F0F0F0"/>
<path id="Vector_59" d="M2006.22 585.794H1888.58V591.337H2006.22V585.794Z" fill="#F0F0F0"/>
<path id="Vector_60" d="M2006.22 574.152H1888.58V579.696H2006.22V574.152Z" fill="#F0F0F0"/>
<path id="Vector_61" d="M2006.22 562.494H1888.58V568.037H2006.22V562.494Z" fill="#F0F0F0"/>
<path id="Vector_62" d="M2006.22 550.835H1869.6V556.378H2006.22V550.835Z" fill="#F0F0F0"/>
<path id="Vector_63" d="M2006.22 539.194H1869.6V544.737H2006.22V539.194Z" fill="#F0F0F0"/>
<path id="Vector_64" d="M2006.22 527.535H1869.6V533.078H2006.22V527.535Z" fill="#F0F0F0"/>
<path id="Vector_65" d="M2006.24 515.894H1850.63V521.437H2006.24V515.894Z" fill="#F0F0F0"/>
<path id="Vector_66" d="M2006.24 504.235H1850.63V509.778H2006.24V504.235Z" fill="#F0F0F0"/>
<path id="Vector_67" d="M2006.22 492.559H1869.6V498.103H2006.22V492.559Z" fill="#F0F0F0"/>
<path id="Vector_68" d="M2043.31 492.472H2019.89V515.894H2043.31V492.472Z" fill="#F0F0F0"/>
</g>
<g id="freepik--Machine--inject-478">
<path id="Vector_69" d="M2705.35 1298.38H2063.84V1377.41H2705.35V1298.38Z" fill="#263238"/>
<path id="Vector_70" opacity="0.5" d="M2705.35 1298.38H2063.84V1377.41H2705.35V1298.38Z" fill="white"/>
<path id="Vector_71" opacity="0.2" d="M2705.35 1377.42H2063.84L2107.4 1298.38L2135.43 1346.57H2611.77L2637.4 1298.38L2705.35 1377.42Z" fill="black"/>
<path id="Vector_72" d="M2063.57 1027.63H1954.74L1841.22 1378.17H2120.33L2063.57 1027.63Z" fill="#263238"/>
<path id="Vector_73" opacity="0.5" d="M2063.57 1027.63H1954.74L1841.22 1378.17H2120.33L2063.57 1027.63Z" fill="white"/>
<path id="Vector_74" opacity="0.2" d="M1954.74 1027.63L1961.71 1376.66L2120.33 1378.17L2063.57 1027.63H1954.74Z" fill="white"/>
<path id="Vector_75" opacity="0.3" d="M2110.31 1369.56L1970.06 1368.22L1969.68 1350.31L1969.54 1343.09L1969.24 1327.95L1969.11 1320.72L1968.81 1305.58L1968.67 1298.38L1968.34 1283.2L1968.21 1276.01L1967.91 1260.87L1967.77 1253.65L1967.48 1238.49L1967.34 1231.26L1967.01 1216.12L1966.87 1208.9L1966.58 1193.76L1966.44 1186.55L1966.14 1171.41L1966 1164.19L1965.68 1149.05L1965.54 1141.84L1965.24 1126.68L1965.07 1119.46L1964.81 1104.3L1964.67 1097.11L1964.34 1081.94L1964.2 1074.75L1963.91 1059.59L1963.77 1052.37L1963.44 1036.15H2056.31L2110.31 1369.56Z" fill="black"/>
<path id="Vector_76" opacity="0.2" d="M2052.88 1052.37V1059.59H1963.91L1963.77 1052.37H2052.88Z" fill="white"/>
<path id="Vector_77" opacity="0.2" d="M2056.53 1074.75V1081.94H1964.34L1964.2 1074.75H2056.53Z" fill="white"/>
<path id="Vector_78" opacity="0.2" d="M2060.19 1097.11V1104.3H1964.81L1964.67 1097.11H2060.19Z" fill="white"/>
<path id="Vector_79" opacity="0.2" d="M2063.84 1119.46V1126.68H1965.24L1965.07 1119.46H2063.84Z" fill="white"/>
<path id="Vector_80" opacity="0.2" d="M2067.5 1141.84V1149.05H1965.68L1965.54 1141.84H2067.5Z" fill="white"/>
<path id="Vector_81" opacity="0.2" d="M2071.16 1164.19V1171.41H1966.14L1966 1164.19H2071.16Z" fill="white"/>
<path id="Vector_82" opacity="0.2" d="M2074.81 1186.55V1193.76H1966.58L1966.44 1186.55H2074.81Z" fill="white"/>
<path id="Vector_83" opacity="0.2" d="M2078.45 1208.9V1216.12H1967.01L1966.87 1208.9H2078.45Z" fill="white"/>
<path id="Vector_84" opacity="0.2" d="M2082.11 1231.26V1238.49H1967.48L1967.34 1231.26H2082.11Z" fill="white"/>
<path id="Vector_85" opacity="0.2" d="M2085.8 1253.65V1260.87H1967.91L1967.77 1253.65H2085.8Z" fill="white"/>
<path id="Vector_86" opacity="0.2" d="M2089.45 1276.01V1283.2H1968.34L1968.21 1276.01H2089.45Z" fill="white"/>
<path id="Vector_87" opacity="0.2" d="M2093.11 1298.38V1305.58H1968.81L1968.67 1298.38H2093.11Z" fill="white"/>
<path id="Vector_88" opacity="0.2" d="M2096.76 1320.72V1327.95H1969.24L1969.11 1320.72H2096.76Z" fill="white"/>
<path id="Vector_89" opacity="0.2" d="M2100.42 1343.09V1350.31H1969.68L1969.54 1343.09H2100.42Z" fill="white"/>
<path id="Vector_90" d="M2684.14 1027.63H2792.97L2906.48 1378.17H2627.38L2684.14 1027.63Z" fill="#263238"/>
<path id="Vector_91" opacity="0.5" d="M2684.14 1027.63H2792.97L2906.48 1378.17H2627.38L2684.14 1027.63Z" fill="white"/>
<path id="Vector_92" opacity="0.2" d="M2792.97 1027.63L2786 1376.66L2627.38 1378.17L2684.14 1027.63H2792.97Z" fill="white"/>
<path id="Vector_93" opacity="0.3" d="M2637.4 1369.56L2777.65 1368.22L2778.01 1350.31L2778.17 1343.09L2778.45 1327.95L2778.6 1320.72L2778.91 1305.58L2779.04 1298.38L2779.35 1283.2L2779.5 1276.01L2779.78 1260.87L2779.94 1253.65L2780.23 1238.49L2780.37 1231.26L2780.68 1216.12L2780.84 1208.9L2781.13 1193.76L2781.27 1186.55L2781.57 1171.41L2781.7 1164.19L2782.02 1149.05L2782.17 1141.84L2782.47 1126.68L2782.61 1119.46L2782.9 1104.3L2783.04 1097.11L2783.35 1081.94L2783.51 1074.75L2783.82 1059.59L2783.94 1052.37L2784.25 1036.15H2691.4L2637.4 1369.56Z" fill="black"/>
<path id="Vector_94" opacity="0.2" d="M2694.82 1052.37V1059.59H2783.82L2783.94 1052.37H2694.82Z" fill="white"/>
<path id="Vector_95" opacity="0.2" d="M2691.16 1074.75V1081.94H2783.35L2783.51 1074.75H2691.16Z" fill="white"/>
<path id="Vector_96" opacity="0.2" d="M2687.5 1097.11V1104.3H2782.9L2783.04 1097.11H2687.5Z" fill="white"/>
<path id="Vector_97" opacity="0.2" d="M2683.85 1119.46V1126.68H2782.47L2782.61 1119.46H2683.85Z" fill="white"/>
<path id="Vector_98" opacity="0.2" d="M2680.19 1141.84V1149.05H2782.02L2782.17 1141.84H2680.19Z" fill="white"/>
<path id="Vector_99" opacity="0.2" d="M2676.54 1164.19V1171.41H2781.57L2781.7 1164.19H2676.54Z" fill="white"/>
<path id="Vector_100" opacity="0.2" d="M2672.88 1186.55V1193.76H2781.13L2781.27 1186.55H2672.88Z" fill="white"/>
<path id="Vector_101" opacity="0.2" d="M2669.26 1208.9V1216.12H2780.68L2780.84 1208.9H2669.26Z" fill="white"/>
<path id="Vector_102" opacity="0.2" d="M2665.6 1231.26V1238.49H2780.23L2780.37 1231.26H2665.6Z" fill="white"/>
<path id="Vector_103" opacity="0.2" d="M2661.91 1253.65V1260.87H2779.78L2779.94 1253.65H2661.91Z" fill="white"/>
<path id="Vector_104" opacity="0.2" d="M2658.26 1276.01V1283.2H2779.35L2779.5 1276.01H2658.26Z" fill="white"/>
<path id="Vector_105" opacity="0.2" d="M2654.6 1298.38V1305.58H2778.91L2779.04 1298.38H2654.6Z" fill="white"/>
<path id="Vector_106" opacity="0.2" d="M2650.95 1320.72V1327.95H2778.45L2778.6 1320.72H2650.95Z" fill="white"/>
<path id="Vector_107" opacity="0.2" d="M2647.29 1343.09V1350.31H2778.01L2778.17 1343.09H2647.29Z" fill="white"/>
</g>
<path id="Vector_108" d="M2622.77 552.204C2622.77 552.204 2608.15 574.499 2609.42 576.006C2610.68 577.513 2616.45 586.21 2616.45 586.21C2613.48 585.418 2610.36 585.424 2607.4 586.227C2604.43 587.031 2601.74 588.602 2599.58 590.783C2591.61 598.353 2591.92 605.352 2591.92 605.352L2599.63 610.688L2606.31 605.04L2605.21 621.982L2612.34 631.302C2612.34 631.302 2592.85 634.767 2588.09 636.499C2583.32 638.232 2571 655.001 2570.35 658.032C2569.69 661.064 2567.07 675.598 2570.14 677.764C2570.31 677.881 2570.5 677.961 2570.7 678C2570.91 678.039 2571.12 678.035 2571.32 677.989C2576.13 677.088 2588.64 661.688 2592.23 660.25C2592.23 660.25 2590.5 680.882 2592.64 681.471C2594.79 682.06 2598.54 678.873 2594.74 682.077L2583.13 691.934C2583.13 691.934 2579.86 694.706 2584.73 704.199C2589.6 713.693 2591.88 711.7 2591.54 715.997C2591.19 720.293 2591.54 731.137 2591.54 731.137C2591.54 731.137 2474.99 796.36 2453.29 797.174C2431.6 797.989 2390.71 781.912 2390.71 781.912C2390.71 781.912 2392.22 778.69 2394.66 773.788C2402.3 758.353 2418.8 726.252 2424.12 726.027C2431.05 725.75 2458.96 709.587 2479.32 697.772C2499.67 685.958 2534.48 638.405 2541 626.296C2547.51 614.187 2583.13 577.634 2583.13 577.634L2622.77 552.204Z" fill="#0071F2"/>
<path id="Vector_109" opacity="0.2" d="M2594.69 682.164L2583.08 692.004C2583.08 692.004 2579.81 694.775 2584.67 704.269C2589.54 713.762 2591.85 711.77 2591.48 716.066C2591.12 720.362 2591.48 731.207 2591.48 731.207C2591.48 731.207 2474.93 796.429 2453.24 797.261C2431.55 798.092 2390.66 781.982 2390.66 781.982C2390.66 781.982 2392.17 778.759 2394.61 773.874C2394.61 773.874 2437.16 736.733 2449.19 733.268C2461.21 729.803 2512.37 720.102 2521.78 715.165C2526.49 712.74 2548.83 695.035 2569.95 677.92C2570.12 678.041 2570.31 678.124 2570.51 678.163C2570.72 678.202 2570.93 678.196 2571.13 678.145C2575.94 677.261 2588.45 661.844 2592.04 660.406C2592.04 660.406 2590.31 681.038 2592.45 681.627C2594.6 682.216 2598.43 678.994 2594.69 682.164Z" fill="black"/>
<path id="Vector_110" d="M2303.39 1172.42H2261.5V1238.99H2303.39V1172.42Z" fill="#2F2E41"/>
<path id="Vector_111" d="M2458.46 1237.85H2500.35V1171.27H2458.46V1237.85Z" fill="#2F2E41"/>
<path id="Vector_112" d="M2450.33 1020.04H2316.02V1043.29H2450.33V1020.04Z" fill="#2F2E41"/>
<path id="Vector_113" opacity="0.2" d="M2450.33 1020.04H2316.02V1043.29H2450.33V1020.04Z" fill="black"/>
<path id="Vector_114" d="M2362.82 994.575H2401.09V1038.44C2401.09 1042.98 2399.29 1047.34 2396.07 1050.55C2392.86 1053.77 2388.5 1055.57 2383.96 1055.57H2379.97C2375.43 1055.57 2371.07 1053.77 2367.85 1050.55C2364.64 1047.34 2362.84 1042.98 2362.84 1038.44V994.575H2362.82Z" fill="#2F2E41"/>
<path id="Vector_115" d="M2152.48 987.039H2186.93V917.312H2152.48V987.039Z" fill="#2F2E41"/>
<path id="Vector_116" d="M2223.64 780.457H2197.44V870.833H2223.64V780.457Z" fill="#2F2E41"/>
<path id="Vector_117" d="M2135.92 741.237V927.654H2200.77V765.091L2135.92 741.237Z" fill="#0071F2"/>
<path id="Vector_118" d="M2135.92 1083.27L2191.81 1111.96V952.184H2135.92V1083.27Z" fill="#0071F2"/>
<path id="Vector_119" d="M2609.02 917.33H2574.57V987.056H2609.02V917.33Z" fill="#2F2E41"/>
<path id="Vector_120" d="M2625.6 1083.27L2569.71 1111.96V952.184H2625.6V1083.27Z" fill="#0071F2"/>
<path id="Vector_121" d="M2568.02 780.457H2541.83V870.833H2568.02V780.457Z" fill="#2F2E41"/>
<path id="Vector_122" d="M2625.6 741.237V927.654H2560.75V765.091L2625.6 741.237Z" fill="#0071F2"/>
<path id="Vector_123" d="M2569.71 1137.6V1111.96L2613.85 1089.3V1122.68L2600.32 1137.6H2569.71Z" fill="#2F2E41"/>
<path id="Vector_124" opacity="0.2" d="M2569.71 1111.96V1124.97L2613.85 1089.3L2569.71 1111.96Z" fill="black"/>
<path id="Vector_125" d="M2328.44 961.556H2433.2V985.514C2433.2 991.487 2430.82 997.215 2426.6 1001.44C2422.37 1005.66 2416.65 1008.03 2410.67 1008.03H2351.04C2345.06 1008.03 2339.33 1005.66 2335.11 1001.44C2330.89 997.215 2328.51 991.487 2328.51 985.514V961.556H2328.44Z" fill="#2F2E41"/>
<path id="Vector_126" d="M2317.55 1208.38L2248.29 1173.18V1004.83H2317.55V1208.38Z" fill="#0071F2"/>
<path id="Vector_127" d="M2317.55 1238.97V1407.7H2287.88L2211.56 1372.12L2214.4 1359.16L2248.29 1205.7L2317.55 1238.97Z" fill="#0071F2"/>
<path id="Vector_128" d="M2287.88 1407.7H2165.74L2196.68 1367.17H2279.05L2287.88 1407.7Z" fill="#2F2E41"/>
<path id="Vector_129" d="M2444.3 1207.22L2513.55 1172.04V1003.69H2444.3V1207.22Z" fill="#0071F2"/>
<path id="Vector_130" d="M2444.3 1237.83V1406.54H2473.95L2550.28 1370.98L2547.42 1358.02L2513.55 1204.55L2444.3 1237.83Z" fill="#0071F2"/>
<path id="Vector_131" d="M2473.95 1406.54H2596.09L2565.17 1366.02H2482.8L2473.95 1406.54Z" fill="#2F2E41"/>
<path id="Vector_132" d="M2492.07 955.718L2380.84 978.568L2264.55 955.25V783.194H2492.07V955.718Z" fill="#0071F2"/>
<path id="Vector_133" opacity="0.2" d="M2264.55 783.194H2281.68L2300.72 929.179L2378.31 970.01L2461.61 929.179L2480.17 783.194H2492.07V955.718L2380.84 978.568L2264.55 955.25V783.194Z" fill="black"/>
<path id="Vector_134" d="M2405.75 794.697L2380.94 811.414L2354.88 796.447V769.613H2405.75V794.697Z" fill="#2F2E41"/>
<path id="Vector_135" d="M2433.92 775.399H2329.1L2315.67 761.956V720.501L2329.1 707.075H2432.4L2446.22 721.661V762.354L2433.92 775.399Z" fill="#0071F2"/>
<path id="Vector_136" d="M2421.12 725.178H2340.62C2334.85 725.178 2330.18 729.855 2330.18 735.624V738.067C2330.18 743.836 2334.85 748.513 2340.62 748.513H2421.12C2426.89 748.513 2431.57 743.836 2431.57 738.067V735.624C2431.57 729.855 2426.89 725.178 2421.12 725.178Z" fill="#2F2E41"/>
<path id="Vector_137" d="M2345.13 783.194L2364.98 819.781L2380.85 929.179L2395.65 819.781L2416.54 783.194L2380.94 805.143L2345.13 783.194Z" fill="#2F2E41"/>
<path id="Vector_138" opacity="0.2" d="M2345.13 783.194L2364.98 819.781L2380.85 929.179L2395.65 819.781L2416.54 783.194L2380.94 805.143L2345.13 783.194Z" fill="black"/>
<path id="Vector_139" d="M2546.33 748.513L2486.35 762.51V974.289L2546.33 958.109V748.513Z" fill="#0071F2"/>
<path id="Vector_140" opacity="0.2" d="M2625.6 762.25V863.298C2612.36 863.053 2599.74 857.622 2590.47 848.174C2581.19 838.725 2575.99 826.014 2575.99 812.774C2575.99 799.534 2581.19 786.823 2590.47 777.375C2599.74 767.926 2612.36 762.495 2625.6 762.25Z" fill="black"/>
<path id="Vector_141" d="M2626.01 850.686C2646.95 850.686 2663.92 833.716 2663.92 812.783C2663.92 791.849 2646.95 774.879 2626.01 774.879C2605.08 774.879 2588.11 791.849 2588.11 812.783C2588.11 833.716 2605.08 850.686 2626.01 850.686Z" fill="#2F2E41"/>
<path id="Vector_142" opacity="0.2" d="M2626.01 821.86C2631.03 821.86 2635.09 817.796 2635.09 812.783C2635.09 807.769 2631.03 803.705 2626.01 803.705C2621 803.705 2616.94 807.769 2616.94 812.783C2616.94 817.796 2621 821.86 2626.01 821.86Z" fill="black"/>
<path id="Vector_143" d="M2215.51 748.513L2275.5 762.51V974.289L2215.51 958.109V748.513Z" fill="#0071F2"/>
<path id="Vector_144" d="M2191.81 1137.6V1111.96L2147.67 1089.3V1122.68L2161.2 1137.6H2191.81Z" fill="#2F2E41"/>
<path id="Vector_145" opacity="0.2" d="M2191.81 1111.96V1124.97L2147.67 1089.3L2191.81 1111.96Z" fill="black"/>
<path id="Vector_146" opacity="0.2" d="M2135.92 762.25V863.315C2149.32 863.315 2162.18 857.991 2171.66 848.515C2181.13 839.038 2186.46 826.185 2186.46 812.783C2186.46 799.381 2181.13 786.527 2171.66 777.051C2162.18 767.574 2149.32 762.25 2135.92 762.25Z" fill="black"/>
<path id="Vector_147" d="M2135.5 850.686C2156.44 850.686 2173.41 833.716 2173.41 812.783C2173.41 791.849 2156.44 774.879 2135.5 774.879C2114.57 774.879 2097.59 791.849 2097.59 812.783C2097.59 833.716 2114.57 850.686 2135.5 850.686Z" fill="#2F2E41"/>
<path id="Vector_148" opacity="0.2" d="M2135.5 821.86C2140.52 821.86 2144.58 817.796 2144.58 812.783C2144.58 807.769 2140.52 803.705 2135.5 803.705C2130.49 803.705 2126.42 807.769 2126.42 812.783C2126.42 817.796 2130.49 821.86 2135.5 821.86Z" fill="black"/>
<path id="Vector_149" opacity="0.2" d="M2317.55 1239.65V1407.69H2287.88L2211.55 1372.1L2214.4 1359.16H2293.06L2317.41 1239.63L2317.55 1239.65Z" fill="black"/>
<path id="Vector_150" opacity="0.2" d="M2444.3 1238.49V1406.53H2473.95L2550.28 1370.96L2547.42 1358H2468.78L2444.42 1238.47L2444.3 1238.49Z" fill="black"/>
</g>
</g>
</svg>
