<svg width="2777" height="1903" viewBox="0 0 2777 1903" fill="none" xmlns="http://www.w3.org/2000/svg">
<g id="bg-resume">
<circle id="Ellipse 1" cx="951.5" cy="951.5" r="951.5" fill="#338DF5"/>
<g id="Group 9">
<path id="Vector" d="M2226.48 641.441L2230.98 638.191L2279.56 634.636L2281.69 754.802L2296.6 862.576L2253.5 875.162L2226.48 641.441Z" fill="#CCCCCC"/>
<path id="Vector_2" d="M2632.41 1161.75L2632.29 1191.83L2249.5 1402.47L2226.75 1406.98L1816.75 1165.66L1813.02 1192.33C1812.86 1196.35 1813.83 1200.33 1815.8 1203.83C1817.77 1207.34 1820.67 1210.23 1824.18 1212.19L2221.35 1434.87C2225.06 1436.95 2229.25 1438.02 2233.5 1438C2237.75 1437.98 2241.92 1436.85 2245.61 1434.73L2632.41 1212.45L2636.81 1209.59C2640.41 1207.29 2643.33 1204.07 2645.28 1200.26C2647.22 1196.46 2648.12 1192.21 2647.88 1187.94C2647.29 1179.06 2643.88 1168.44 2632.41 1161.75Z" fill="#CCCCCC"/>
<path id="Vector_3" opacity="0.2" d="M2632.41 1161.75L2632.29 1191.83L2249.5 1396.53L2226.75 1401.04L1816.75 1165.66L1813.02 1192.33C1812.86 1196.35 1813.83 1200.33 1815.8 1203.83C1817.77 1207.34 1820.67 1210.23 1824.18 1212.19L2221.35 1434.87C2225.06 1436.95 2229.25 1438.02 2233.5 1438C2237.75 1437.98 2241.92 1436.85 2245.61 1434.73L2632.41 1212.45L2636.81 1209.59C2640.41 1207.29 2643.33 1204.07 2645.28 1200.26C2647.22 1196.46 2648.12 1192.21 2647.88 1187.94C2647.29 1179.06 2643.88 1168.44 2632.41 1161.75Z" fill="black"/>
<path id="Vector_4" d="M1827.21 1182.41L2224.89 1400.94C2227.6 1402.55 2230.68 1403.4 2233.83 1403.4C2236.97 1403.4 2240.06 1402.55 2242.76 1400.94L2632.3 1192.09C2634.94 1190.52 2637.13 1188.29 2638.65 1185.62C2640.17 1182.95 2640.98 1179.94 2640.99 1176.87C2641 1173.8 2640.22 1170.77 2638.71 1168.1C2637.21 1165.42 2635.04 1163.17 2632.41 1161.58L2229.06 922.589C2226.37 920.973 2223.3 920.107 2220.17 920.083C2217.03 920.059 2213.95 920.877 2211.23 922.451L1827.41 1145.23C1824.16 1147.12 1821.46 1149.82 1819.57 1153.07C1817.69 1156.32 1816.69 1160.01 1816.67 1163.77C1816.65 1167.52 1817.61 1171.22 1819.46 1174.49C1821.31 1177.76 1823.98 1180.49 1827.21 1182.41V1182.41Z" fill="#CCCCCC"/>
<path id="Vector_5" d="M2189.94 1175.11L2187.45 1214.69C2187.45 1214.69 2195.54 1218.95 2209.17 1214.69C2210.75 1214.49 2212.35 1214.74 2213.78 1215.42C2215.22 1216.1 2216.43 1217.18 2217.27 1218.52C2217.27 1218.52 2227.08 1230.42 2246.04 1228.84C2248.58 1228.66 2250.99 1227.66 2252.91 1225.99C2254.83 1224.31 2256.15 1222.05 2256.67 1219.56C2257.4 1215.18 2256.41 1210.68 2253.9 1207.02C2253.9 1207.02 2250.15 1200.27 2237.22 1198.5C2233.49 1198.01 2230.02 1196.32 2227.35 1193.67C2224.67 1191.03 2222.95 1187.57 2222.43 1183.85C2222.08 1180.94 2221.99 1178 2222.17 1175.08L2189.94 1175.11Z" fill="#0071F2"/>
<path id="Vector_6" d="M2189.08 1161.88L2198.03 1062.22L2193.56 888.468C2193.56 888.468 2267.92 876.116 2293.48 859.505C2293.48 859.505 2317.94 964.692 2317.92 1047.61C2318.01 1050.19 2317.47 1052.76 2316.35 1055.09L2270.05 1143.99L2239.37 1129.93L2271.63 1044.9C2272.81 1041.76 2273 1038.33 2272.15 1035.08L2256.4 974.554C2256.4 974.554 2229.58 1146.97 2222.13 1161.95C2222.13 1161.88 2212.52 1170.39 2189.08 1161.88Z" fill="#2F2E41"/>
<path id="Vector_7" d="M2206.33 1161.75C2206.33 1161.75 2237.65 993.226 2214.22 944.678" stroke="#3F3D56" stroke-miterlimit="10"/>
<path id="Vector_8" d="M2245.57 1132.8L2282.02 1044.28C2282.8 1042.38 2282.98 1040.3 2282.56 1038.3L2264.39 953.64" stroke="#3F3D56" stroke-miterlimit="10"/>
<path id="Vector_9" d="M2240.21 1139.15C2240.21 1139.15 2223.73 1167.49 2222.93 1171.32C2222.93 1171.32 2217.2 1178.14 2238.51 1184.51C2240.56 1184.63 2242.54 1185.29 2244.26 1186.41C2245.98 1187.53 2247.37 1189.08 2248.31 1190.9C2248.31 1190.9 2256.1 1211.22 2277.11 1208.98C2278.47 1208.85 2279.79 1208.46 2281 1207.82C2282.21 1207.18 2283.28 1206.31 2284.15 1205.25C2285.02 1204.2 2285.68 1202.99 2286.08 1201.68C2286.48 1200.37 2286.62 1199 2286.49 1197.64C2286.25 1195.26 2285.54 1192.95 2284.4 1190.84C2283.26 1188.73 2281.71 1186.87 2279.85 1185.37C2279.85 1185.37 2278.27 1182.49 2272.25 1178.58C2270.15 1177.22 2268.41 1175.38 2267.16 1173.22C2265.91 1171.05 2265.19 1168.63 2265.07 1166.13C2264.71 1161.27 2265.39 1156.38 2267.06 1151.8L2240.21 1139.15Z" fill="#0071F2"/>
<path id="Vector_10" d="M2141.21 979.173C2141.21 979.173 2192.41 1005.07 2222.93 999.049C2222.93 999.049 2269.05 885.48 2268.48 772.479C2268.48 772.479 2246.34 710.017 2221.89 681.054L2227 671.372H2217.89L2219.59 646.393C2219.59 646.393 2163.92 682.16 2165.62 699.768L2189.05 862.742L2141.21 979.173Z" fill="#0071F2"/>
<path id="Vector_11" d="M2194 905.881C2201.46 907.097 2209.1 906.263 2216.11 903.468C2223.13 900.674 2229.25 896.023 2233.82 890.017C2225.62 870.517 2219.03 850.375 2214.14 829.795C2209.77 810.814 2208.61 791.234 2210.71 771.87L2216.78 713.986C2216.78 713.986 2224.59 666.849 2184.89 672.492C2184.89 672.492 2163.38 685.272 2162.52 705.687C2162.54 705.756 2150.3 818.758 2194 905.881Z" fill="#0071F2"/>
<path id="Vector_12" opacity="0.2" d="M2194 905.881C2201.46 907.097 2209.1 906.263 2216.11 903.468C2223.13 900.674 2229.25 896.023 2233.82 890.017C2225.62 870.517 2219.03 850.375 2214.14 829.795C2209.77 810.814 2208.61 791.234 2210.71 771.87L2216.78 713.986C2216.78 713.986 2224.59 666.849 2184.89 672.492C2184.89 672.492 2163.38 685.272 2162.52 705.687C2162.54 705.756 2150.3 818.758 2194 905.881Z" fill="black"/>
<path id="Vector_13" d="M2201.45 906.421C2201.45 906.421 2223.14 963.198 2264.04 937.707C2264.45 937.456 2264.78 937.103 2265.02 936.684C2265.25 936.265 2265.36 935.793 2265.36 935.314C2265.36 934.941 2265.28 934.572 2265.14 934.229C2264.99 933.886 2264.78 933.576 2264.51 933.318C2264.24 933.06 2263.92 932.858 2263.57 932.726C2263.22 932.593 2262.85 932.533 2262.48 932.548C2259.99 932.615 2257.5 932.424 2255.05 931.981C2245.36 930.058 2245.44 916.144 2255.2 914.457H2255.25C2255.71 914.42 2256.16 914.303 2256.57 914.111C2256.97 913.863 2257.28 913.5 2257.47 913.069C2257.66 912.639 2257.71 912.162 2257.62 911.701C2257.54 911.239 2257.31 910.816 2256.98 910.485C2256.64 910.155 2256.22 909.934 2255.75 909.851C2246.55 908.219 2230.03 904.318 2226.98 897.084C2227 897.098 2217.89 906.075 2201.45 906.421Z" fill="#F9B499"/>
<path id="Vector_14" d="M2208.88 920.611L2183.2 920.072C2183 920.069 2182.81 920.117 2182.63 920.211C2182.46 920.306 2182.32 920.443 2182.21 920.611C2182.11 920.778 2182.05 920.969 2182.04 921.166C2182.04 921.362 2182.08 921.557 2182.17 921.732L2187.51 931.704C2187.51 931.704 2177.58 934.539 2181.27 944.622C2181.27 944.622 2182.98 953.419 2198.6 949.021L2230.11 941.109C2221.51 936.048 2214.24 929.023 2208.88 920.611V920.611Z" fill="#CCCCCC"/>
<path id="Vector_15" d="M2327.56 953.627C2327.56 953.627 2349.7 943.406 2360.52 925.799C2360.52 925.799 2309.39 824.152 2313.36 756.573L2317.27 675.411C2317.5 670.686 2316.64 665.971 2314.74 661.636C2312.84 657.302 2309.96 653.466 2306.33 650.432C2299.16 644.47 2289.59 637.665 2280.27 634.636L2291.35 649.546L2287.51 655.508L2291.77 660.183C2291.77 660.183 2293.75 706.407 2279.06 750.902C2277.85 754.569 2277.34 758.431 2277.56 762.285C2278.92 787.61 2286.65 884.332 2327.56 953.627Z" fill="#0071F2"/>
<path id="Vector_16" d="M2267.06 768.606C2267.06 768.606 2254 671.648 2230.98 638.177L2219.62 646.476L2217.89 671.399H2226.97L2221.86 681.081C2240.44 709.175 2255.85 739.239 2267.81 770.722" fill="#0071F2"/>
<path id="Vector_17" opacity="0.2" d="M2267.06 768.606C2267.06 768.606 2254 671.648 2230.98 638.177L2219.62 646.476L2217.89 671.399H2226.97L2221.86 681.081C2240.44 709.175 2255.85 739.239 2267.81 770.722" fill="white"/>
<path id="Vector_18" d="M2277.51 756.019C2277.51 756.019 2277.29 654.096 2275.58 639.905L2280.27 634.649L2291.35 649.56L2287.51 655.521L2291.77 660.196C2291.77 660.196 2300.74 674.027 2277.51 757.444" fill="#0071F2"/>
<path id="Vector_19" opacity="0.2" d="M2277.51 756.019C2277.51 756.019 2277.29 654.096 2275.58 639.905L2280.27 634.649L2291.35 649.56L2287.51 655.521L2291.77 660.196C2291.77 660.196 2300.74 674.027 2277.51 757.444" fill="white"/>
<path id="Vector_20" d="M2268.48 638.177V650.625C2261.39 661.413 2240.72 657.112 2240.72 657.112C2238.87 652.381 2233.4 641.897 2233.4 641.897L2233.87 617.375H2242.87L2268.48 638.177Z" fill="#F9B499"/>
<path id="Vector_21" d="M1858.28 677.651C1858.28 677.651 1920.78 683.889 1957.71 669.698C1957.71 669.698 1970.17 734.428 2001.99 757.43C2001.99 757.43 1953.7 770.21 1930.12 763.958C1930.14 763.958 1879.87 721.939 1858.28 677.651Z" fill="#2F2E41"/>
<path id="Vector_22" d="M2106.56 1287.51L2194.05 1346.57L2259.39 1302.85L2171.32 1252.31L2106.56 1287.51Z" fill="#2F2E41"/>
<path id="Vector_23" d="M2106.56 1297.46V1287.51L2194.05 1346.57L2259.39 1302.85V1312.49L2195.76 1355.66L2106.56 1297.46Z" fill="#3F3D56"/>
<path id="Vector_24" opacity="0.2" d="M2106.56 1297.46V1287.51L2194.05 1346.57L2259.39 1302.85V1312.49L2195.76 1355.66L2106.56 1297.46Z" fill="#231F20"/>
<path id="Vector_25" d="M2275.87 1132.8H2343.48L2365.06 1059.81H2313.9L2275.87 1132.8Z" fill="white"/>
<path id="Vector_26" d="M2617.51 789.215C2617.51 789.215 2728.02 750.625 2774.13 707.942C2774.13 707.942 2735.48 778.62 2700.91 794.097C2700.86 794.125 2660.23 806.144 2617.51 789.215Z" fill="#CCCCCC"/>
<path id="Vector_27" d="M2774.2 707.969C2786.66 687.305 2741.65 684.249 2741.65 684.249C2741.65 684.249 2735.67 728.716 2717.99 745.438C2717.92 745.438 2756.5 723.557 2774.2 707.969Z" fill="#CCCCCC"/>
<path id="Vector_28" opacity="0.2" d="M2774.2 707.969C2786.66 687.305 2741.65 684.249 2741.65 684.249C2741.65 684.249 2735.67 728.716 2717.99 745.438C2717.92 745.438 2756.5 723.557 2774.2 707.969Z" fill="#231F20"/>
<path id="Vector_29" d="M2237.26 1247.2C2237.26 1247.2 2446.1 1163.79 2537.04 981.248C2573.02 908.883 2543.32 821.165 2470.13 786.739C2434.06 769.768 2383.68 757.887 2313.38 756.573" stroke="#2F2E41" stroke-miterlimit="10"/>
<path id="Vector_30" d="M2160.94 765.701C2160.94 765.701 2000.72 775.383 1989.25 860.197C1986.09 883.488 1995.59 906.614 2013.11 922.299C2050.01 955.3 2149.82 1006.48 2406.54 984.305C2406.54 984.305 2791.58 937.596 2756.43 736.725" stroke="#2F2E41" stroke-miterlimit="10"/>
<path id="Vector_31" d="M2060.6 964.692C2067.07 964.692 2072.31 959.453 2072.31 952.99C2072.31 946.528 2067.07 941.289 2060.6 941.289C2054.14 941.289 2048.89 946.528 2048.89 952.99C2048.89 959.453 2054.14 964.692 2060.6 964.692Z" fill="#2F2E41"/>
<path id="Vector_32" d="M2141.21 905.715C2144.35 905.715 2146.9 903.17 2146.9 900.03C2146.9 896.891 2144.35 894.346 2141.21 894.346C2138.07 894.346 2135.52 896.891 2135.52 900.03C2135.52 903.17 2138.07 905.715 2141.21 905.715Z" fill="#2F2E41"/>
<path id="Vector_33" d="M2373.67 1193.54C2376.81 1193.54 2379.36 1191 2379.36 1187.86C2379.36 1184.72 2376.81 1182.18 2373.67 1182.18C2370.53 1182.18 2367.98 1184.72 2367.98 1187.86C2367.98 1191 2370.53 1193.54 2373.67 1193.54Z" fill="#2F2E41"/>
<path id="Vector_34" d="M2379.36 1155.04C2382.5 1155.04 2385.05 1152.49 2385.05 1149.35C2385.05 1146.21 2382.5 1143.67 2379.36 1143.67C2376.22 1143.67 2373.67 1146.21 2373.67 1149.35C2373.67 1152.49 2376.22 1155.04 2379.36 1155.04Z" fill="#2F2E41"/>
<path id="Vector_35" d="M2534.09 1052.59C2537.23 1052.59 2539.78 1050.04 2539.78 1046.9C2539.78 1043.77 2537.23 1041.22 2534.09 1041.22C2530.95 1041.22 2528.4 1043.77 2528.4 1046.9C2528.4 1050.04 2530.95 1052.59 2534.09 1052.59Z" fill="#2F2E41"/>
<path id="Vector_36" d="M2505.68 846.102C2508.82 846.102 2511.37 843.557 2511.37 840.418C2511.37 837.278 2508.82 834.733 2505.68 834.733C2502.54 834.733 2499.99 837.278 2499.99 840.418C2499.99 843.557 2502.54 846.102 2505.68 846.102Z" fill="#0071F2"/>
<path id="Vector_37" d="M2185.67 1161.51V1173.13C2185.66 1173.73 2185.85 1174.32 2186.2 1174.81C2186.56 1175.29 2187.06 1175.65 2187.64 1175.83C2191.79 1177.07 2202.68 1179.12 2224.63 1175.48C2225.29 1175.38 2225.9 1175.05 2226.33 1174.54C2226.77 1174.03 2227 1173.38 2227 1172.71V1162.06C2227.01 1161.61 2226.92 1161.15 2226.71 1160.74C2226.51 1160.33 2226.21 1159.97 2225.84 1159.71C2225.46 1159.44 2225.03 1159.27 2224.58 1159.22C2224.12 1159.16 2223.66 1159.22 2223.23 1159.38C2217.7 1161.41 2206.21 1163.89 2189.33 1158.83C2188.91 1158.7 2188.46 1158.67 2188.03 1158.75C2187.6 1158.82 2187.19 1159 2186.83 1159.26C2186.48 1159.52 2186.19 1159.86 2185.99 1160.25C2185.79 1160.64 2185.68 1161.07 2185.67 1161.51V1161.51Z" fill="#3F3D56"/>
<path id="Vector_38" d="M2241.18 1125.13C2240.73 1124.87 2240.24 1124.71 2239.72 1124.64C2239.21 1124.58 2238.69 1124.62 2238.19 1124.77C2237.7 1124.92 2237.23 1125.16 2236.84 1125.49C2236.44 1125.83 2236.11 1126.24 2235.88 1126.7L2233.68 1131.15C2232.9 1132.76 2232.77 1134.6 2233.31 1136.3C2233.86 1138 2235.04 1139.42 2236.61 1140.27L2262.82 1154.19C2263.65 1154.62 2264.55 1154.89 2265.48 1154.96C2266.41 1155.03 2267.34 1154.92 2268.22 1154.63C2269.1 1154.33 2269.92 1153.86 2270.61 1153.25C2271.31 1152.63 2271.88 1151.88 2272.28 1151.04L2275.63 1143.9C2275.84 1143.44 2275.96 1142.94 2275.98 1142.43C2276 1141.92 2275.91 1141.41 2275.73 1140.93C2275.55 1140.46 2275.27 1140.02 2274.91 1139.66C2274.56 1139.29 2274.13 1139 2273.66 1138.8L2241.18 1125.13Z" fill="#3F3D56"/>
<path id="Vector_39" d="M2257.69 911.981C2257.69 911.981 2298.6 885.19 2305.13 887.748C2305.13 887.748 2331.69 896.946 2318.26 920.39C2317.74 921.288 2317.04 922.069 2316.2 922.685C2315.37 923.302 2314.42 923.74 2313.4 923.973L2265.36 935.314C2265.36 935.314 2265.48 931.524 2260.37 932.548C2260.37 932.548 2249.23 933.143 2247.92 924.609C2247.92 924.609 2246.02 916.849 2255.27 914.471C2255.9 914.415 2256.5 914.133 2256.94 913.676C2257.39 913.219 2257.65 912.617 2257.69 911.981V911.981Z" fill="#CCCCCC"/>
<path id="Vector_40" opacity="0.2" d="M2310.04 920.086C2315.58 920.086 2320.07 915.596 2320.07 910.058C2320.07 904.52 2315.58 900.03 2310.04 900.03C2304.5 900.03 2300.01 904.52 2300.01 910.058C2300.01 915.596 2304.5 920.086 2310.04 920.086Z" fill="black"/>
<path id="Vector_41" d="M2002.01 781.566C2002.01 781.566 2040.36 795.923 2060.81 776.822C2060.81 776.822 2078.7 827.555 2095.75 840.335C2095.75 840.335 2069.61 844.996 2048.88 840.335C2048.89 840.39 2013.95 817.334 2002.01 781.566Z" fill="#CCCCCC"/>
<path id="Vector_42" d="M2414.5 789.215C2414.5 789.215 2443.47 805.162 2449.71 823.157C2449.71 823.157 2467.9 788.924 2471.3 763.364C2471.3 763.364 2453.7 738.952 2428.69 730.432C2428.69 730.459 2432.11 762.285 2414.5 789.215Z" fill="#2F2E41"/>
<path id="Vector_43" d="M2412.23 944.401C2412.23 944.401 2445.74 923.391 2463.93 867.181C2463.93 867.181 2507.1 885.923 2530.35 877.97C2530.35 877.97 2504.22 932.202 2475.81 949.09C2475.86 949.09 2442.34 960.307 2412.23 944.401Z" fill="#CCCCCC"/>
<path id="Vector_44" d="M2511.37 828.412C2517.83 828.412 2523.07 823.173 2523.07 816.711C2523.07 810.249 2517.83 805.01 2511.37 805.01C2504.9 805.01 2499.66 810.249 2499.66 816.711C2499.66 823.173 2504.9 828.412 2511.37 828.412Z" fill="#2F2E41"/>
<path id="Vector_45" d="M2268.48 644.525V639.906C2268.48 639.906 2254.02 633.972 2243.41 628.771C2243.41 628.771 2250.2 639.2 2268.48 644.525Z" fill="#F4A48E"/>
<path id="Vector_46" d="M2236.32 620.293C2238.54 630.238 2264.79 639.159 2264.79 639.159C2264.79 639.159 2289.85 649.657 2290.56 591.676L2273.02 572.312C2273.02 572.312 2234.11 573.184 2233.4 575.729C2232.7 578.274 2232.02 603.986 2232.02 603.986L2236.32 620.293Z" fill="#F9B499"/>
<path id="Vector_47" d="M2230.7 593.322C2230.7 593.322 2234.11 590.763 2244.34 603.972L2245.48 596.296C2245.51 596.117 2245.59 595.949 2245.7 595.809C2245.81 595.668 2245.96 595.56 2246.13 595.496C2246.3 595.431 2246.48 595.412 2246.66 595.441C2246.84 595.47 2247.01 595.545 2247.15 595.659C2249.88 598.007 2252.79 600.152 2255.84 602.077C2256.31 602.359 2256.84 602.51 2257.39 602.516C2257.94 602.522 2258.48 602.382 2258.96 602.111C2259.44 601.839 2259.83 601.446 2260.11 600.971C2260.38 600.496 2260.53 599.956 2260.53 599.408V593.128L2262.01 592.354C2262.9 591.895 2263.63 591.165 2264.09 590.269C2264.55 589.372 2264.71 588.355 2264.55 587.361L2264.12 584.511C2264.03 583.884 2264.07 583.244 2264.25 582.634C2264.42 582.024 2264.73 581.459 2265.14 580.978C2265.55 580.497 2266.07 580.112 2266.64 579.848C2267.22 579.584 2267.85 579.448 2268.48 579.449V579.449L2272.82 585.701C2273.5 586.636 2274.44 587.355 2275.52 587.769C2276.6 588.184 2277.78 588.277 2278.92 588.038C2279.89 587.875 2280.89 587.951 2281.83 588.259C2282.77 588.568 2283.63 589.099 2284.32 589.809C2285.44 590.862 2286.93 591.441 2288.47 591.427C2290.54 591.427 2288.81 592.935 2290.5 596.475C2290.5 596.475 2311.88 569.698 2280.92 550.39C2280.92 550.39 2245.98 522.284 2219.56 554.373C2219.56 554.373 2201.48 582.298 2223.43 606.047L2230.7 593.322Z" fill="#2F2E41"/>
<path id="Vector_48" d="M2227.84 613.336C2227.84 613.336 2229.57 623.986 2233.38 625.41C2233.38 625.41 2236.74 624.899 2237.25 612.381C2237.26 612.381 2231.62 616.323 2227.84 613.336Z" fill="#2F2E41"/>
<path id="Vector_49" d="M2231.98 614.622C2236.76 614.622 2240.64 609.854 2240.64 603.972C2240.64 598.09 2236.76 593.322 2231.98 593.322C2227.19 593.322 2223.32 598.09 2223.32 603.972C2223.32 609.854 2227.19 614.622 2231.98 614.622Z" fill="#F9B499"/>
</g>
</g>
</svg>
