<svg width="1903" height="2183" viewBox="0 0 1903 2183" fill="none" xmlns="http://www.w3.org/2000/svg">
<g id="bg-resume-mobile">
<circle id="Ellipse 1" cx="951.5" cy="1231.5" r="951.5" fill="#338DF5"/>
<g id="Detailed examination 1">
<path id="Vector" d="M937.789 47.0316L939.377 45.8822L956.526 44.6252L957.279 87.1181L962.546 125.229L947.326 129.679L937.789 47.0316Z" fill="#CCCCCC"/>
<path id="Vector_2" d="M1081.11 231.021L1081.06 241.658L945.914 316.143L937.882 317.738L793.128 232.405L791.809 241.834C791.755 243.255 792.095 244.663 792.791 245.902C793.487 247.142 794.512 248.165 795.752 248.858L935.976 327.603C937.287 328.336 938.764 328.717 940.265 328.708C941.766 328.7 943.24 328.302 944.541 327.554L1081.11 248.951L1082.66 247.938C1083.93 247.124 1084.96 245.986 1085.65 244.641C1086.34 243.296 1086.65 241.792 1086.57 240.284C1086.36 237.144 1085.16 233.388 1081.11 231.021Z" fill="#CCCCCC"/>
<path id="Vector_3" opacity="0.2" d="M1081.11 231.021L1081.06 241.658L945.914 314.045L937.882 315.639L793.128 232.405L791.809 241.834C791.755 243.255 792.095 244.663 792.791 245.902C793.487 247.142 794.512 248.165 795.752 248.858L935.976 327.603C937.287 328.336 938.764 328.717 940.265 328.708C941.766 328.7 943.24 328.302 944.541 327.554L1081.11 248.951L1082.66 247.938C1083.93 247.124 1084.96 245.986 1085.65 244.641C1086.34 243.296 1086.65 241.792 1086.57 240.284C1086.36 237.144 1085.16 233.388 1081.11 231.021Z" fill="black"/>
<path id="Vector_4" d="M796.821 238.328L937.227 315.605C938.181 316.173 939.271 316.473 940.381 316.473C941.491 316.473 942.581 316.173 943.535 315.605L1081.07 241.751C1082 241.195 1082.77 240.407 1083.31 239.464C1083.85 238.52 1084.13 237.454 1084.14 236.368C1084.14 235.282 1083.86 234.213 1083.33 233.266C1082.8 232.319 1082.03 231.525 1081.11 230.962L938.698 146.451C937.749 145.879 936.665 145.573 935.558 145.564C934.451 145.556 933.362 145.845 932.405 146.402L796.89 225.181C795.742 225.848 794.789 226.804 794.124 227.953C793.459 229.103 793.105 230.406 793.098 231.735C793.092 233.063 793.431 234.37 794.084 235.527C794.738 236.683 795.681 237.649 796.821 238.328Z" fill="#CCCCCC"/>
<path id="Vector_5" d="M924.885 235.745L924.006 249.743C924.006 249.743 926.864 251.25 931.677 249.743C932.233 249.672 932.797 249.761 933.304 250.002C933.811 250.242 934.238 250.622 934.535 251.098C934.535 251.098 937.999 255.304 944.693 254.747C945.59 254.684 946.443 254.33 947.12 253.737C947.797 253.145 948.263 252.347 948.445 251.465C948.704 249.915 948.354 248.325 947.468 247.029C947.468 247.029 946.144 244.642 941.58 244.016C940.263 243.846 939.037 243.247 938.093 242.311C937.15 241.375 936.539 240.154 936.357 238.836C936.233 237.808 936.202 236.77 936.265 235.735L924.885 235.745Z" fill="#0071F2"/>
<path id="Vector_6" d="M924.582 231.069L927.743 195.825L926.165 134.385C926.165 134.385 952.417 130.017 961.441 124.143C961.441 124.143 970.08 161.339 970.07 190.66C970.102 191.574 969.913 192.482 969.518 193.306L953.17 224.74L942.338 219.771L953.727 189.701C954.146 188.591 954.211 187.378 953.912 186.229L948.352 164.826C948.352 164.826 938.883 225.797 936.25 231.094C936.25 231.069 932.859 234.077 924.582 231.069Z" fill="#2F2E41"/>
<path id="Vector_7" d="M930.675 231.02C930.675 231.02 941.732 171.429 933.46 154.261" stroke="#3F3D56" stroke-miterlimit="10"/>
<path id="Vector_8" d="M944.527 220.784L957.396 189.481C957.67 188.812 957.737 188.076 957.587 187.369L951.171 157.431" stroke="#3F3D56" stroke-miterlimit="10"/>
<path id="Vector_9" d="M942.636 223.029C942.636 223.029 936.817 233.05 936.533 234.405C936.533 234.405 934.51 236.816 942.035 239.071C942.758 239.114 943.457 239.345 944.064 239.741C944.671 240.138 945.164 240.685 945.494 241.331C945.494 241.331 948.245 248.516 955.661 247.723C956.142 247.678 956.609 247.538 957.036 247.312C957.462 247.086 957.84 246.778 958.148 246.405C958.456 246.033 958.687 245.603 958.829 245.141C958.97 244.679 959.02 244.194 958.974 243.713C958.889 242.87 958.638 242.053 958.236 241.308C957.833 240.564 957.287 239.906 956.629 239.374C956.629 239.374 956.072 238.357 953.946 236.973C953.206 236.492 952.591 235.842 952.15 235.077C951.709 234.312 951.456 233.453 951.411 232.571C951.286 230.851 951.525 229.125 952.114 227.504L942.636 223.029Z" fill="#0071F2"/>
<path id="Vector_10" d="M907.682 166.46C907.682 166.46 925.76 175.616 936.533 173.488C936.533 173.488 952.818 133.328 952.618 93.3689C952.618 93.3689 944.8 71.2812 936.167 61.0395L937.97 57.6158H934.755L935.356 48.7827C935.356 48.7827 915.7 61.4308 916.301 67.657L924.573 125.287L907.682 166.46Z" fill="#0071F2"/>
<path id="Vector_11" d="M926.322 140.542C928.953 140.972 931.651 140.677 934.127 139.689C936.604 138.701 938.765 137.056 940.378 134.932C937.482 128.037 935.159 120.914 933.431 113.637C931.886 106.925 931.477 100.001 932.219 93.1535L934.364 72.6848C934.364 72.6848 937.12 56.0163 923.102 58.0118C923.102 58.0118 915.509 62.5311 915.206 69.7502C915.211 69.7746 910.892 109.734 926.322 140.542Z" fill="#0071F2"/>
<path id="Vector_12" opacity="0.2" d="M926.322 140.542C928.953 140.972 931.651 140.677 934.127 139.689C936.604 138.701 938.765 137.056 940.378 134.932C937.482 128.037 935.159 120.914 933.431 113.637C931.886 106.925 931.477 100.001 932.219 93.1535L934.364 72.6848C934.364 72.6848 937.12 56.0163 923.102 58.0118C923.102 58.0118 915.509 62.5311 915.206 69.7502C915.211 69.7746 910.892 109.734 926.322 140.542Z" fill="black"/>
<path id="Vector_13" d="M928.95 140.733C928.95 140.733 936.607 160.811 951.049 151.796C951.193 151.708 951.312 151.583 951.393 151.435C951.474 151.286 951.516 151.119 951.513 150.95C951.514 150.818 951.487 150.688 951.435 150.567C951.384 150.445 951.308 150.336 951.214 150.244C951.119 150.153 951.006 150.082 950.883 150.035C950.76 149.988 950.629 149.967 950.497 149.972C949.618 149.996 948.739 149.928 947.873 149.772C944.453 149.092 944.483 144.171 947.927 143.575H947.947C948.107 143.562 948.265 143.52 948.411 143.452C948.552 143.365 948.663 143.236 948.729 143.084C948.796 142.932 948.815 142.763 948.784 142.6C948.752 142.437 948.672 142.287 948.554 142.17C948.436 142.054 948.286 141.975 948.123 141.946C944.874 141.369 939.04 139.99 937.965 137.432C937.97 137.437 934.755 140.611 928.95 140.733Z" fill="#F9B499"/>
<path id="Vector_14" d="M931.574 145.751L922.506 145.56C922.436 145.559 922.368 145.576 922.307 145.61C922.246 145.643 922.195 145.692 922.158 145.751C922.122 145.81 922.101 145.878 922.099 145.947C922.096 146.017 922.112 146.086 922.144 146.147L924.03 149.674C924.03 149.674 920.522 150.676 921.827 154.242C921.827 154.242 922.428 157.353 927.944 155.797L939.069 153C936.034 151.21 933.466 148.726 931.574 145.751Z" fill="#CCCCCC"/>
<path id="Vector_15" d="M973.475 157.426C973.475 157.426 981.293 153.811 985.114 147.585C985.114 147.585 967.06 111.641 968.463 87.7441L969.84 59.0438C969.923 57.373 969.618 55.7056 968.948 54.1729C968.278 52.6401 967.263 51.2839 965.98 50.2107C963.45 48.1027 960.069 45.6964 956.78 44.6252L960.689 49.8977L959.336 52.0057L960.841 53.6589C960.841 53.6589 961.539 70.0045 956.35 85.7388C955.924 87.0357 955.745 88.4011 955.823 89.7641C956.302 98.7195 959.033 132.922 973.475 157.426Z" fill="#0071F2"/>
<path id="Vector_16" d="M952.114 91.9994C952.114 91.9994 947.502 57.7136 939.377 45.8774L935.366 48.812L934.755 57.6256H937.96L936.157 61.0493C942.716 70.9837 948.156 81.6146 952.378 92.7477" fill="#0071F2"/>
<path id="Vector_17" opacity="0.2" d="M952.114 91.9994C952.114 91.9994 947.502 57.7136 939.377 45.8774L935.366 48.812L934.755 57.6256H937.96L936.157 61.0493C942.716 70.9837 948.156 81.6146 952.378 92.7477" fill="white"/>
<path id="Vector_18" d="M955.803 87.5485C955.803 87.5485 955.725 51.5068 955.124 46.4887L956.78 44.6301L960.689 49.9026L959.336 52.0106L960.841 53.6638C960.841 53.6638 964.007 58.5547 955.803 88.0522" fill="#0071F2"/>
<path id="Vector_19" opacity="0.2" d="M955.803 87.5485C955.803 87.5485 955.725 51.5068 955.124 46.4887L956.78 44.6301L960.689 49.9026L959.336 52.0106L960.841 53.6638C960.841 53.6638 964.007 58.5547 955.803 88.0522" fill="white"/>
<path id="Vector_20" d="M952.618 45.8773V50.2792C950.111 54.0941 942.817 52.573 942.817 52.573C942.162 50.9003 940.232 47.1929 940.232 47.1929L940.398 38.5212H943.574L952.618 45.8773Z" fill="#F9B499"/>
<path id="Vector_21" d="M807.79 59.8362C807.79 59.8362 829.855 62.0421 842.895 57.0239C842.895 57.0239 847.293 79.9137 858.53 88.0474C858.53 88.0474 841.478 92.5667 833.153 90.3559C833.163 90.3559 815.412 75.4971 807.79 59.8362Z" fill="#2F2E41"/>
<path id="Vector_22" d="M895.448 275.494L926.336 296.378L949.407 280.918L918.314 263.046L895.448 275.494Z" fill="#2F2E41"/>
<path id="Vector_23" d="M895.448 279.011V275.494L926.336 296.379L949.407 280.918V284.327L926.942 299.592L895.448 279.011Z" fill="#3F3D56"/>
<path id="Vector_24" opacity="0.2" d="M895.448 279.011V275.494L926.336 296.379L949.407 280.918V284.327L926.942 299.592L895.448 279.011Z" fill="#231F20"/>
<path id="Vector_25" d="M955.227 220.784H979.094L986.716 194.974H968.653L955.227 220.784Z" fill="white"/>
<path id="Vector_26" d="M1075.84 99.2867C1075.84 99.2867 1114.86 85.6409 1131.14 70.5474C1131.14 70.5474 1117.5 95.5403 1105.29 101.013C1105.27 101.023 1090.93 105.273 1075.84 99.2867Z" fill="#CCCCCC"/>
<path id="Vector_27" d="M1131.17 70.5572C1135.56 63.2501 1119.68 62.1692 1119.68 62.1692C1119.68 62.1692 1117.56 77.8937 1111.32 83.8069C1111.3 83.8069 1124.92 76.0693 1131.17 70.5572Z" fill="#CCCCCC"/>
<path id="Vector_28" opacity="0.2" d="M1131.17 70.5572C1135.56 63.2501 1119.68 62.1692 1119.68 62.1692C1119.68 62.1692 1117.56 77.8937 1111.32 83.8069C1111.3 83.8069 1124.92 76.0693 1131.17 70.5572Z" fill="#231F20"/>
<path id="Vector_29" d="M941.595 261.237C941.595 261.237 1015.33 231.744 1047.43 167.193C1060.14 141.604 1049.65 110.585 1023.81 98.4114C1011.08 92.4101 993.288 88.2088 968.467 87.7441" stroke="#2F2E41" stroke-miterlimit="10"/>
<path id="Vector_30" d="M914.649 90.9722C914.649 90.9722 858.081 94.3959 854.03 124.387C852.916 132.624 856.268 140.801 862.454 146.348C875.484 158.018 910.721 176.114 1001.36 168.274C1001.36 168.274 1137.3 151.757 1124.89 80.7256" stroke="#2F2E41" stroke-miterlimit="10"/>
<path id="Vector_31" d="M879.222 161.339C881.505 161.339 883.355 159.486 883.355 157.201C883.355 154.916 881.505 153.063 879.222 153.063C876.939 153.063 875.088 154.916 875.088 157.201C875.088 159.486 876.939 161.339 879.222 161.339Z" fill="#2F2E41"/>
<path id="Vector_32" d="M907.682 140.484C908.791 140.484 909.69 139.584 909.69 138.473C909.69 137.363 908.791 136.463 907.682 136.463C906.573 136.463 905.674 137.363 905.674 138.473C905.674 139.584 906.573 140.484 907.682 140.484Z" fill="#2F2E41"/>
<path id="Vector_33" d="M989.755 242.265C990.864 242.265 991.763 241.365 991.763 240.255C991.763 239.145 990.864 238.245 989.755 238.245C988.646 238.245 987.747 239.145 987.747 240.255C987.747 241.365 988.646 242.265 989.755 242.265Z" fill="#2F2E41"/>
<path id="Vector_34" d="M991.763 228.648C992.872 228.648 993.771 227.748 993.771 226.638C993.771 225.528 992.872 224.628 991.763 224.628C990.654 224.628 989.755 225.528 989.755 226.638C989.755 227.748 990.654 228.648 991.763 228.648Z" fill="#2F2E41"/>
<path id="Vector_35" d="M1046.39 192.421C1047.5 192.421 1048.4 191.521 1048.4 190.411C1048.4 189.3 1047.5 188.4 1046.39 188.4C1045.28 188.4 1044.38 189.3 1044.38 190.411C1044.38 191.521 1045.28 192.421 1046.39 192.421Z" fill="#2F2E41"/>
<path id="Vector_36" d="M1036.36 119.403C1037.47 119.403 1038.37 118.503 1038.37 117.393C1038.37 116.283 1037.47 115.383 1036.36 115.383C1035.25 115.383 1034.35 116.283 1034.35 117.393C1034.35 118.503 1035.25 119.403 1036.36 119.403Z" fill="#0071F2"/>
<path id="Vector_37" d="M923.381 230.937V235.046C923.377 235.258 923.442 235.467 923.568 235.639C923.693 235.811 923.871 235.938 924.074 235.999C925.54 236.439 929.385 237.163 937.134 235.877C937.368 235.843 937.582 235.725 937.735 235.545C937.889 235.365 937.972 235.135 937.97 234.899V231.133C937.976 230.971 937.942 230.81 937.87 230.665C937.799 230.519 937.692 230.394 937.561 230.3C937.429 230.206 937.276 230.146 937.115 230.126C936.955 230.105 936.792 230.125 936.641 230.184C934.686 230.903 930.631 231.778 924.67 229.988C924.522 229.944 924.365 229.934 924.212 229.96C924.059 229.987 923.914 230.048 923.789 230.14C923.664 230.233 923.562 230.352 923.491 230.491C923.42 230.629 923.382 230.782 923.381 230.937Z" fill="#3F3D56"/>
<path id="Vector_38" d="M942.978 218.074C942.82 217.982 942.645 217.923 942.463 217.9C942.282 217.878 942.098 217.894 941.923 217.945C941.747 217.997 941.584 218.084 941.444 218.202C941.304 218.319 941.189 218.463 941.106 218.627L940.33 220.202C940.053 220.769 940.007 221.421 940.2 222.022C940.393 222.622 940.811 223.125 941.365 223.425L950.619 228.35C950.91 228.502 951.229 228.594 951.556 228.621C951.884 228.647 952.213 228.607 952.525 228.503C952.836 228.398 953.123 228.233 953.369 228.015C953.615 227.797 953.815 227.532 953.956 227.235L955.139 224.711C955.215 224.548 955.258 224.37 955.265 224.19C955.271 224.009 955.241 223.829 955.176 223.661C955.111 223.492 955.013 223.338 954.887 223.209C954.762 223.079 954.611 222.976 954.445 222.906L942.978 218.074Z" fill="#3F3D56"/>
<path id="Vector_39" d="M948.807 142.699C948.807 142.699 963.249 133.225 965.555 134.13C965.555 134.13 974.931 137.383 970.192 145.673C970.008 145.99 969.761 146.267 969.466 146.485C969.171 146.702 968.834 146.857 968.477 146.94L951.513 150.95C951.513 150.95 951.557 149.61 949.754 149.972C949.754 149.972 945.821 150.182 945.357 147.165C945.357 147.165 944.688 144.421 947.952 143.58C948.176 143.56 948.386 143.46 948.543 143.299C948.7 143.137 948.793 142.924 948.807 142.699Z" fill="#CCCCCC"/>
<path id="Vector_40" opacity="0.2" d="M967.29 145.565C969.246 145.565 970.832 143.978 970.832 142.019C970.832 140.061 969.246 138.473 967.29 138.473C965.333 138.473 963.748 140.061 963.748 142.019C963.748 143.978 965.333 145.565 967.29 145.565Z" fill="black"/>
<path id="Vector_41" d="M858.535 96.5822C858.535 96.5822 872.074 101.659 879.295 94.9045C879.295 94.9045 885.612 112.845 891.632 117.364C891.632 117.364 882.402 119.012 875.083 117.364C875.088 117.383 862.751 109.23 858.535 96.5822Z" fill="#CCCCCC"/>
<path id="Vector_42" d="M1004.17 99.2869C1004.17 99.2869 1014.4 104.926 1016.6 111.289C1016.6 111.289 1023.02 99.1842 1024.22 90.1457C1024.22 90.1457 1018.01 81.5131 1009.18 78.5002C1009.18 78.51 1010.39 89.7642 1004.17 99.2869Z" fill="#2F2E41"/>
<path id="Vector_43" d="M1003.37 154.164C1003.37 154.164 1015.2 146.734 1021.62 126.857C1021.62 126.857 1036.86 133.484 1045.07 130.672C1045.07 130.672 1035.85 149.85 1025.82 155.822C1025.83 155.822 1014 159.788 1003.37 154.164Z" fill="#CCCCCC"/>
<path id="Vector_44" d="M1038.37 113.148C1040.65 113.148 1042.5 111.295 1042.5 109.01C1042.5 106.725 1040.65 104.872 1038.37 104.872C1036.09 104.872 1034.24 106.725 1034.24 109.01C1034.24 111.295 1036.09 113.148 1038.37 113.148Z" fill="#2F2E41"/>
<path id="Vector_45" d="M952.618 48.1223V46.4888C952.618 46.4888 947.512 44.3905 943.764 42.5515C943.764 42.5515 946.163 46.2393 952.618 48.1223Z" fill="#F4A48E"/>
<path id="Vector_46" d="M941.263 39.5532C942.044 43.0698 951.313 46.2245 951.313 46.2245C951.313 46.2245 960.161 49.9368 960.41 29.4338L954.22 22.5864C954.22 22.5864 940.481 22.8946 940.232 23.7945C939.983 24.6944 939.743 33.7868 939.743 33.7868L941.263 39.5532Z" fill="#F9B499"/>
<path id="Vector_47" d="M939.279 30.016C939.279 30.016 940.481 29.1112 944.092 33.7821L944.497 31.0676C944.507 31.0045 944.533 30.9451 944.573 30.8955C944.613 30.8458 944.666 30.8076 944.725 30.7848C944.785 30.7619 944.849 30.7552 944.912 30.7654C944.975 30.7756 945.034 30.8022 945.083 30.8426C946.05 31.6729 947.075 32.4314 948.152 33.112C948.318 33.2117 948.508 33.2653 948.702 33.2674C948.896 33.2695 949.087 33.22 949.255 33.1239C949.424 33.0279 949.564 32.8888 949.661 32.7209C949.758 32.5529 949.809 32.3621 949.808 32.1681V29.9476L950.331 29.6737C950.647 29.5113 950.904 29.2533 951.066 28.9364C951.227 28.6194 951.284 28.2596 951.23 27.908L951.078 26.9005C951.045 26.6787 951.059 26.4522 951.121 26.2365C951.183 26.0209 951.291 25.8212 951.437 25.6511C951.583 25.4811 951.764 25.3447 951.968 25.2514C952.172 25.158 952.393 25.1099 952.618 25.1104L954.147 27.3211C954.388 27.652 954.72 27.906 955.102 28.0526C955.485 28.1992 955.901 28.2322 956.301 28.1477C956.646 28.09 956.999 28.1168 957.331 28.2259C957.663 28.3349 957.964 28.5229 958.207 28.7737C958.604 29.146 959.129 29.3509 959.673 29.346C960.406 29.346 959.795 29.8791 960.391 31.1312C960.391 31.1312 967.94 21.6622 957.01 14.8344C957.01 14.8344 944.673 4.89597 935.346 16.243C935.346 16.243 928.96 26.1179 936.709 34.5157L939.279 30.016Z" fill="#2F2E41"/>
<path id="Vector_48" d="M938.268 37.0931C938.268 37.0931 938.878 40.8591 940.222 41.3629C940.222 41.3629 941.409 41.182 941.59 36.7556C941.595 36.7556 939.601 38.1495 938.268 37.0931Z" fill="#2F2E41"/>
<path id="Vector_49" d="M939.728 37.548C941.418 37.548 942.787 35.8619 942.787 33.7819C942.787 31.702 941.418 30.0159 939.728 30.0159C938.039 30.0159 936.67 31.702 936.67 33.7819C936.67 35.8619 938.039 37.548 939.728 37.548Z" fill="#F9B499"/>
</g>
</g>
</svg>
