<svg width="60" height="60" viewBox="0 0 60 60" fill="none" xmlns="http://www.w3.org/2000/svg">
<g id="github_logo">
<path id="Vector" d="M30 5C43.785 5 55 16.215 55 30C55 43.785 43.785 55 30 55C16.215 55 5 43.785 5 30C5 16.215 16.215 5 30 5ZM30 0C13.4325 0 0 13.4325 0 30C0 46.5675 13.4325 60 30 60C46.5675 60 60 46.5675 60 30C60 13.4325 46.5675 0 30 0ZM30 15C21.7175 15 15 21.715 15 30C15 36.6275 19.2975 42.25 25.26 44.2325C26.01 44.3725 26.25 43.9075 26.25 43.51V40.7175C22.0775 41.625 21.2075 38.95 21.2075 38.95C20.5275 37.2175 19.5425 36.755 19.5425 36.755C18.1825 35.8225 19.645 35.8425 19.645 35.8425C21.1525 35.9475 21.945 37.39 21.945 37.39C23.2825 39.6825 25.4525 39.02 26.31 38.6375C26.445 37.6675 26.8325 37.0075 27.2625 36.6325C23.93 36.2525 20.43 34.965 20.43 29.22C20.43 27.5825 21.015 26.245 21.975 25.195C21.82 24.8125 21.305 23.285 22.12 21.22C22.12 21.22 23.38 20.8175 26.245 22.7575C27.4425 22.425 28.725 22.26 30 22.2525C31.275 22.2575 32.5575 22.425 33.7575 22.7575C36.6225 20.8175 37.8775 21.22 37.8775 21.22C38.695 23.285 38.18 24.8125 38.0275 25.19C38.99 26.24 39.57 27.5775 39.57 29.215C39.57 34.9775 36.06 36.245 32.72 36.615C33.26 37.08 33.75 37.9925 33.75 39.3925V43.5075C33.75 43.9075 33.99 44.375 34.75 44.2275C40.7075 42.245 45 36.625 45 30C45 21.715 38.2825 15 30 15Z" fill="rgb(3,6, 12)"/>
</g>
</svg>
