<svg width="60" height="60" viewBox="0 0 60 60" fill="none" xmlns="http://www.w3.org/2000/svg">
<g id="linkedin_logo">
<path id="Vector" d="M30 5C43.785 5 55 16.215 55 30C55 43.785 43.785 55 30 55C16.215 55 5 43.785 5 30C5 16.215 16.215 5 30 5ZM30 0C13.4325 0 0 13.4325 0 30C0 46.5675 13.4325 60 30 60C46.5675 60 60 46.5675 60 30C60 13.4325 46.5675 0 30 0ZM25 20C25 21.3925 23.8825 22.52 22.5 22.52C21.1175 22.52 20 21.395 20 20C20 18.6075 21.1175 17.48 22.5 17.48C23.8825 17.48 25 18.61 25 20ZM25 25H20V40H25V25ZM32.5 25H27.5V40H32.5V32.8475C32.5 28.5425 37.505 28.145 37.505 32.8475V40H42.5V31.6025C42.5 23.3925 34.68 23.6925 32.5 27.7325V25Z" fill="rgb(3, 6, 12)"/>
</g>
</svg>
