<svg width="61" height="61" viewBox="0 0 61 61" fill="none" xmlns="http://www.w3.org/2000/svg">
<g id="resume_logo">
<path id="Vector" fill-rule="evenodd" clip-rule="evenodd" d="M7.62501 61H55.9167V2.54167H53.375V58.4583H7.62501V61ZM50.8333 0H5.08334V55.9167H50.8333V0ZM48.2917 2.54167H7.62501V53.375H48.2917V2.54167ZM43.2083 43.2083H12.7083V45.75H43.2083V43.2083ZM43.2083 35.5833H12.7083V38.125H43.2083V35.5833ZM43.2083 27.9583H12.7083V30.5H43.2083V27.9583ZM24.5322 18.1399L26.9417 18.9024C26.5731 20.2469 25.958 21.2458 25.099 21.8965C24.2399 22.5497 23.1495 22.875 21.8278 22.875C20.1936 22.875 18.8516 22.3158 17.7993 21.2C16.7471 20.0842 16.2209 18.5567 16.2209 16.62C16.2209 14.5714 16.7496 12.9803 17.8069 11.8467C18.8643 10.7131 20.2545 10.1463 21.9803 10.1463C23.485 10.1463 24.7076 10.5911 25.648 11.4807C26.2097 12.0068 26.629 12.7642 26.9086 13.7479L24.4483 14.335C24.3034 13.697 23.9984 13.1938 23.5384 12.8253C23.0758 12.4542 22.5141 12.2712 21.8533 12.2712C20.9408 12.2712 20.2012 12.599 19.6318 13.2523C19.0651 13.908 18.7804 14.9679 18.7804 16.4344C18.7804 17.9925 19.06 19.1006 19.6217 19.7589C20.1808 20.4198 20.9078 20.7502 21.8024 20.7502C22.4633 20.7502 23.0326 20.5417 23.5079 20.1198C23.9832 19.7005 24.3263 19.0396 24.5322 18.1399ZM32.2156 22.664L27.816 10.3573H30.5102L33.6263 19.4666L36.6407 10.3573H39.2764L34.8691 22.664H32.2156Z" fill="rgb(3, 6, 12)"/>
</g>
</svg>
