<svg width="60" height="60" viewBox="0 0 60 60" fill="none" xmlns="http://www.w3.org/2000/svg">
<g id="twitter_logo">
<path id="Vector" d="M30 5C43.785 5 55 16.215 55 30C55 43.785 43.785 55 30 55C16.215 55 5 43.785 5 30C5 16.215 16.215 5 30 5ZM30 0C13.4325 0 0 13.4325 0 30C0 46.5675 13.4325 60 30 60C46.5675 60 60 46.5675 60 30C60 13.4325 46.5675 0 30 0ZM46.25 21.945C45.1475 22.435 43.96 22.765 42.715 22.915C43.9875 22.1525 44.96 20.9475 45.4225 19.51C44.2325 20.215 42.915 20.7275 41.5125 21.0025C40.3925 19.805 38.79 19.0575 37.0225 19.0575C33.0475 19.0575 30.1275 22.765 31.025 26.615C25.9125 26.3575 21.375 23.9075 18.34 20.185C16.7275 22.95 17.505 26.57 20.245 28.4025C19.2375 28.37 18.29 28.0925 17.46 27.6325C17.3925 30.4825 19.4375 33.15 22.3975 33.745C21.5325 33.98 20.5825 34.035 19.6175 33.85C20.4 36.295 22.6775 38.0725 25.3675 38.1225C22.775 40.1525 19.5175 41.06 16.25 40.675C18.975 42.4225 22.2075 43.44 25.6825 43.44C37.1125 43.44 43.5675 33.7875 43.1775 25.13C44.3825 24.265 45.425 23.18 46.25 21.945Z" fill="black"/>
</g>
</svg>
